<svg width="292" height="436" viewBox="0 0 292 436" fill="none" xmlns="http://www.w3.org/2000/svg">
<g clip-path="url(#clip0)">
<rect x="-1.11523" y="27" width="215" height="409" fill="#C4C4C4"/>
<path d="M12.3311 39.6865H8.3936V42.3525H13.0147V44H6.34282V34.0469H13.001V35.708H8.3936V38.0801H12.3311V39.6865ZM13.6641 40.2471C13.6641 39.1123 13.933 38.1986 14.4708 37.5059C15.0131 36.8132 15.7422 36.4668 16.6583 36.4668C17.4695 36.4668 18.1006 36.7448 18.5518 37.3008L18.6338 36.6035H20.4249V43.7539C20.4249 44.401 20.2767 44.9639 19.9805 45.4424C19.6889 45.9209 19.2764 46.2855 18.7432 46.5361C18.21 46.7868 17.5857 46.9121 16.8702 46.9121C16.3278 46.9121 15.7992 46.8027 15.2842 46.584C14.7693 46.3698 14.3796 46.0918 14.1153 45.75L14.9903 44.5469C15.4825 45.0983 16.0795 45.374 16.7813 45.374C17.3054 45.374 17.7133 45.2327 18.0049 44.9502C18.2966 44.6722 18.4424 44.2757 18.4424 43.7607V43.3643C17.9867 43.8792 17.3874 44.1367 16.6446 44.1367C15.7559 44.1367 15.0359 43.7904 14.4844 43.0977C13.9375 42.4004 13.6641 41.4775 13.6641 40.3291V40.2471ZM15.6397 40.3906C15.6397 41.0605 15.7741 41.5869 16.043 41.9697C16.3119 42.348 16.681 42.5371 17.1504 42.5371C17.752 42.5371 18.1827 42.3115 18.4424 41.8604V38.75C18.1781 38.2988 17.752 38.0732 17.1641 38.0732C16.6902 38.0732 16.3165 38.2669 16.043 38.6543C15.7741 39.0417 15.6397 39.6204 15.6397 40.3906ZM26.1055 38.4561C25.8366 38.4196 25.5997 38.4014 25.3946 38.4014C24.6472 38.4014 24.1573 38.6543 23.9249 39.1602V44H21.9493V36.6035H23.8155L23.8702 37.4854C24.2667 36.8063 24.8158 36.4668 25.5176 36.4668C25.7364 36.4668 25.9415 36.4964 26.1329 36.5557L26.1055 38.4561ZM30.3301 44.1367C29.2455 44.1367 28.3614 43.804 27.6778 43.1387C26.9987 42.4733 26.6592 41.5869 26.6592 40.4795V40.2881C26.6592 39.5452 26.8028 38.8822 27.0899 38.2988C27.377 37.7109 27.7826 37.2598 28.3067 36.9453C28.8353 36.6263 29.4369 36.4668 30.1114 36.4668C31.1231 36.4668 31.9183 36.7858 32.4971 37.4238C33.0805 38.0618 33.3721 38.9665 33.3721 40.1377V40.9443H28.6622C28.726 41.4274 28.9174 41.8148 29.2364 42.1064C29.5599 42.3981 29.9678 42.5439 30.46 42.5439C31.2211 42.5439 31.8158 42.2682 32.2442 41.7168L33.2149 42.8037C32.9187 43.223 32.5176 43.5511 32.0118 43.7881C31.5059 44.0205 30.9454 44.1367 30.3301 44.1367ZM30.1045 38.0664C29.7126 38.0664 29.3936 38.1986 29.1475 38.4629C28.906 38.7272 28.751 39.1055 28.6827 39.5977H31.4307V39.4404C31.4216 39.0029 31.3031 38.6657 31.0752 38.4287C30.8474 38.1872 30.5238 38.0664 30.1045 38.0664ZM38.5059 41.9561C38.5059 41.7145 38.3851 41.5254 38.1436 41.3887C37.9066 41.2474 37.5238 41.1221 36.9952 41.0127C35.2361 40.6436 34.3565 39.8962 34.3565 38.7705C34.3565 38.1143 34.6277 37.5674 35.17 37.1299C35.7168 36.6878 36.4301 36.4668 37.3096 36.4668C38.2484 36.4668 38.9981 36.6878 39.5586 37.1299C40.1237 37.5719 40.4063 38.1462 40.4063 38.8525H38.4307C38.4307 38.57 38.3396 38.3376 38.1573 38.1553C37.975 37.9684 37.6902 37.875 37.3028 37.875C36.9701 37.875 36.7126 37.9502 36.5303 38.1006C36.348 38.251 36.2569 38.4424 36.2569 38.6748C36.2569 38.8936 36.3594 39.0713 36.5645 39.208C36.7741 39.3402 37.125 39.4564 37.6172 39.5566C38.1094 39.6523 38.5241 39.7617 38.8614 39.8848C39.905 40.2676 40.4268 40.9307 40.4268 41.874C40.4268 42.5485 40.1374 43.0954 39.5586 43.5146C38.9799 43.9294 38.2325 44.1367 37.3165 44.1367C36.6967 44.1367 36.1452 44.0273 35.6622 43.8086C35.1836 43.5853 34.8077 43.2822 34.5342 42.8994C34.2608 42.512 34.1241 42.0951 34.1241 41.6484H35.9971C36.0153 41.9993 36.1452 42.2682 36.3868 42.4551C36.6283 42.6419 36.9519 42.7354 37.3575 42.7354C37.7357 42.7354 38.0206 42.6647 38.212 42.5234C38.4079 42.3776 38.5059 42.1885 38.5059 41.9561ZM45.711 41.9561C45.711 41.7145 45.5902 41.5254 45.3487 41.3887C45.1117 41.2474 44.7289 41.1221 44.2002 41.0127C42.4411 40.6436 41.5616 39.8962 41.5616 38.7705C41.5616 38.1143 41.8327 37.5674 42.375 37.1299C42.9219 36.6878 43.6351 36.4668 44.5147 36.4668C45.4535 36.4668 46.2032 36.6878 46.7637 37.1299C47.3288 37.5719 47.6114 38.1462 47.6114 38.8525H45.6358C45.6358 38.57 45.5446 38.3376 45.3624 38.1553C45.1801 37.9684 44.8952 37.875 44.5079 37.875C44.1752 37.875 43.9177 37.9502 43.7354 38.1006C43.5531 38.251 43.462 38.4424 43.462 38.6748C43.462 38.8936 43.5645 39.0713 43.7696 39.208C43.9792 39.3402 44.3301 39.4564 44.8223 39.5566C45.3145 39.6523 45.7292 39.7617 46.0665 39.8848C47.1101 40.2676 47.6319 40.9307 47.6319 41.874C47.6319 42.5485 47.3425 43.0954 46.7637 43.5146C46.1849 43.9294 45.4375 44.1367 44.5215 44.1367C43.9017 44.1367 43.3503 44.0273 42.8672 43.8086C42.3887 43.5853 42.0127 43.2822 41.7393 42.8994C41.4659 42.512 41.3292 42.0951 41.3292 41.6484H43.2022C43.2204 41.9993 43.3503 42.2682 43.5918 42.4551C43.8334 42.6419 44.157 42.7354 44.5625 42.7354C44.9408 42.7354 45.2256 42.6647 45.417 42.5234C45.613 42.3776 45.711 42.1885 45.711 41.9561ZM56.2383 40.5342H52.3897V38.9414H56.2383V40.5342ZM67.0596 41.9492H63.4639L62.7803 44H60.5997L64.3047 34.0469H66.2051L69.9307 44H67.75L67.0596 41.9492ZM64.0176 40.2881H66.5059L65.2549 36.5625L64.0176 40.2881ZM70.4229 40.2471C70.4229 39.0941 70.6804 38.1758 71.1954 37.4922C71.7149 36.8086 72.4235 36.4668 73.3213 36.4668C74.0414 36.4668 74.6361 36.7357 75.1055 37.2734V33.5H77.0879V44H75.3038L75.2081 43.2139C74.7159 43.8291 74.0824 44.1367 73.3077 44.1367C72.4372 44.1367 71.7377 43.7949 71.209 43.1113C70.6849 42.4232 70.4229 41.4684 70.4229 40.2471ZM72.3985 40.3906C72.3985 41.0833 72.5193 41.6143 72.7608 41.9834C73.0023 42.3525 73.3532 42.5371 73.8135 42.5371C74.4242 42.5371 74.8549 42.2796 75.1055 41.7646V38.8457C74.8594 38.3307 74.4333 38.0732 73.8272 38.0732C72.8747 38.0732 72.3985 38.8457 72.3985 40.3906ZM81.3877 41.5869L82.7618 36.6035H84.8262L82.3311 44H80.4444L77.9493 36.6035H80.0137L81.3877 41.5869ZM84.6553 43.0293C84.6553 42.7148 84.7601 42.4596 84.9698 42.2637C85.184 42.0677 85.4506 41.9697 85.7696 41.9697C86.0931 41.9697 86.3597 42.0677 86.5694 42.2637C86.7836 42.4596 86.8907 42.7148 86.8907 43.0293C86.8907 43.3392 86.7859 43.5921 86.5762 43.7881C86.3666 43.9795 86.0977 44.0752 85.7696 44.0752C85.446 44.0752 85.1794 43.9795 84.9698 43.7881C84.7601 43.5921 84.6553 43.3392 84.6553 43.0293Z" fill="black"/>
<path d="M201.492 52.7082H103.285C103.285 52.7082 103.185 30.7966 109.478 19.7082C114.235 11.328 117.898 5.7383 126.289 2.70824C139.99 -2.23935 145.538 20.3798 159.909 19.7082C169.849 19.2438 173.854 9.36306 183.797 9.70824C197.306 10.1772 212.521 15.4422 212.994 30.7082C213.303 40.6815 201.492 52.7082 201.492 52.7082Z" fill="#A6E48C"/>
<path d="M132.112 36.1624H127.05V39.5901H132.991V41.7083H124.413V28.9114H132.974V31.0471H127.05V34.0969H132.112V36.1624ZM137.992 35.0374L139.592 32.1985H142.308L139.601 36.8567L142.422 41.7083H139.697L138.001 38.72L136.314 41.7083H133.58L136.401 36.8567L133.703 32.1985H136.428L137.992 35.0374ZM146.57 29.8606V32.1985H148.196V34.0618H146.57V38.8079C146.57 39.1594 146.638 39.4114 146.772 39.5637C146.907 39.7161 147.165 39.7922 147.546 39.7922C147.827 39.7922 148.076 39.7717 148.293 39.7307V41.6555C147.795 41.8079 147.282 41.884 146.755 41.884C144.974 41.884 144.065 40.9846 144.03 39.1858V34.0618H142.642V32.1985H144.03V29.8606H146.57ZM153.988 41.884C152.594 41.884 151.457 41.4563 150.578 40.6008C149.705 39.7454 149.269 38.6057 149.269 37.1819V36.9358C149.269 35.9807 149.453 35.1282 149.822 34.3782C150.191 33.6223 150.713 33.0422 151.387 32.6379C152.066 32.2278 152.84 32.0227 153.707 32.0227C155.008 32.0227 156.03 32.4329 156.774 33.2532C157.524 34.0735 157.899 35.2366 157.899 36.7424V37.7795H151.844C151.926 38.4006 152.172 38.8987 152.582 39.2737C152.998 39.6487 153.522 39.8362 154.155 39.8362C155.134 39.8362 155.898 39.4817 156.449 38.7727L157.697 40.1702C157.316 40.7092 156.801 41.1311 156.15 41.4358C155.5 41.7346 154.779 41.884 153.988 41.884ZM153.698 34.0793C153.194 34.0793 152.784 34.2493 152.468 34.5891C152.157 34.929 151.958 35.4153 151.87 36.0481H155.403V35.8459C155.392 35.2834 155.239 34.8499 154.946 34.5452C154.653 34.2346 154.237 34.0793 153.698 34.0793ZM164.693 34.5803C164.348 34.5334 164.043 34.51 163.779 34.51C162.818 34.51 162.189 34.8352 161.89 35.4856V41.7083H159.35V32.1985H161.749L161.819 33.3323C162.329 32.4592 163.035 32.0227 163.938 32.0227C164.219 32.0227 164.482 32.0608 164.729 32.137L164.693 34.5803ZM168.262 32.1985L168.341 33.2971C169.021 32.4475 169.932 32.0227 171.074 32.0227C172.082 32.0227 172.832 32.3186 173.324 32.9104C173.816 33.5022 174.068 34.387 174.08 35.5647V41.7083H171.54V35.6262C171.54 35.0872 171.423 34.6975 171.189 34.4573C170.954 34.2112 170.564 34.0881 170.02 34.0881C169.305 34.0881 168.769 34.3928 168.411 35.0022V41.7083H165.871V32.1985H168.262ZM181.524 41.7083C181.407 41.4797 181.322 41.1956 181.27 40.8557C180.654 41.5413 179.855 41.884 178.87 41.884C177.939 41.884 177.165 41.6145 176.55 41.0754C175.94 40.5364 175.636 39.8567 175.636 39.0364C175.636 38.0286 176.008 37.2551 176.752 36.7161C177.502 36.177 178.583 35.9045 179.995 35.8987H181.164V35.3538C181.164 34.9143 181.05 34.5627 180.821 34.2991C180.599 34.0354 180.244 33.9036 179.758 33.9036C179.33 33.9036 178.993 34.0061 178.747 34.2112C178.507 34.4163 178.387 34.6975 178.387 35.0549H175.847C175.847 34.5042 176.017 33.9944 176.356 33.5256C176.696 33.0569 177.177 32.6907 177.798 32.427C178.419 32.1575 179.116 32.0227 179.89 32.0227C181.062 32.0227 181.99 32.3186 182.676 32.9104C183.367 33.4963 183.713 34.3225 183.713 35.3889V39.511C183.719 40.4133 183.845 41.0959 184.091 41.5588V41.7083H181.524ZM179.424 39.9417C179.799 39.9417 180.145 39.8596 180.461 39.6956C180.777 39.5256 181.012 39.3 181.164 39.0188V37.384H180.215C178.943 37.384 178.267 37.8235 178.185 38.7024L178.176 38.8518C178.176 39.1682 178.287 39.429 178.51 39.634C178.732 39.8391 179.037 39.9417 179.424 39.9417ZM188.345 41.7083H185.796V28.2083H188.345V41.7083Z" fill="black"/>
<rect x="22" y="270" width="120.223" height="140.06" rx="17" fill="#C4C4C4"/>
<rect x="36.2834" y="278.196" width="97.0158" height="118.282" rx="13.5" fill="white" stroke="black"/>
<rect x="29.6575" y="284.622" width="98.0158" height="119.282" rx="14" fill="white"/>
<rect x="33.2205" y="281.274" width="97.0158" height="118.282" rx="13.5" fill="white" stroke="black"/>
<rect x="30.1575" y="285.122" width="97.0158" height="118.282" rx="13.5" fill="white" stroke="black"/>
<path d="M54.3294 415.905C54.3294 415.518 54.1927 415.222 53.9192 415.016C53.6458 414.807 53.1536 414.588 52.4427 414.36C51.7317 414.128 51.1689 413.9 50.7542 413.677C49.624 413.066 49.0589 412.243 49.0589 411.209C49.0589 410.671 49.2093 410.193 49.5101 409.773C49.8154 409.349 50.2506 409.019 50.8157 408.782C51.3854 408.545 52.0234 408.427 52.7298 408.427C53.4407 408.427 54.0742 408.556 54.6302 408.816C55.1862 409.071 55.6168 409.434 55.9222 409.903C56.2321 410.373 56.387 410.906 56.387 411.503H54.3362C54.3362 411.047 54.1927 410.694 53.9056 410.443C53.6185 410.188 53.2151 410.06 52.6956 410.06C52.1943 410.06 51.8046 410.167 51.5267 410.382C51.2487 410.591 51.1097 410.869 51.1097 411.216C51.1097 411.539 51.2714 411.81 51.595 412.029C51.9231 412.248 52.4039 412.453 53.0374 412.644C54.2041 412.995 55.054 413.43 55.5872 413.95C56.1204 414.47 56.387 415.117 56.387 415.891C56.387 416.753 56.0612 417.43 55.4095 417.922C54.7578 418.409 53.8805 418.653 52.7776 418.653C52.012 418.653 51.3147 418.514 50.6858 418.236C50.0569 417.954 49.5761 417.569 49.2435 417.081C48.9153 416.593 48.7513 416.028 48.7513 415.386H50.8089C50.8089 416.484 51.4651 417.033 52.7776 417.033C53.2653 417.033 53.6458 416.935 53.9192 416.739C54.1927 416.539 54.3294 416.261 54.3294 415.905ZM61.056 418.653C59.9713 418.653 59.0872 418.32 58.4036 417.655C57.7246 416.99 57.3851 416.103 57.3851 414.996V414.805C57.3851 414.062 57.5286 413.399 57.8157 412.815C58.1028 412.227 58.5084 411.776 59.0325 411.462C59.5612 411.143 60.1627 410.983 60.8372 410.983C61.8489 410.983 62.6442 411.302 63.2229 411.94C63.8063 412.578 64.0979 413.483 64.0979 414.654V415.461H59.388C59.4518 415.944 59.6432 416.331 59.9622 416.623C60.2858 416.915 60.6936 417.06 61.1858 417.06C61.9469 417.06 62.5416 416.785 62.97 416.233L63.9407 417.32C63.6445 417.739 63.2435 418.068 62.7376 418.305C62.2317 418.537 61.6712 418.653 61.056 418.653ZM60.8304 412.583C60.4384 412.583 60.1194 412.715 59.8733 412.979C59.6318 413.244 59.4768 413.622 59.4085 414.114H62.1565V413.957C62.1474 413.519 62.0289 413.182 61.8011 412.945C61.5732 412.704 61.2496 412.583 60.8304 412.583ZM69.3821 412.972C69.1132 412.936 68.8763 412.918 68.6712 412.918C67.9238 412.918 67.4339 413.171 67.2015 413.677V418.516H65.2259V411.12H67.0921L67.1468 412.002C67.5433 411.323 68.0924 410.983 68.7942 410.983C69.013 410.983 69.2181 411.013 69.4095 411.072L69.3821 412.972ZM73.2308 416.103L74.6048 411.12H76.6692L74.1741 418.516H72.2874L69.7923 411.12H71.8567L73.2308 416.103ZM79.6292 418.516H77.6468V411.12H79.6292V418.516ZM77.5306 409.206C77.5306 408.91 77.6285 408.666 77.8245 408.474C78.025 408.283 78.2962 408.187 78.638 408.187C78.9752 408.187 79.2441 408.283 79.4446 408.474C79.6451 408.666 79.7454 408.91 79.7454 409.206C79.7454 409.507 79.6429 409.753 79.4378 409.944C79.2373 410.136 78.9707 410.231 78.638 410.231C78.3053 410.231 78.0364 410.136 77.8313 409.944C77.6308 409.753 77.5306 409.507 77.5306 409.206ZM84.3392 417.06C84.7037 417.06 85 416.96 85.2278 416.76C85.4557 416.559 85.5742 416.292 85.5833 415.96H87.4358C87.4313 416.461 87.2946 416.921 87.0257 417.341C86.7568 417.755 86.3877 418.079 85.9183 418.311C85.4534 418.539 84.9384 418.653 84.3733 418.653C83.316 418.653 82.4821 418.318 81.8714 417.648C81.2607 416.974 80.9554 416.044 80.9554 414.859V414.729C80.9554 413.59 81.2584 412.681 81.8645 412.002C82.4707 411.323 83.3024 410.983 84.3597 410.983C85.2848 410.983 86.0254 411.248 86.5813 411.776C87.1419 412.3 87.4267 413 87.4358 413.875H85.5833C85.5742 413.492 85.4557 413.182 85.2278 412.945C85 412.704 84.6992 412.583 84.3255 412.583C83.8652 412.583 83.5166 412.751 83.2796 413.089C83.0472 413.421 82.931 413.964 82.931 414.716V414.921C82.931 415.682 83.0472 416.229 83.2796 416.561C83.512 416.894 83.8652 417.06 84.3392 417.06ZM91.9681 418.653C90.8834 418.653 89.9993 418.32 89.3157 417.655C88.6367 416.99 88.2972 416.103 88.2972 414.996V414.805C88.2972 414.062 88.4407 413.399 88.7278 412.815C89.0149 412.227 89.4205 411.776 89.9446 411.462C90.4733 411.143 91.0748 410.983 91.7493 410.983C92.761 410.983 93.5563 411.302 94.1351 411.94C94.7184 412.578 95.0101 413.483 95.0101 414.654V415.461H90.3001C90.3639 415.944 90.5553 416.331 90.8743 416.623C91.1979 416.915 91.6058 417.06 92.0979 417.06C92.859 417.06 93.4537 416.785 93.8821 416.233L94.8528 417.32C94.5566 417.739 94.1556 418.068 93.6497 418.305C93.1438 418.537 92.5833 418.653 91.9681 418.653ZM91.7425 412.583C91.3506 412.583 91.0315 412.715 90.7854 412.979C90.5439 413.244 90.389 413.622 90.3206 414.114H93.0686V413.957C93.0595 413.519 92.941 413.182 92.7132 412.945C92.4853 412.704 92.1617 412.583 91.7425 412.583ZM105.373 416.466H101.778L101.094 418.516H98.9134L102.618 408.563H104.519L108.244 418.516H106.064L105.373 416.466ZM102.331 414.805H104.82L103.569 411.079L102.331 414.805Z" fill="black"/>
<rect x="36.5493" y="310.017" width="81.9351" height="30.0128" fill="#A0BFF9"/>
<path d="M65.6291 325.704H61.6916V328.37H66.3127V330.017H59.6408V320.064H66.299V321.725H61.6916V324.097H65.6291V325.704ZM69.2043 322.621L69.2658 323.475C69.7945 322.814 70.5031 322.484 71.3918 322.484C72.1757 322.484 72.759 322.714 73.1418 323.174C73.5246 323.635 73.7206 324.323 73.7297 325.239V330.017H71.7541V325.287C71.7541 324.867 71.663 324.564 71.4807 324.377C71.2984 324.186 70.9953 324.09 70.5715 324.09C70.0155 324.09 69.5985 324.327 69.3205 324.801V330.017H67.3449V322.621H69.2043ZM78.0022 327.604L79.3762 322.621H81.4406L78.9455 330.017H77.0588L74.5637 322.621H76.6281L78.0022 327.604ZM81.8986 326.25C81.8986 325.517 82.0399 324.863 82.3225 324.289C82.605 323.714 83.0106 323.27 83.5393 322.956C84.0725 322.641 84.69 322.484 85.3918 322.484C86.3898 322.484 87.2033 322.789 87.8322 323.4C88.4657 324.011 88.8189 324.84 88.8918 325.888L88.9055 326.394C88.9055 327.529 88.5887 328.44 87.9553 329.128C87.3218 329.812 86.4719 330.154 85.4055 330.154C84.3391 330.154 83.4869 329.812 82.8488 329.128C82.2154 328.445 81.8986 327.515 81.8986 326.339V326.25ZM83.8742 326.394C83.8742 327.096 84.0064 327.634 84.2707 328.007C84.535 328.376 84.9133 328.561 85.4055 328.561C85.884 328.561 86.2577 328.379 86.5266 328.014C86.7954 327.645 86.9299 327.057 86.9299 326.25C86.9299 325.562 86.7954 325.029 86.5266 324.651C86.2577 324.273 85.8794 324.083 85.3918 324.083C84.9087 324.083 84.535 324.273 84.2707 324.651C84.0064 325.025 83.8742 325.606 83.8742 326.394ZM92.7746 327.221L94.1418 322.621H96.2609L93.2873 331.166L93.1232 331.555C92.6812 332.521 91.952 333.004 90.9357 333.004C90.6486 333.004 90.357 332.961 90.0607 332.875V331.377L90.3615 331.384C90.7352 331.384 91.0132 331.327 91.1955 331.213C91.3824 331.099 91.5282 330.91 91.633 330.646L91.8654 330.038L89.2746 322.621H91.4006L92.7746 327.221Z" fill="black"/>
<rect x="36.5493" y="350.804" width="81.9351" height="42.3258" fill="#A6E48C"/>
<path d="M67.6287 373.99C67.6287 373.749 67.5079 373.56 67.2664 373.423C67.0294 373.282 66.6466 373.156 66.1179 373.047C64.3588 372.678 63.4793 371.93 63.4793 370.805C63.4793 370.148 63.7504 369.602 64.2927 369.164C64.8396 368.722 65.5528 368.501 66.4324 368.501C67.3712 368.501 68.1209 368.722 68.6814 369.164C69.2465 369.606 69.5291 370.18 69.5291 370.887H67.5535C67.5535 370.604 67.4623 370.372 67.28 370.189C67.0978 370.003 66.8129 369.909 66.4256 369.909C66.0929 369.909 65.8354 369.984 65.6531 370.135C65.4708 370.285 65.3797 370.477 65.3797 370.709C65.3797 370.928 65.4822 371.105 65.6873 371.242C65.8969 371.374 66.2478 371.491 66.74 371.591C67.2322 371.687 67.6469 371.796 67.9841 371.919C69.0278 372.302 69.5496 372.965 69.5496 373.908C69.5496 374.583 69.2602 375.13 68.6814 375.549C68.1026 375.964 67.3552 376.171 66.4392 376.171C65.8194 376.171 65.268 376.062 64.7849 375.843C64.3064 375.619 63.9304 375.316 63.657 374.934C63.3836 374.546 63.2468 374.129 63.2468 373.683H65.1199C65.1381 374.034 65.268 374.302 65.5095 374.489C65.7511 374.676 66.0746 374.77 66.4802 374.77C66.8585 374.77 67.1433 374.699 67.3347 374.558C67.5307 374.412 67.6287 374.223 67.6287 373.99ZM73.5965 373.621L74.9705 368.638H77.0349L74.5398 376.034H72.6531L70.158 368.638H72.2224L73.5965 373.621ZM80.8904 374.578C81.255 374.578 81.5512 374.478 81.7791 374.277C82.0069 374.077 82.1254 373.81 82.1345 373.478H83.9871C83.9825 373.979 83.8458 374.439 83.5769 374.858C83.308 375.273 82.9389 375.597 82.4695 375.829C82.0047 376.057 81.4897 376.171 80.9246 376.171C79.8673 376.171 79.0333 375.836 78.4226 375.166C77.8119 374.492 77.5066 373.562 77.5066 372.377V372.247C77.5066 371.108 77.8097 370.199 78.4158 369.52C79.0219 368.84 79.8536 368.501 80.9109 368.501C81.836 368.501 82.5766 368.765 83.1326 369.294C83.6931 369.818 83.978 370.518 83.9871 371.393H82.1345C82.1254 371.01 82.0069 370.7 81.7791 370.463C81.5512 370.221 81.2504 370.101 80.8767 370.101C80.4164 370.101 80.0678 370.269 79.8308 370.606C79.5984 370.939 79.4822 371.481 79.4822 372.233V372.438C79.4822 373.2 79.5984 373.746 79.8308 374.079C80.0632 374.412 80.4164 374.578 80.8904 374.578ZM90.864 373.983H87.2683L86.5847 376.034H84.4041L88.1091 366.081H90.0095L93.7351 376.034H91.5545L90.864 373.983ZM87.822 372.322H90.3103L89.0593 368.597L87.822 372.322Z" fill="black"/>
<path d="M40.5162 297.423V300.93H38.4654V290.977H42.3482C43.0956 290.977 43.7519 291.114 44.317 291.387C44.8866 291.661 45.3241 292.05 45.6295 292.556C45.9348 293.058 46.0875 293.63 46.0875 294.272C46.0875 295.247 45.7525 296.018 45.0826 296.583C44.4172 297.143 43.4944 297.423 42.3141 297.423H40.5162ZM40.5162 295.762H42.3482C42.8906 295.762 43.303 295.635 43.5855 295.38C43.8727 295.124 44.0162 294.76 44.0162 294.286C44.0162 293.798 43.8727 293.404 43.5855 293.103C43.2984 292.802 42.9019 292.647 42.3961 292.638H40.5162V295.762ZM46.9693 297.164C46.9693 296.43 47.1106 295.776 47.3932 295.202C47.6757 294.628 48.0813 294.183 48.61 293.869C49.1432 293.554 49.7607 293.397 50.4625 293.397C51.4605 293.397 52.274 293.702 52.9029 294.313C53.5364 294.924 53.8896 295.753 53.9625 296.801L53.9762 297.307C53.9762 298.442 53.6594 299.353 53.026 300.042C52.3925 300.725 51.5426 301.067 50.4762 301.067C49.4098 301.067 48.5575 300.725 47.9195 300.042C47.2861 299.358 46.9693 298.428 46.9693 297.253V297.164ZM48.9449 297.307C48.9449 298.009 49.0771 298.547 49.3414 298.921C49.6057 299.29 49.984 299.474 50.4762 299.474C50.9547 299.474 51.3284 299.292 51.5973 298.927C51.8661 298.558 52.0006 297.97 52.0006 297.164C52.0006 296.476 51.8661 295.942 51.5973 295.564C51.3284 295.186 50.9501 294.997 50.4625 294.997C49.9794 294.997 49.6057 295.186 49.3414 295.564C49.0771 295.938 48.9449 296.519 48.9449 297.307ZM54.8853 297.177C54.8853 296.024 55.1428 295.106 55.6578 294.423C56.1773 293.739 56.886 293.397 57.7838 293.397C58.5038 293.397 59.0986 293.666 59.568 294.204V290.43H61.5504V300.93H59.7662L59.6705 300.144C59.1783 300.759 58.5449 301.067 57.7701 301.067C56.8997 301.067 56.2001 300.725 55.6715 300.042C55.1474 299.353 54.8853 298.399 54.8853 297.177ZM56.8609 297.321C56.8609 298.014 56.9817 298.545 57.2232 298.914C57.4648 299.283 57.8157 299.467 58.276 299.467C58.8866 299.467 59.3173 299.21 59.568 298.695V295.776C59.3219 295.261 58.8958 295.004 58.2896 295.004C57.3372 295.004 56.8609 295.776 56.8609 297.321Z" fill="black"/>
<g filter="url(#filter0_d)">
<rect x="8" y="94" width="156" height="127" rx="17" fill="#E9E9E9"/>
<rect x="26.5" y="104.5" width="126" height="92" rx="13.5" fill="white" stroke="black"/>
<rect x="18" y="113" width="127" height="84" rx="14" fill="white"/>
<rect x="22.5" y="108.5" width="126" height="88" rx="13.5" fill="white" stroke="black"/>
<rect x="18.5" y="113.5" width="126" height="83" rx="13.5" fill="white" stroke="black"/>
<path d="M37.885 208.687H33.9475V211.353H38.5686V213H31.8968V203.047H38.555V204.708H33.9475V207.08H37.885V208.687ZM39.218 209.247C39.218 208.112 39.4869 207.199 40.0247 206.506C40.567 205.813 41.2962 205.467 42.2122 205.467C43.0234 205.467 43.6546 205.745 44.1057 206.301L44.1878 205.604H45.9788V212.754C45.9788 213.401 45.8307 213.964 45.5345 214.442C45.2428 214.921 44.8304 215.285 44.2971 215.536C43.7639 215.787 43.1396 215.912 42.4241 215.912C41.8818 215.912 41.3531 215.803 40.8382 215.584C40.3232 215.37 39.9335 215.092 39.6692 214.75L40.5442 213.547C41.0364 214.098 41.6334 214.374 42.3352 214.374C42.8593 214.374 43.2672 214.233 43.5589 213.95C43.8505 213.672 43.9964 213.276 43.9964 212.761V212.364C43.5406 212.879 42.9414 213.137 42.1985 213.137C41.3098 213.137 40.5898 212.79 40.0384 212.098C39.4915 211.4 39.218 210.478 39.218 209.329V209.247ZM41.1936 209.391C41.1936 210.061 41.3281 210.587 41.597 210.97C41.8658 211.348 42.235 211.537 42.7044 211.537C43.3059 211.537 43.7366 211.312 43.9964 210.86V207.75C43.732 207.299 43.3059 207.073 42.718 207.073C42.2441 207.073 41.8704 207.267 41.597 207.654C41.3281 208.042 41.1936 208.62 41.1936 209.391ZM51.6595 207.456C51.3906 207.42 51.1536 207.401 50.9485 207.401C50.2011 207.401 49.7112 207.654 49.4788 208.16V213H47.5032V205.604H49.3694L49.4241 206.485C49.8206 205.806 50.3697 205.467 51.0716 205.467C51.2903 205.467 51.4954 205.496 51.6868 205.556L51.6595 207.456ZM55.8841 213.137C54.7994 213.137 53.9153 212.804 53.2317 212.139C52.5527 211.473 52.2132 210.587 52.2132 209.479V209.288C52.2132 208.545 52.3567 207.882 52.6438 207.299C52.9309 206.711 53.3365 206.26 53.8606 205.945C54.3893 205.626 54.9908 205.467 55.6653 205.467C56.677 205.467 57.4723 205.786 58.0511 206.424C58.6344 207.062 58.9261 207.966 58.9261 209.138V209.944H54.2161C54.2799 210.427 54.4713 210.815 54.7903 211.106C55.1139 211.398 55.5218 211.544 56.0139 211.544C56.775 211.544 57.3697 211.268 57.7981 210.717L58.7688 211.804C58.4726 212.223 58.0716 212.551 57.5657 212.788C57.0598 213.021 56.4993 213.137 55.8841 213.137ZM55.6585 207.066C55.2666 207.066 54.9475 207.199 54.7014 207.463C54.4599 207.727 54.305 208.105 54.2366 208.598H56.9846V208.44C56.9755 208.003 56.857 207.666 56.6292 207.429C56.4013 207.187 56.0777 207.066 55.6585 207.066ZM64.0598 210.956C64.0598 210.715 63.9391 210.525 63.6975 210.389C63.4606 210.247 63.0777 210.122 62.5491 210.013C60.79 209.644 59.9104 208.896 59.9104 207.771C59.9104 207.114 60.1816 206.567 60.7239 206.13C61.2708 205.688 61.984 205.467 62.8636 205.467C63.8024 205.467 64.552 205.688 65.1126 206.13C65.6777 206.572 65.9602 207.146 65.9602 207.853H63.9846C63.9846 207.57 63.8935 207.338 63.7112 207.155C63.5289 206.968 63.2441 206.875 62.8567 206.875C62.524 206.875 62.2666 206.95 62.0843 207.101C61.902 207.251 61.8108 207.442 61.8108 207.675C61.8108 207.894 61.9134 208.071 62.1184 208.208C62.3281 208.34 62.679 208.456 63.1712 208.557C63.6634 208.652 64.0781 208.762 64.4153 208.885C65.4589 209.268 65.9807 209.931 65.9807 210.874C65.9807 211.549 65.6914 212.095 65.1126 212.515C64.5338 212.929 63.7864 213.137 62.8704 213.137C62.2506 213.137 61.6992 213.027 61.2161 212.809C60.7376 212.585 60.3616 212.282 60.0882 211.899C59.8147 211.512 59.678 211.095 59.678 210.648H61.5511C61.5693 210.999 61.6992 211.268 61.9407 211.455C62.1822 211.642 62.5058 211.735 62.9114 211.735C63.2897 211.735 63.5745 211.665 63.7659 211.523C63.9619 211.378 64.0598 211.188 64.0598 210.956ZM71.2649 210.956C71.2649 210.715 71.1442 210.525 70.9026 210.389C70.6656 210.247 70.2828 210.122 69.7542 210.013C67.9951 209.644 67.1155 208.896 67.1155 207.771C67.1155 207.114 67.3867 206.567 67.929 206.13C68.4759 205.688 69.1891 205.467 70.0686 205.467C71.0074 205.467 71.7571 205.688 72.3177 206.13C72.8828 206.572 73.1653 207.146 73.1653 207.853H71.1897C71.1897 207.57 71.0986 207.338 70.9163 207.155C70.734 206.968 70.4492 206.875 70.0618 206.875C69.7291 206.875 69.4716 206.95 69.2893 207.101C69.107 207.251 69.0159 207.442 69.0159 207.675C69.0159 207.894 69.1184 208.071 69.3235 208.208C69.5332 208.34 69.8841 208.456 70.3763 208.557C70.8684 208.652 71.2832 208.762 71.6204 208.885C72.664 209.268 73.1858 209.931 73.1858 210.874C73.1858 211.549 72.8964 212.095 72.3177 212.515C71.7389 212.929 70.9915 213.137 70.0755 213.137C69.4557 213.137 68.9042 213.027 68.4212 212.809C67.9427 212.585 67.5667 212.282 67.2932 211.899C67.0198 211.512 66.8831 211.095 66.8831 210.648H68.7561C68.7744 210.999 68.9042 211.268 69.1458 211.455C69.3873 211.642 69.7109 211.735 70.1165 211.735C70.4947 211.735 70.7796 211.665 70.971 211.523C71.1669 211.378 71.2649 211.188 71.2649 210.956ZM85.9554 211.742C85.5862 212.184 85.0644 212.528 84.3899 212.774C83.7154 213.016 82.968 213.137 82.1477 213.137C81.2864 213.137 80.5299 212.95 79.8782 212.576C79.2311 212.198 78.7298 211.651 78.3743 210.936C78.0234 210.22 77.8434 209.379 77.8343 208.413V207.736C77.8343 206.743 78.0006 205.884 78.3333 205.159C78.6705 204.43 79.1536 203.874 79.7825 203.491C80.416 203.104 81.1565 202.91 82.0042 202.91C83.1845 202.91 84.1074 203.193 84.7727 203.758C85.4381 204.318 85.8323 205.136 85.9554 206.212H83.9593C83.8681 205.642 83.6653 205.225 83.3509 204.961C83.041 204.697 82.6126 204.564 82.0657 204.564C81.3684 204.564 80.8375 204.826 80.4729 205.351C80.1083 205.875 79.9238 206.654 79.9192 207.688V208.324C79.9192 209.368 80.1175 210.156 80.5139 210.689C80.9104 211.223 81.4915 211.489 82.2571 211.489C83.0273 211.489 83.5764 211.325 83.9046 210.997V209.281H82.0384V207.771H85.9554V211.742ZM91.7796 213C91.6884 212.822 91.6223 212.601 91.5813 212.337C91.1028 212.87 90.4807 213.137 89.7151 213.137C88.9905 213.137 88.3889 212.927 87.9104 212.508C87.4365 212.089 87.1995 211.56 87.1995 210.922C87.1995 210.138 87.4889 209.536 88.0677 209.117C88.651 208.698 89.4918 208.486 90.5901 208.481H91.4993V208.058C91.4993 207.716 91.4104 207.442 91.2327 207.237C91.0595 207.032 90.7838 206.93 90.4055 206.93C90.0729 206.93 89.8108 207.009 89.6194 207.169C89.4326 207.328 89.3391 207.547 89.3391 207.825H87.3636C87.3636 207.397 87.4957 207 87.76 206.636C88.0244 206.271 88.3981 205.986 88.8811 205.781C89.3642 205.572 89.9065 205.467 90.5081 205.467C91.4195 205.467 92.1419 205.697 92.6751 206.157C93.2128 206.613 93.4817 207.256 93.4817 208.085V211.291C93.4863 211.993 93.5843 212.524 93.7757 212.884V213H91.7796ZM90.1458 211.626C90.4374 211.626 90.7063 211.562 90.9524 211.435C91.1985 211.302 91.3808 211.127 91.4993 210.908V209.637H90.761C89.7721 209.637 89.2457 209.979 89.1819 210.662L89.1751 210.778C89.1751 211.024 89.2617 211.227 89.4348 211.387C89.608 211.546 89.845 211.626 90.1458 211.626ZM97.3645 203.785V205.604H98.6292V207.053H97.3645V210.744C97.3645 211.018 97.4169 211.214 97.5218 211.332C97.6266 211.451 97.8271 211.51 98.1233 211.51C98.3421 211.51 98.5358 211.494 98.7044 211.462V212.959C98.317 213.077 97.9182 213.137 97.5081 213.137C96.1227 213.137 95.4163 212.437 95.3889 211.038V207.053H94.3089V205.604H95.3889V203.785H97.3645ZM103.134 213.137C102.049 213.137 101.165 212.804 100.482 212.139C99.8027 211.473 99.4632 210.587 99.4632 209.479V209.288C99.4632 208.545 99.6067 207.882 99.8938 207.299C100.181 206.711 100.587 206.26 101.111 205.945C101.639 205.626 102.241 205.467 102.915 205.467C103.927 205.467 104.722 205.786 105.301 206.424C105.884 207.062 106.176 207.966 106.176 209.138V209.944H101.466C101.53 210.427 101.721 210.815 102.04 211.106C102.364 211.398 102.772 211.544 103.264 211.544C104.025 211.544 104.62 211.268 105.048 210.717L106.019 211.804C105.723 212.223 105.322 212.551 104.816 212.788C104.31 213.021 103.749 213.137 103.134 213.137ZM102.908 207.066C102.517 207.066 102.198 207.199 101.951 207.463C101.71 207.727 101.555 208.105 101.487 208.598H104.235V208.44C104.226 208.003 104.107 207.666 103.879 207.429C103.651 207.187 103.328 207.066 102.908 207.066ZM113.737 210.313L114.707 205.604H116.615L114.728 213H113.074L111.672 208.345L110.271 213H108.623L106.737 205.604H108.644L109.608 210.307L110.961 205.604H112.39L113.737 210.313ZM121.885 213C121.794 212.822 121.728 212.601 121.687 212.337C121.208 212.87 120.586 213.137 119.821 213.137C119.096 213.137 118.494 212.927 118.016 212.508C117.542 212.089 117.305 211.56 117.305 210.922C117.305 210.138 117.594 209.536 118.173 209.117C118.756 208.698 119.597 208.486 120.696 208.481H121.605V208.058C121.605 207.716 121.516 207.442 121.338 207.237C121.165 207.032 120.889 206.93 120.511 206.93C120.178 206.93 119.916 207.009 119.725 207.169C119.538 207.328 119.445 207.547 119.445 207.825H117.469C117.469 207.397 117.601 207 117.866 206.636C118.13 206.271 118.504 205.986 118.987 205.781C119.47 205.572 120.012 205.467 120.614 205.467C121.525 205.467 122.247 205.697 122.781 206.157C123.318 206.613 123.587 207.256 123.587 208.085V211.291C123.592 211.993 123.69 212.524 123.881 212.884V213H121.885ZM120.251 211.626C120.543 211.626 120.812 211.562 121.058 211.435C121.304 211.302 121.486 211.127 121.605 210.908V209.637H120.866C119.878 209.637 119.351 209.979 119.287 210.662L119.281 210.778C119.281 211.024 119.367 211.227 119.54 211.387C119.713 211.546 119.95 211.626 120.251 211.626ZM127.757 210.204L129.124 205.604H131.243L128.27 214.148L128.106 214.538C127.664 215.504 126.935 215.987 125.918 215.987C125.631 215.987 125.339 215.944 125.043 215.857V214.36L125.344 214.367C125.718 214.367 125.996 214.31 126.178 214.196C126.365 214.082 126.511 213.893 126.616 213.629L126.848 213.021L124.257 205.604H126.383L127.757 210.204Z" fill="black"/>
<rect x="26.9059" y="146" width="106.47" height="39" fill="#A0BFF9"/>
<path d="M68.2533 165.687H64.3158V168.353H68.9368V170H62.265V160.047H68.9232V161.708H64.3158V164.08H68.2533V165.687ZM71.8284 162.604L71.89 163.458C72.4186 162.797 73.1273 162.467 74.0159 162.467C74.7998 162.467 75.3831 162.697 75.7659 163.157C76.1488 163.618 76.3447 164.306 76.3538 165.222V170H74.3783V165.27C74.3783 164.85 74.2871 164.547 74.1048 164.36C73.9225 164.169 73.6195 164.073 73.1956 164.073C72.6396 164.073 72.2227 164.31 71.9447 164.784V170H69.9691V162.604H71.8284ZM80.6263 167.587L82.0003 162.604H84.0648L81.5697 170H79.6829L77.1878 162.604H79.2523L80.6263 167.587ZM84.5228 166.233C84.5228 165.5 84.6641 164.846 84.9466 164.271C85.2292 163.697 85.6348 163.253 86.1634 162.938C86.6966 162.624 87.3141 162.467 88.0159 162.467C89.014 162.467 89.8275 162.772 90.4564 163.383C91.0898 163.993 91.443 164.823 91.5159 165.871L91.5296 166.377C91.5296 167.512 91.2129 168.423 90.5794 169.111C89.946 169.795 89.096 170.137 88.0296 170.137C86.9632 170.137 86.111 169.795 85.473 169.111C84.8395 168.428 84.5228 167.498 84.5228 166.322V166.233ZM86.4984 166.377C86.4984 167.079 86.6305 167.617 86.8949 167.99C87.1592 168.359 87.5374 168.544 88.0296 168.544C88.5081 168.544 88.8818 168.362 89.1507 167.997C89.4196 167.628 89.554 167.04 89.554 166.233C89.554 165.545 89.4196 165.012 89.1507 164.634C88.8818 164.256 88.5036 164.066 88.0159 164.066C87.5329 164.066 87.1592 164.256 86.8949 164.634C86.6305 165.007 86.4984 165.589 86.4984 166.377ZM95.3988 167.204L96.7659 162.604H98.8851L95.9115 171.148L95.7474 171.538C95.3053 172.504 94.5762 172.987 93.5599 172.987C93.2728 172.987 92.9811 172.944 92.6849 172.857V171.36L92.9857 171.367C93.3594 171.367 93.6374 171.31 93.8197 171.196C94.0065 171.082 94.1523 170.893 94.2572 170.629L94.4896 170.021L91.8988 162.604H94.0247L95.3988 167.204Z" fill="black"/>
<path d="M34.8857 129.493V133H32.8349V123.047H36.7177C37.4651 123.047 38.1213 123.184 38.6864 123.457C39.2561 123.73 39.6936 124.12 39.9989 124.626C40.3043 125.127 40.4569 125.699 40.4569 126.342C40.4569 127.317 40.122 128.087 39.4521 128.652C38.7867 129.213 37.8638 129.493 36.6835 129.493H34.8857ZM34.8857 127.832H36.7177C37.26 127.832 37.6724 127.704 37.955 127.449C38.2421 127.194 38.3857 126.829 38.3857 126.355C38.3857 125.868 38.2421 125.474 37.955 125.173C37.6679 124.872 37.2714 124.717 36.7655 124.708H34.8857V127.832ZM41.3388 129.233C41.3388 128.5 41.4801 127.846 41.7626 127.271C42.0452 126.697 42.4508 126.253 42.9794 125.938C43.5126 125.624 44.1301 125.467 44.8319 125.467C45.83 125.467 46.6435 125.772 47.2724 126.383C47.9058 126.993 48.259 127.823 48.3319 128.871L48.3456 129.377C48.3456 130.512 48.0289 131.423 47.3954 132.111C46.762 132.795 45.912 133.137 44.8456 133.137C43.7792 133.137 42.927 132.795 42.289 132.111C41.6555 131.428 41.3388 130.498 41.3388 129.322V129.233ZM43.3144 129.377C43.3144 130.079 43.4465 130.617 43.7109 130.99C43.9752 131.359 44.3534 131.544 44.8456 131.544C45.3241 131.544 45.6978 131.362 45.9667 130.997C46.2356 130.628 46.37 130.04 46.37 129.233C46.37 128.545 46.2356 128.012 45.9667 127.634C45.6978 127.256 45.3196 127.066 44.8319 127.066C44.3489 127.066 43.9752 127.256 43.7109 127.634C43.4465 128.007 43.3144 128.589 43.3144 129.377ZM49.2548 129.247C49.2548 128.094 49.5123 127.176 50.0273 126.492C50.5468 125.809 51.2554 125.467 52.1532 125.467C52.8733 125.467 53.468 125.736 53.9374 126.273V122.5H55.9198V133H54.1357L54.04 132.214C53.5478 132.829 52.9143 133.137 52.1396 133.137C51.2691 133.137 50.5696 132.795 50.0409 132.111C49.5168 131.423 49.2548 130.468 49.2548 129.247ZM51.2304 129.391C51.2304 130.083 51.3512 130.614 51.5927 130.983C51.8342 131.353 52.1851 131.537 52.6454 131.537C53.2561 131.537 53.6868 131.28 53.9374 130.765V127.846C53.6913 127.331 53.2652 127.073 52.6591 127.073C51.7066 127.073 51.2304 127.846 51.2304 129.391Z" fill="black"/>
</g>
<path d="M210 399V379" stroke="black" stroke-width="3"/>
<path d="M210 281C210 281 210 267.058 210 258.125C210 242.028 234 258.125 234 242.028C234 233.425 234 220 234 220" stroke="black" stroke-width="3"/>
<path d="M234 97C234 97 234 93.8685 234 89C234 57 160 89 160 57C160 54.5 160 53 160 53" stroke="black" stroke-width="3"/>
<path d="M234 188V197.5" stroke="black" stroke-width="3"/>
<path d="M234 154V164.5" stroke="black" stroke-width="3"/>
<path d="M234 120V130.5" stroke="black" stroke-width="3"/>
<path d="M209.5 304.5V318.5" stroke="black" stroke-width="3"/>
<path d="M210 343V355.5" stroke="black" stroke-width="3"/>
</g>
<defs>
<filter id="filter0_d" x="4" y="94" width="164" height="135" filterUnits="userSpaceOnUse" color-interpolation-filters="sRGB">
<feFlood flood-opacity="0" result="BackgroundImageFix"/>
<feColorMatrix in="SourceAlpha" type="matrix" values="0 0 0 0 0 0 0 0 0 0 0 0 0 0 0 0 0 0 127 0"/>
<feOffset dy="4"/>
<feGaussianBlur stdDeviation="2"/>
<feColorMatrix type="matrix" values="0 0 0 0 0 0 0 0 0 0 0 0 0 0 0 0 0 0 0.25 0"/>
<feBlend mode="normal" in2="BackgroundImageFix" result="effect1_dropShadow"/>
<feBlend mode="normal" in="SourceGraphic" in2="effect1_dropShadow" result="shape"/>
</filter>
<clipPath id="clip0">
<rect width="292" height="436" fill="white"/>
</clipPath>
</defs>
</svg>
