<svg width="330" height="23" viewBox="0 0 330 23" fill="none" xmlns="http://www.w3.org/2000/svg">
<g clip-path="url(#clip0)">
<rect x="175.5" y="0.5" width="116" height="22" rx="11" fill="#BD98F9" stroke="black" stroke-dasharray="10 10"/>
<path d="M183.904 16V6.04688H186.967C187.842 6.04688 188.623 6.24512 189.312 6.6416C190.004 7.03353 190.544 7.59408 190.932 8.32324C191.319 9.04785 191.513 9.87272 191.513 10.7979V11.2559C191.513 12.181 191.321 13.0036 190.938 13.7236C190.56 14.4437 190.025 15.002 189.332 15.3984C188.639 15.7949 187.858 15.9954 186.987 16H183.904ZM185.955 7.70801V14.3525H186.946C187.748 14.3525 188.361 14.0905 188.785 13.5664C189.209 13.0423 189.425 12.2926 189.435 11.3174V10.791C189.435 9.7793 189.225 9.01367 188.806 8.49414C188.386 7.97005 187.773 7.70801 186.967 7.70801H185.955ZM196.284 16.1367C195.2 16.1367 194.315 15.804 193.632 15.1387C192.953 14.4733 192.613 13.5869 192.613 12.4795V12.2881C192.613 11.5452 192.757 10.8822 193.044 10.2988C193.331 9.71094 193.737 9.25977 194.261 8.94531C194.789 8.6263 195.391 8.4668 196.065 8.4668C197.077 8.4668 197.872 8.78581 198.451 9.42383C199.035 10.0618 199.326 10.9665 199.326 12.1377V12.9443H194.616C194.68 13.4274 194.871 13.8148 195.19 14.1064C195.514 14.3981 195.922 14.5439 196.414 14.5439C197.175 14.5439 197.77 14.2682 198.198 13.7168L199.169 14.8037C198.873 15.223 198.472 15.5511 197.966 15.7881C197.46 16.0205 196.899 16.1367 196.284 16.1367ZM196.059 10.0664C195.667 10.0664 195.348 10.1986 195.102 10.4629C194.86 10.7272 194.705 11.1055 194.637 11.5977H197.385V11.4404C197.376 11.0029 197.257 10.6657 197.029 10.4287C196.801 10.1872 196.478 10.0664 196.059 10.0664ZM204.46 13.9561C204.46 13.7145 204.339 13.5254 204.098 13.3887C203.861 13.2474 203.478 13.1221 202.949 13.0127C201.19 12.6436 200.311 11.8962 200.311 10.7705C200.311 10.1143 200.582 9.56738 201.124 9.12988C201.671 8.68783 202.384 8.4668 203.264 8.4668C204.202 8.4668 204.952 8.68783 205.513 9.12988C206.078 9.57194 206.36 10.1462 206.36 10.8525H204.385C204.385 10.57 204.294 10.3376 204.111 10.1553C203.929 9.96842 203.644 9.875 203.257 9.875C202.924 9.875 202.667 9.9502 202.484 10.1006C202.302 10.251 202.211 10.4424 202.211 10.6748C202.211 10.8936 202.313 11.0713 202.519 11.208C202.728 11.3402 203.079 11.4564 203.571 11.5566C204.063 11.6523 204.478 11.7617 204.815 11.8848C205.859 12.2676 206.381 12.9307 206.381 13.874C206.381 14.5485 206.091 15.0954 205.513 15.5146C204.934 15.9294 204.187 16.1367 203.271 16.1367C202.651 16.1367 202.099 16.0273 201.616 15.8086C201.138 15.5853 200.762 15.2822 200.488 14.8994C200.215 14.512 200.078 14.0951 200.078 13.6484H201.951C201.969 13.9993 202.099 14.2682 202.341 14.4551C202.582 14.6419 202.906 14.7354 203.312 14.7354C203.69 14.7354 203.975 14.6647 204.166 14.5234C204.362 14.3776 204.46 14.1885 204.46 13.9561ZM210.024 6.78516V8.60352H211.289V10.0527H210.024V13.7441C210.024 14.0176 210.077 14.2135 210.182 14.332C210.286 14.4505 210.487 14.5098 210.783 14.5098C211.002 14.5098 211.196 14.4938 211.364 14.4619V15.959C210.977 16.0775 210.578 16.1367 210.168 16.1367C208.783 16.1367 208.076 15.4372 208.049 14.0381V10.0527H206.969V8.60352H208.049V6.78516H210.024ZM214.475 16H212.492V8.60352H214.475V16ZM212.376 6.68945C212.376 6.39323 212.474 6.14941 212.67 5.95801C212.87 5.7666 213.142 5.6709 213.483 5.6709C213.821 5.6709 214.09 5.7666 214.29 5.95801C214.491 6.14941 214.591 6.39323 214.591 6.68945C214.591 6.99023 214.488 7.23633 214.283 7.42773C214.083 7.61914 213.816 7.71484 213.483 7.71484C213.151 7.71484 212.882 7.61914 212.677 7.42773C212.476 7.23633 212.376 6.99023 212.376 6.68945ZM217.927 8.60352L217.988 9.45801C218.517 8.7972 219.226 8.4668 220.114 8.4668C220.898 8.4668 221.481 8.69694 221.864 9.15723C222.247 9.61751 222.443 10.3057 222.452 11.2217V16H220.477V11.2695C220.477 10.8503 220.385 10.5472 220.203 10.3604C220.021 10.1689 219.718 10.0732 219.294 10.0732C218.738 10.0732 218.321 10.3102 218.043 10.7842V16H216.067V8.60352H217.927ZM228.242 16C228.151 15.8223 228.085 15.6012 228.044 15.3369C227.565 15.8701 226.943 16.1367 226.178 16.1367C225.453 16.1367 224.852 15.9271 224.373 15.5078C223.899 15.0885 223.662 14.5599 223.662 13.9219C223.662 13.138 223.951 12.5365 224.53 12.1172C225.114 11.6979 225.954 11.486 227.053 11.4814H227.962V11.0576C227.962 10.7158 227.873 10.4424 227.695 10.2373C227.522 10.0322 227.246 9.92969 226.868 9.92969C226.535 9.92969 226.273 10.0094 226.082 10.1689C225.895 10.3285 225.802 10.5472 225.802 10.8252H223.826C223.826 10.3968 223.958 10.0003 224.223 9.63574C224.487 9.27116 224.861 8.98633 225.344 8.78125C225.827 8.57161 226.369 8.4668 226.971 8.4668C227.882 8.4668 228.604 8.69694 229.138 9.15723C229.675 9.61296 229.944 10.2555 229.944 11.085V14.291C229.949 14.9928 230.047 15.5238 230.238 15.8838V16H228.242ZM226.608 14.626C226.9 14.626 227.169 14.5622 227.415 14.4346C227.661 14.3024 227.843 14.127 227.962 13.9082V12.6367H227.224C226.235 12.6367 225.708 12.9785 225.645 13.6621L225.638 13.7783C225.638 14.0244 225.724 14.2272 225.897 14.3867C226.071 14.5462 226.308 14.626 226.608 14.626ZM233.827 6.78516V8.60352H235.092V10.0527H233.827V13.7441C233.827 14.0176 233.88 14.2135 233.984 14.332C234.089 14.4505 234.29 14.5098 234.586 14.5098C234.805 14.5098 234.998 14.4938 235.167 14.4619V15.959C234.78 16.0775 234.381 16.1367 233.971 16.1367C232.585 16.1367 231.879 15.4372 231.852 14.0381V10.0527H230.771V8.60352H231.852V6.78516H233.827ZM238.277 16H236.295V8.60352H238.277V16ZM236.179 6.68945C236.179 6.39323 236.277 6.14941 236.473 5.95801C236.673 5.7666 236.944 5.6709 237.286 5.6709C237.623 5.6709 237.892 5.7666 238.093 5.95801C238.293 6.14941 238.394 6.39323 238.394 6.68945C238.394 6.99023 238.291 7.23633 238.086 7.42773C237.885 7.61914 237.619 7.71484 237.286 7.71484C236.953 7.71484 236.685 7.61914 236.479 7.42773C236.279 7.23633 236.179 6.99023 236.179 6.68945ZM239.604 12.2334C239.604 11.4997 239.745 10.8457 240.027 10.2715C240.31 9.69727 240.715 9.25293 241.244 8.93848C241.777 8.62402 242.395 8.4668 243.097 8.4668C244.095 8.4668 244.908 8.77214 245.537 9.38281C246.171 9.99349 246.524 10.8229 246.597 11.8711L246.61 12.377C246.61 13.5117 246.294 14.4232 245.66 15.1113C245.027 15.7949 244.177 16.1367 243.11 16.1367C242.044 16.1367 241.192 15.7949 240.554 15.1113C239.92 14.4277 239.604 13.498 239.604 12.3223V12.2334ZM241.579 12.377C241.579 13.0788 241.711 13.6165 241.976 13.9902C242.24 14.3594 242.618 14.5439 243.11 14.5439C243.589 14.5439 243.963 14.3617 244.231 13.9971C244.5 13.6279 244.635 13.04 244.635 12.2334C244.635 11.5452 244.5 11.012 244.231 10.6338C243.963 10.2555 243.584 10.0664 243.097 10.0664C242.614 10.0664 242.24 10.2555 241.976 10.6338C241.711 11.0075 241.579 11.5885 241.579 12.377ZM249.646 8.60352L249.707 9.45801C250.236 8.7972 250.944 8.4668 251.833 8.4668C252.617 8.4668 253.2 8.69694 253.583 9.15723C253.966 9.61751 254.162 10.3057 254.171 11.2217V16H252.195V11.2695C252.195 10.8503 252.104 10.5472 251.922 10.3604C251.74 10.1689 251.437 10.0732 251.013 10.0732C250.457 10.0732 250.04 10.3102 249.762 10.7842V16H247.786V8.60352H249.646ZM259.489 12.3564H257.855V16H255.805V6.04688H259.503C260.679 6.04688 261.586 6.30892 262.224 6.83301C262.862 7.3571 263.181 8.09766 263.181 9.05469C263.181 9.73372 263.033 10.3011 262.736 10.7568C262.445 11.208 262 11.568 261.403 11.8369L263.557 15.9043V16H261.355L259.489 12.3564ZM257.855 10.6953H259.51C260.025 10.6953 260.424 10.5654 260.706 10.3057C260.989 10.0413 261.13 9.67904 261.13 9.21875C261.13 8.74935 260.995 8.38021 260.727 8.11133C260.462 7.84245 260.054 7.70801 259.503 7.70801H257.855V10.6953ZM269.046 15.248C268.558 15.8405 267.884 16.1367 267.022 16.1367C266.229 16.1367 265.623 15.9089 265.204 15.4531C264.789 14.9974 264.577 14.3298 264.568 13.4502V8.60352H266.544V13.3818C266.544 14.152 266.895 14.5371 267.597 14.5371C268.267 14.5371 268.727 14.3047 268.978 13.8398V8.60352H270.96V16H269.101L269.046 15.248ZM274.535 16H272.553V5.5H274.535V16ZM279.573 16.1367C278.489 16.1367 277.604 15.804 276.921 15.1387C276.242 14.4733 275.902 13.5869 275.902 12.4795V12.2881C275.902 11.5452 276.046 10.8822 276.333 10.2988C276.62 9.71094 277.026 9.25977 277.55 8.94531C278.078 8.6263 278.68 8.4668 279.354 8.4668C280.366 8.4668 281.161 8.78581 281.74 9.42383C282.324 10.0618 282.615 10.9665 282.615 12.1377V12.9443H277.905C277.969 13.4274 278.16 13.8148 278.479 14.1064C278.803 14.3981 279.211 14.5439 279.703 14.5439C280.464 14.5439 281.059 14.2682 281.487 13.7168L282.458 14.8037C282.162 15.223 281.761 15.5511 281.255 15.7881C280.749 16.0205 280.188 16.1367 279.573 16.1367ZM279.348 10.0664C278.956 10.0664 278.637 10.1986 278.391 10.4629C278.149 10.7272 277.994 11.1055 277.926 11.5977H280.674V11.4404C280.665 11.0029 280.546 10.6657 280.318 10.4287C280.09 10.1872 279.767 10.0664 279.348 10.0664Z" fill="black"/>
</g>
<defs>
<clipPath id="clip0">
<rect width="330" height="23" fill="white"/>
</clipPath>
</defs>
</svg>
