<svg width="291" height="23" viewBox="0 0 291 23" fill="none" xmlns="http://www.w3.org/2000/svg">
<g clip-path="url(#clip0)">
<rect x="174" width="117" height="23" rx="11.5" fill="#A6E48C"/>
<path d="M198.142 13.3887C198.142 13.0013 198.005 12.7051 197.731 12.5C197.458 12.2904 196.966 12.0716 196.255 11.8438C195.544 11.6113 194.981 11.3835 194.566 11.1602C193.436 10.5495 192.871 9.72689 192.871 8.69238C192.871 8.15462 193.021 7.67611 193.322 7.25684C193.628 6.83301 194.063 6.5026 194.628 6.26562C195.198 6.02865 195.836 5.91016 196.542 5.91016C197.253 5.91016 197.886 6.04004 198.442 6.2998C198.998 6.55501 199.429 6.91732 199.734 7.38672C200.044 7.85612 200.199 8.38932 200.199 8.98633H198.148C198.148 8.5306 198.005 8.17741 197.718 7.92676C197.431 7.67155 197.027 7.54395 196.508 7.54395C196.007 7.54395 195.617 7.65104 195.339 7.86523C195.061 8.07487 194.922 8.35286 194.922 8.69922C194.922 9.02279 195.084 9.29395 195.407 9.5127C195.735 9.73145 196.216 9.93652 196.85 10.1279C198.016 10.4788 198.866 10.9141 199.399 11.4336C199.933 11.9531 200.199 12.6003 200.199 13.375C200.199 14.2363 199.873 14.9131 199.222 15.4053C198.57 15.8929 197.693 16.1367 196.59 16.1367C195.824 16.1367 195.127 15.9977 194.498 15.7197C193.869 15.4372 193.388 15.0521 193.056 14.5645C192.728 14.0768 192.563 13.5117 192.563 12.8691H194.621C194.621 13.9674 195.277 14.5166 196.59 14.5166C197.077 14.5166 197.458 14.4186 197.731 14.2227C198.005 14.0221 198.142 13.7441 198.142 13.3887ZM204.868 16.1367C203.784 16.1367 202.899 15.804 202.216 15.1387C201.537 14.4733 201.197 13.5869 201.197 12.4795V12.2881C201.197 11.5452 201.341 10.8822 201.628 10.2988C201.915 9.71094 202.321 9.25977 202.845 8.94531C203.373 8.6263 203.975 8.4668 204.649 8.4668C205.661 8.4668 206.456 8.78581 207.035 9.42383C207.618 10.0618 207.91 10.9665 207.91 12.1377V12.9443H203.2C203.264 13.4274 203.455 13.8148 203.774 14.1064C204.098 14.3981 204.506 14.5439 204.998 14.5439C205.759 14.5439 206.354 14.2682 206.782 13.7168L207.753 14.8037C207.457 15.223 207.056 15.5511 206.55 15.7881C206.044 16.0205 205.483 16.1367 204.868 16.1367ZM204.643 10.0664C204.251 10.0664 203.932 10.1986 203.686 10.4629C203.444 10.7272 203.289 11.1055 203.221 11.5977H205.969V11.4404C205.96 11.0029 205.841 10.6657 205.613 10.4287C205.385 10.1872 205.062 10.0664 204.643 10.0664ZM213.194 10.4561C212.925 10.4196 212.688 10.4014 212.483 10.4014C211.736 10.4014 211.246 10.6543 211.014 11.1602V16H209.038V8.60352H210.904L210.959 9.48535C211.355 8.80632 211.905 8.4668 212.606 8.4668C212.825 8.4668 213.03 8.49642 213.222 8.55566L213.194 10.4561ZM217.043 13.5869L218.417 8.60352H220.481L217.986 16H216.1L213.604 8.60352H215.669L217.043 13.5869ZM223.441 16H221.459V8.60352H223.441V16ZM221.343 6.68945C221.343 6.39323 221.441 6.14941 221.637 5.95801C221.837 5.7666 222.108 5.6709 222.45 5.6709C222.787 5.6709 223.056 5.7666 223.257 5.95801C223.457 6.14941 223.558 6.39323 223.558 6.68945C223.558 6.99023 223.455 7.23633 223.25 7.42773C223.049 7.61914 222.783 7.71484 222.45 7.71484C222.118 7.71484 221.849 7.61914 221.644 7.42773C221.443 7.23633 221.343 6.99023 221.343 6.68945ZM228.151 14.5439C228.516 14.5439 228.812 14.4437 229.04 14.2432C229.268 14.0426 229.386 13.776 229.396 13.4434H231.248C231.243 13.9447 231.107 14.4049 230.838 14.8242C230.569 15.2389 230.2 15.5625 229.73 15.7949C229.266 16.0228 228.751 16.1367 228.186 16.1367C227.128 16.1367 226.294 15.8018 225.684 15.1318C225.073 14.4574 224.768 13.5277 224.768 12.3428V12.2129C224.768 11.0736 225.071 10.1644 225.677 9.48535C226.283 8.80632 227.115 8.4668 228.172 8.4668C229.097 8.4668 229.838 8.73112 230.394 9.25977C230.954 9.78385 231.239 10.4834 231.248 11.3584H229.396C229.386 10.9756 229.268 10.6657 229.04 10.4287C228.812 10.1872 228.511 10.0664 228.138 10.0664C227.677 10.0664 227.329 10.235 227.092 10.5723C226.859 10.9049 226.743 11.4473 226.743 12.1992V12.4043C226.743 13.1654 226.859 13.7122 227.092 14.0449C227.324 14.3776 227.677 14.5439 228.151 14.5439ZM235.78 16.1367C234.696 16.1367 233.812 15.804 233.128 15.1387C232.449 14.4733 232.109 13.5869 232.109 12.4795V12.2881C232.109 11.5452 232.253 10.8822 232.54 10.2988C232.827 9.71094 233.233 9.25977 233.757 8.94531C234.285 8.6263 234.887 8.4668 235.562 8.4668C236.573 8.4668 237.368 8.78581 237.947 9.42383C238.531 10.0618 238.822 10.9665 238.822 12.1377V12.9443H234.112C234.176 13.4274 234.368 13.8148 234.687 14.1064C235.01 14.3981 235.418 14.5439 235.91 14.5439C236.671 14.5439 237.266 14.2682 237.694 13.7168L238.665 14.8037C238.369 15.223 237.968 15.5511 237.462 15.7881C236.956 16.0205 236.396 16.1367 235.78 16.1367ZM235.555 10.0664C235.163 10.0664 234.844 10.1986 234.598 10.4629C234.356 10.7272 234.201 11.1055 234.133 11.5977H236.881V11.4404C236.872 11.0029 236.753 10.6657 236.525 10.4287C236.298 10.1872 235.974 10.0664 235.555 10.0664ZM246.068 11.6865H242.131V14.3525H246.752V16H240.08V6.04688H246.738V7.70801H242.131V10.0801H246.068V11.6865ZM249.644 8.60352L249.705 9.45801C250.234 8.7972 250.942 8.4668 251.831 8.4668C252.615 8.4668 253.198 8.69694 253.581 9.15723C253.964 9.61751 254.16 10.3057 254.169 11.2217V16H252.193V11.2695C252.193 10.8503 252.102 10.5472 251.92 10.3604C251.738 10.1689 251.435 10.0732 251.011 10.0732C250.455 10.0732 250.038 10.3102 249.76 10.7842V16H247.784V8.60352H249.644ZM258.038 6.78516V8.60352H259.303V10.0527H258.038V13.7441C258.038 14.0176 258.09 14.2135 258.195 14.332C258.3 14.4505 258.501 14.5098 258.797 14.5098C259.016 14.5098 259.209 14.4938 259.378 14.4619V15.959C258.991 16.0775 258.592 16.1367 258.182 16.1367C256.796 16.1367 256.09 15.4372 256.062 14.0381V10.0527H254.982V8.60352H256.062V6.78516H258.038ZM264.56 10.4561C264.291 10.4196 264.054 10.4014 263.849 10.4014C263.101 10.4014 262.611 10.6543 262.379 11.1602V16H260.403V8.60352H262.27L262.324 9.48535C262.721 8.80632 263.27 8.4668 263.972 8.4668C264.19 8.4668 264.396 8.49642 264.587 8.55566L264.56 10.4561ZM268.401 13.2041L269.769 8.60352H271.888L268.914 17.1484L268.75 17.5381C268.308 18.5042 267.579 18.9873 266.562 18.9873C266.275 18.9873 265.984 18.944 265.688 18.8574V17.3604L265.988 17.3672C266.362 17.3672 266.64 17.3102 266.822 17.1963C267.009 17.0824 267.155 16.8932 267.26 16.6289L267.492 16.0205L264.901 8.60352H267.027L268.401 13.2041Z" fill="black"/>
</g>
<defs>
<clipPath id="clip0">
<rect width="291" height="23" fill="white"/>
</clipPath>
</defs>
</svg>
