<?xml version="1.0" encoding="UTF-8"?>
<svg width="50px" height="42px" viewBox="0 0 50 42" version="1.1" xmlns="http://www.w3.org/2000/svg" xmlns:xlink="http://www.w3.org/1999/xlink">
    <!-- Generator: Sketch 49.2 (51160) - http://www.bohemiancoding.com/sketch -->
    <title>architectureAIMobile</title>
    <desc>Created with Sketch.</desc>
    <defs>
        <rect id="path-1" x="8.03322259" y="5.45260916" width="1" height="1" rx="0.5"></rect>
        <rect id="path-2" x="2.7641196" y="2.30031949" width="1.03654485" height="1.02236422" rx="0.511182109"></rect>
        <rect id="path-3" x="1.64119601" y="16.6134185" width="1.12292359" height="1.10756124" rx="0.553780618"></rect>
        <rect id="path-4" x="7.25581395" y="18.3173589" width="1.29568106" height="1.27795527" rx="0.638977636"></rect>
        <rect id="path-5" x="3.80066445" y="22.8328009" width="1.20930233" height="1.19275825" rx="0.596379127"></rect>
        <rect id="path-6" x="8.03322259" y="5.45260916" width="1" height="1" rx="0.5"></rect>
        <rect id="path-7" x="2.7641196" y="2.30031949" width="1.03654485" height="1.02236422" rx="0.511182109"></rect>
        <rect id="path-8" x="1.64119601" y="16.6134185" width="1.12292359" height="1.10756124" rx="0.553780618"></rect>
        <rect id="path-9" x="7.25581395" y="18.3173589" width="1.29568106" height="1.27795527" rx="0.638977636"></rect>
        <rect id="path-10" x="3.80066445" y="22.8328009" width="1.20930233" height="1.19275825" rx="0.596379127"></rect>
    </defs>
    <g id="Architecture" stroke="none" stroke-width="1" fill="none" fill-rule="evenodd">
        <g id="mobile" transform="translate(-79.000000, -13.000000)">
            <g id="architectureAIMobile" transform="translate(80.000000, 9.000000)">
                <g id="HEXAGOn" transform="translate(0.000000, 7.777778)" stroke="#979797">
                    <polygon id="Path-25" points="46.8981757 12.8203042 34.8668334 5.34168565 11.7539237 5.86162166 0.254867257 13.959334 1.24702616 29.6718141 13.3202376 37.1898217 36.4163309 36.6979718 47.9150442 28.3755704"></polygon>
                    <polygon id="Path-25" fill="#D8D8D8" points="46.6433085 7.47861853 34.6119661 0 11.4990565 0.519936016 0 8.61764832 0.992158904 24.3301284 13.0653703 31.848136 36.1614637 31.3562862 47.660177 23.0338848"></polygon>
                    <polygon id="Path-26" fill="#D8D8D8" points="0.971349558 24.2906266 1.21443584 29.6826555 13.3962942 37.1662485 36.3665376 36.708191 47.9872235 28.34475 47.6497235 22.8932697 36.1939712 31.3034106 13.0234513 31.8301933"></polygon>
                </g>
                <g id="HEMISPHERE1" transform="translate(29.581395, 26.457815) rotate(54.000000) translate(-29.581395, -26.457815) translate(22.325581, 13.124482)">
                    <path d="M0.0306205876,24.6513079 L0.0306205876,1.8368111 C1.00700273,1.06089299 1.88349948,0.539810055 2.66011083,0.2735623 C3.43672218,0.00731454567 4.23361665,-0.0452957223 5.05079423,0.115731496 C5.86776433,0.566512193 6.41204598,0.943048624 6.68363917,1.24534079 C6.95523236,1.54763295 7.23295463,1.91607123 7.51680596,2.35065562 C8.90808849,2.57368766 10.0360733,3.22900027 10.9007605,4.31659345 C11.7654476,5.40418663 12.0689542,6.70843317 11.8112801,8.22933307 C12.5651258,9.04857783 13.0991162,9.76667887 13.4132514,10.3836362 C13.7273866,11.0005935 14.0467236,11.9817571 14.3712625,13.327127 C14.5496998,14.4617336 14.3536605,15.6225595 13.7831447,16.8096046 C13.2126289,17.9966498 12.5950153,18.8254349 11.9303039,19.2959598 C11.9303039,20.2045616 11.7539192,21.0566427 11.4011498,21.8522031 C11.0483804,22.6477636 10.6397685,23.2877951 10.1753141,23.7722977 C9.71781536,24.2055549 9.19689984,24.5329755 8.61256748,24.7545594 C8.02823513,24.9761433 7.43033231,25.0729883 6.81885901,25.0450945 C5.90878928,25.9746073 4.88073609,26.4982694 3.73469944,26.6160809 C2.58866279,26.7338924 1.35396984,26.0789681 0.0306205876,24.6513079 Z M5.00541165,0.517172524 L0.885635123,1.95928182 L0.885635123,24.8921725 L4.10062811,25.6925586 L6.86415724,23.9934438 L9.52190615,23.3389909 L13.9243537,13.3366613 L11.2623027,8.25678914 L10.4180012,4.51810437 C8.2973357,3.358127 7.21495839,2.75578519 7.17086924,2.71107894 C7.12678009,2.66637269 6.40496089,1.93507055 5.00541165,0.517172524 Z" id="Combined-Shape" stroke="#06799E" fill="#06799E"></path>
                    <polyline id="Path-17" stroke="#06799E" stroke-width="2" points="7.15627596 2.70292532 3.27252258 2.82290003 4.83358207 0.599124734"></polyline>
                    <polyline id="Path-18" stroke="#06799E" stroke-width="2" points="2.02526085 1.58246805 3.29934723 2.8506889 0.696259863 7.52928647 8.51682543 5.91636715 10.3575192 4.55587726"></polyline>
                    <polyline id="Path-19" stroke="#06799E" stroke-width="2" points="3.3087949 2.84736089 8.49194093 5.90704872 11.1677416 8.22084665 3.51478795 7.00795394 4.73665905 11.496023 0.670953592 7.62064031"></polyline>
                    <polyline id="Path-20" stroke="#06799E" stroke-width="2" points="4.73556245 11.5125799 9.49761213 10.2989384 11.1672355 8.25013312"></polyline>
                    <polyline id="Path-21" stroke="#06799E" stroke-width="2" points="9.48352497 10.3082568 10.3444443 13.6494941 13.8555207 13.3671958 7.88433737 19.1061801 10.3444443 13.8076577 4.41729392 15.3942026 4.70317042 11.5717352 0.834179039 13.3671958 4.25373105 15.3942026 7.72786026 18.9654054 2.14360984 17.1384119 0.834179039 13.6494941"></polyline>
                    <polyline id="Path-22" stroke="#06799E" stroke-width="2" points="2.15246704 17.1869176 0.691367317 19.7319289 4.30071636 23.4517272 7.79517494 19.1126697 9.56020297 23.1281616"></polyline>
                    <polyline id="Path-23" stroke="#06799E" stroke-width="2" points="6.8454306 23.9733926 4.28781016 23.5115482 4.28781016 25.5541966"></polyline>
                    <path d="M1.64077424,24.9913472 C1.64077424,24.9913472 2.51145055,24.4939208 4.25280316,23.4990682" id="Path-24" stroke="#06799E" stroke-width="2"></path>
                    <ellipse id="Oval-3" stroke="#06799E" fill="#06799E" cx="4.40531561" cy="15.4206603" rx="1" ry="1"></ellipse>
                    <ellipse id="Oval-4" stroke="#06799E" fill="#06799E" cx="4.8372093" cy="11.5015974" rx="1" ry="1"></ellipse>
                    <ellipse id="Oval-6" stroke="#06799E" fill="#06799E" cx="10.4086379" cy="13.6741214" rx="1" ry="1"></ellipse>
                    <ellipse id="Oval-7" stroke="#06799E" fill="#06799E" cx="9.50166113" cy="10.1810437" rx="1" ry="1"></ellipse>
                    <ellipse id="Oval-8" stroke="#06799E" fill="#06799E" cx="3.54152824" cy="6.98615548" rx="1" ry="1"></ellipse>
                    <g id="Rectangle">
                        <use fill="#06799E" fill-rule="evenodd" xlink:href="#path-1"></use>
                        <rect stroke="#06799E" stroke-width="1" x="8.53322259" y="5.95260916" width="1" height="1" rx="0.5"></rect>
                    </g>
                    <g id="Rectangle-2">
                        <use fill="#06799E" fill-rule="evenodd" xlink:href="#path-2"></use>
                        <rect stroke="#06799E" stroke-width="1" x="3.2641196" y="2.80031949" width="1" height="1" rx="0.5"></rect>
                    </g>
                    <g id="Rectangle-3">
                        <use fill="#06799E" fill-rule="evenodd" xlink:href="#path-3"></use>
                        <rect stroke="#06799E" stroke-width="1" x="2.14119601" y="17.1134185" width="1" height="1" rx="0.5"></rect>
                    </g>
                    <g id="Rectangle-4">
                        <use fill="#06799E" fill-rule="evenodd" xlink:href="#path-4"></use>
                        <rect stroke="#06799E" stroke-width="1" x="7.75581395" y="18.8173589" width="1" height="1" rx="0.5"></rect>
                    </g>
                    <g id="Rectangle-5">
                        <use fill="#06799E" fill-rule="evenodd" xlink:href="#path-5"></use>
                        <rect stroke="#06799E" stroke-width="1" x="4.30066445" y="23.3328009" width="1" height="1" rx="0.5"></rect>
                    </g>
                </g>
                <g id="HEMISPHERE1" transform="translate(18.418605, 13.680037) scale(-1, 1) rotate(-54.000000) translate(-18.418605, -13.680037) translate(11.162791, 0.346704)">
                    <path d="M0.0306205876,24.6513079 L0.0306205876,1.8368111 C1.00700273,1.06089299 1.88349948,0.539810055 2.66011083,0.2735623 C3.43672218,0.00731454567 4.23361665,-0.0452957223 5.05079423,0.115731496 C5.86776433,0.566512193 6.41204598,0.943048624 6.68363917,1.24534079 C6.95523236,1.54763295 7.23295463,1.91607123 7.51680596,2.35065562 C8.90808849,2.57368766 10.0360733,3.22900027 10.9007605,4.31659345 C11.7654476,5.40418663 12.0689542,6.70843317 11.8112801,8.22933307 C12.5651258,9.04857783 13.0991162,9.76667887 13.4132514,10.3836362 C13.7273866,11.0005935 14.0467236,11.9817571 14.3712625,13.327127 C14.5496998,14.4617336 14.3536605,15.6225595 13.7831447,16.8096046 C13.2126289,17.9966498 12.5950153,18.8254349 11.9303039,19.2959598 C11.9303039,20.2045616 11.7539192,21.0566427 11.4011498,21.8522031 C11.0483804,22.6477636 10.6397685,23.2877951 10.1753141,23.7722977 C9.71781536,24.2055549 9.19689984,24.5329755 8.61256748,24.7545594 C8.02823513,24.9761433 7.43033231,25.0729883 6.81885901,25.0450945 C5.90878928,25.9746073 4.88073609,26.4982694 3.73469944,26.6160809 C2.58866279,26.7338924 1.35396984,26.0789681 0.0306205876,24.6513079 Z M5.00541165,0.517172524 L0.885635123,1.95928182 L0.885635123,24.8921725 L4.10062811,25.6925586 L6.86415724,23.9934438 L9.52190615,23.3389909 L13.9243537,13.3366613 L11.2623027,8.25678914 L10.4180012,4.51810437 C8.2973357,3.358127 7.21495839,2.75578519 7.17086924,2.71107894 C7.12678009,2.66637269 6.40496089,1.93507055 5.00541165,0.517172524 Z" id="Combined-Shape" stroke="#06799E" fill="#06799E"></path>
                    <polyline id="Path-17" stroke="#06799E" stroke-width="2" points="7.15627596 2.70292532 3.27252258 2.82290003 4.83358207 0.599124734"></polyline>
                    <polyline id="Path-18" stroke="#06799E" stroke-width="2" points="2.02526085 1.58246805 3.29934723 2.8506889 0.696259863 7.52928647 8.51682543 5.91636715 10.3575192 4.55587726"></polyline>
                    <polyline id="Path-19" stroke="#06799E" stroke-width="2" points="3.3087949 2.84736089 8.49194093 5.90704872 11.1677416 8.22084665 3.51478795 7.00795394 4.73665905 11.496023 0.670953592 7.62064031"></polyline>
                    <polyline id="Path-20" stroke="#06799E" stroke-width="2" points="4.73556245 11.5125799 9.49761213 10.2989384 11.1672355 8.25013312"></polyline>
                    <polyline id="Path-21" stroke="#06799E" stroke-width="2" points="9.48352497 10.3082568 10.3444443 13.6494941 13.8555207 13.3671958 7.88433737 19.1061801 10.3444443 13.8076577 4.41729392 15.3942026 4.70317042 11.5717352 0.834179039 13.3671958 4.25373105 15.3942026 7.72786026 18.9654054 2.14360984 17.1384119 0.834179039 13.6494941"></polyline>
                    <polyline id="Path-22" stroke="#06799E" stroke-width="2" points="2.15246704 17.1869176 0.691367317 19.7319289 4.30071636 23.4517272 7.79517494 19.1126697 9.56020297 23.1281616"></polyline>
                    <polyline id="Path-23" stroke="#06799E" stroke-width="2" points="6.8454306 23.9733926 4.28781016 23.5115482 4.28781016 25.5541966"></polyline>
                    <path d="M1.64077424,24.9913472 C1.64077424,24.9913472 2.51145055,24.4939208 4.25280316,23.4990682" id="Path-24" stroke="#06799E" stroke-width="2"></path>
                    <ellipse id="Oval-3" stroke="#06799E" fill="#06799E" cx="4.40531561" cy="15.4206603" rx="1" ry="1"></ellipse>
                    <ellipse id="Oval-4" stroke="#06799E" fill="#06799E" cx="4.8372093" cy="11.5015974" rx="1" ry="1"></ellipse>
                    <ellipse id="Oval-6" stroke="#06799E" fill="#06799E" cx="10.4086379" cy="13.6741214" rx="1" ry="1"></ellipse>
                    <ellipse id="Oval-7" stroke="#06799E" fill="#06799E" cx="9.50166113" cy="10.1810437" rx="1" ry="1"></ellipse>
                    <ellipse id="Oval-8" stroke="#06799E" fill="#06799E" cx="3.54152824" cy="6.98615548" rx="1" ry="1"></ellipse>
                    <g id="Rectangle">
                        <use fill="#06799E" fill-rule="evenodd" xlink:href="#path-6"></use>
                        <rect stroke="#06799E" stroke-width="1" x="8.53322259" y="5.95260916" width="1" height="1" rx="0.5"></rect>
                    </g>
                    <g id="Rectangle-2">
                        <use fill="#06799E" fill-rule="evenodd" xlink:href="#path-7"></use>
                        <rect stroke="#06799E" stroke-width="1" x="3.2641196" y="2.80031949" width="1" height="1" rx="0.5"></rect>
                    </g>
                    <g id="Rectangle-3">
                        <use fill="#06799E" fill-rule="evenodd" xlink:href="#path-8"></use>
                        <rect stroke="#06799E" stroke-width="1" x="2.14119601" y="17.1134185" width="1" height="1" rx="0.5"></rect>
                    </g>
                    <g id="Rectangle-4">
                        <use fill="#06799E" fill-rule="evenodd" xlink:href="#path-9"></use>
                        <rect stroke="#06799E" stroke-width="1" x="7.75581395" y="18.8173589" width="1" height="1" rx="0.5"></rect>
                    </g>
                    <g id="Rectangle-5">
                        <use fill="#06799E" fill-rule="evenodd" xlink:href="#path-10"></use>
                        <rect stroke="#06799E" stroke-width="1" x="4.30066445" y="23.3328009" width="1" height="1" rx="0.5"></rect>
                    </g>
                </g>
            </g>
        </g>
    </g>
</svg>