<?xml version="1.0" encoding="UTF-8"?>
<svg width="132px" height="89px" viewBox="0 0 132 89" version="1.1" xmlns="http://www.w3.org/2000/svg" xmlns:xlink="http://www.w3.org/1999/xlink">
    <!-- Generator: Sketch 49.2 (51160) - http://www.bohemiancoding.com/sketch -->
    <title>architectureDataSourcesMobile</title>
    <desc>Created with Sketch.</desc>
    <defs>
        <polygon id="path-1" points="0 24.2413372 92.1124589 81.5718272 125.750668 57.3762489 33.9782072 0"></polygon>
        <filter x="-5.6%" y="-6.1%" width="111.1%" height="117.2%" filterUnits="objectBoundingBox" id="filter-2">
            <feOffset dx="0" dy="2" in="SourceAlpha" result="shadowOffsetOuter1"></feOffset>
            <feGaussianBlur stdDeviation="2" in="shadowOffsetOuter1" result="shadowBlurOuter1"></feGaussianBlur>
            <feColorMatrix values="0 0 0 0 0   0 0 0 0 0   0 0 0 0 0  0 0 0 0.5 0" type="matrix" in="shadowBlurOuter1"></feColorMatrix>
        </filter>
    </defs>
    <g id="Architecture" stroke="none" stroke-width="1" fill="none" fill-rule="evenodd">
        <g id="mobile" transform="translate(-171.000000, 2.000000)">
            <g id="architectureDataSourcesMobile" transform="translate(174.000000, 0.000000)">
                <g id="Path-4">
                    <use fill="black" fill-opacity="1" filter="url(#filter-2)" xlink:href="#path-1"></use>
                    <use fill="#D8D8D8" fill-rule="evenodd" xlink:href="#path-1"></use>
                </g>
                <ellipse id="Oval" stroke="#4A4A4A" fill="#4A4A4A" cx="62.7236842" cy="34.3061224" rx="1.93421053" ry="1.95238095"></ellipse>
                <ellipse id="Oval" stroke="#4A4A4A" fill="#4A4A4A" cx="69.9078947" cy="38.2108844" rx="1.93421053" ry="1.95238095"></ellipse>
                <g id="NUTTAB" transform="translate(23.210526, 1.673469)" fill="#7ED321" stroke="#B8E986">
                    <path d="M2.52188951,25.9424015 C7.37925697,28.9573327 7.86255563,29.19532 12.9426519,32.0726169 C16.3293827,33.9908148 19.6488124,33.8425409 22.9009409,31.6277952 L37.3338695,21.8470795 C40.4429301,19.7768625 40.2665078,17.701198 36.8046028,15.620086 C31.6117454,12.4984181 31.5568885,12.7478962 26.440729,9.84812834 C23.029956,7.91494979 19.8213405,8.00262036 16.8148824,10.11114 L2.52188951,19.7192383 C-0.716355457,21.8580596 -0.716355457,23.9324474 2.52188951,25.9424015 Z" id="Path"></path>
                    <path d="M2.52188951,24.8964831 C7.37925697,27.9114143 7.86255563,28.1494016 12.9426519,31.0266985 C16.3293827,32.9448965 19.6488124,32.7966226 22.9009409,30.5818768 L37.3338695,20.8011612 C40.4429301,18.7309442 40.2665078,16.6552797 36.8046028,14.5741677 C31.6117454,11.4524997 31.5568885,11.7019778 26.440729,8.80220997 C23.029956,6.86903143 19.8213405,6.95670199 16.8148824,9.06522167 L2.52188951,18.6733199 C-0.716355457,20.8121413 -0.716355457,22.886529 2.52188951,24.8964831 Z" id="Path"></path>
                    <path d="M2.52188951,23.5890852 C7.37925697,26.6040164 7.86255563,26.8420036 12.9426519,29.7193006 C16.3293827,31.6374985 19.6488124,31.4892246 22.9009409,29.2744788 L37.3338695,19.4937632 C40.4429301,17.4235462 40.2665078,15.3478817 36.8046028,13.2667697 C31.6117454,10.1451017 31.5568885,10.3945798 26.440729,7.49481201 C23.029956,5.56163347 19.8213405,5.64930403 16.8148824,7.75782371 L2.52188951,17.365922 C-0.716355457,19.5047433 -0.716355457,21.579131 2.52188951,23.5890852 Z" id="Path"></path>
                    <path d="M2.52188951,22.2816872 C7.37925697,25.2966184 7.86255563,25.5346057 12.9426519,28.4119026 C16.3293827,30.3301005 19.6488124,30.1818266 22.9009409,27.9670809 L37.3338695,18.1863652 C40.4429301,16.1161482 40.2665078,14.0404837 36.8046028,11.9593718 C31.6117454,8.83770378 31.5568885,9.08718187 26.440729,6.18741405 C23.029956,4.25423551 19.8213405,4.34190607 16.8148824,6.45042575 L2.52188951,16.058524 C-0.716355457,18.1973453 -0.716355457,20.2717331 2.52188951,22.2816872 Z" id="Path"></path>
                    <path d="M2.52188951,20.7128097 C7.37925697,23.7277409 7.86255563,23.9657281 12.9426519,26.8430251 C16.3293827,28.761223 19.6488124,28.6129491 22.9009409,26.3982033 L37.3338695,16.6174877 C40.4429301,14.5472707 40.2665078,12.4716062 36.8046028,10.3904942 C31.6117454,7.26882623 31.5568885,7.51830432 26.440729,4.6185365 C23.029956,2.68535796 19.8213405,2.77302852 16.8148824,4.8815482 L2.52188951,14.4896464 C-0.716355457,16.6284678 -0.716355457,18.7028555 2.52188951,20.7128097 Z" id="Path"></path>
                    <path d="M2.52188951,19.1439321 C7.37925697,22.1588633 7.86255563,22.3968506 12.9426519,25.2741475 C16.3293827,27.1923454 19.6488124,27.0440715 22.9009409,24.8293258 L37.3338695,15.0486101 C40.4429301,12.9783931 40.2665078,10.9027286 36.8046028,8.82161666 C31.6117454,5.69994868 31.5568885,5.94942677 26.440729,3.04965895 C23.029956,1.11648041 19.8213405,1.20415097 16.8148824,3.31267065 L2.52188951,12.9207689 C-0.716355457,15.0595902 -0.716355457,17.133978 2.52188951,19.1439321 Z" id="Path"></path>
                    <path d="M2.52188951,17.5750546 C7.37925697,20.5899858 7.86255563,20.827973 12.9426519,23.7052699 C16.3293827,25.6234679 19.6488124,25.475194 22.9009409,23.2604482 L37.3338695,13.4797326 C40.4429301,11.4095156 40.2665078,9.33385109 36.8046028,7.25273911 C31.6117454,4.13107113 31.5568885,4.38054922 26.440729,1.4807814 C23.029956,-0.452397145 19.8213405,-0.364726579 16.8148824,1.7437931 L2.52188951,11.3518913 C-0.716355457,13.4907127 -0.716355457,15.5651004 2.52188951,17.5750546 Z" id="Path"></path>
                </g>
                <g id="NUTTAB" transform="translate(74.605263, 34.585034)" fill="#4A90E2" stroke="#50E3C2">
                    <path d="M2.52188951,25.9424015 C7.37925697,28.9573327 7.86255563,29.19532 12.9426519,32.0726169 C16.3293827,33.9908148 19.6488124,33.8425409 22.9009409,31.6277952 L37.3338695,21.8470795 C40.4429301,19.7768625 40.2665078,17.701198 36.8046028,15.620086 C31.6117454,12.4984181 31.5568885,12.7478962 26.440729,9.84812834 C23.029956,7.91494979 19.8213405,8.00262036 16.8148824,10.11114 L2.52188951,19.7192383 C-0.716355457,21.8580596 -0.716355457,23.9324474 2.52188951,25.9424015 Z" id="Path"></path>
                    <path d="M2.52188951,24.8964831 C7.37925697,27.9114143 7.86255563,28.1494016 12.9426519,31.0266985 C16.3293827,32.9448965 19.6488124,32.7966226 22.9009409,30.5818768 L37.3338695,20.8011612 C40.4429301,18.7309442 40.2665078,16.6552797 36.8046028,14.5741677 C31.6117454,11.4524997 31.5568885,11.7019778 26.440729,8.80220997 C23.029956,6.86903143 19.8213405,6.95670199 16.8148824,9.06522167 L2.52188951,18.6733199 C-0.716355457,20.8121413 -0.716355457,22.886529 2.52188951,24.8964831 Z" id="Path"></path>
                    <path d="M2.52188951,23.5890852 C7.37925697,26.6040164 7.86255563,26.8420036 12.9426519,29.7193006 C16.3293827,31.6374985 19.6488124,31.4892246 22.9009409,29.2744788 L37.3338695,19.4937632 C40.4429301,17.4235462 40.2665078,15.3478817 36.8046028,13.2667697 C31.6117454,10.1451017 31.5568885,10.3945798 26.440729,7.49481201 C23.029956,5.56163347 19.8213405,5.64930403 16.8148824,7.75782371 L2.52188951,17.365922 C-0.716355457,19.5047433 -0.716355457,21.579131 2.52188951,23.5890852 Z" id="Path"></path>
                    <path d="M2.52188951,22.2816872 C7.37925697,25.2966184 7.86255563,25.5346057 12.9426519,28.4119026 C16.3293827,30.3301005 19.6488124,30.1818266 22.9009409,27.9670809 L37.3338695,18.1863652 C40.4429301,16.1161482 40.2665078,14.0404837 36.8046028,11.9593718 C31.6117454,8.83770378 31.5568885,9.08718187 26.440729,6.18741405 C23.029956,4.25423551 19.8213405,4.34190607 16.8148824,6.45042575 L2.52188951,16.058524 C-0.716355457,18.1973453 -0.716355457,20.2717331 2.52188951,22.2816872 Z" id="Path"></path>
                    <path d="M2.52188951,20.7128097 C7.37925697,23.7277409 7.86255563,23.9657281 12.9426519,26.8430251 C16.3293827,28.761223 19.6488124,28.6129491 22.9009409,26.3982033 L37.3338695,16.6174877 C40.4429301,14.5472707 40.2665078,12.4716062 36.8046028,10.3904942 C31.6117454,7.26882623 31.5568885,7.51830432 26.440729,4.6185365 C23.029956,2.68535796 19.8213405,2.77302852 16.8148824,4.8815482 L2.52188951,14.4896464 C-0.716355457,16.6284678 -0.716355457,18.7028555 2.52188951,20.7128097 Z" id="Path"></path>
                    <path d="M2.52188951,19.1439321 C7.37925697,22.1588633 7.86255563,22.3968506 12.9426519,25.2741475 C16.3293827,27.1923454 19.6488124,27.0440715 22.9009409,24.8293258 L37.3338695,15.0486101 C40.4429301,12.9783931 40.2665078,10.9027286 36.8046028,8.82161666 C31.6117454,5.69994868 31.5568885,5.94942677 26.440729,3.04965895 C23.029956,1.11648041 19.8213405,1.20415097 16.8148824,3.31267065 L2.52188951,12.9207689 C-0.716355457,15.0595902 -0.716355457,17.133978 2.52188951,19.1439321 Z" id="Path"></path>
                    <path d="M2.52188951,17.5750546 C7.37925697,20.5899858 7.86255563,20.827973 12.9426519,23.7052699 C16.3293827,25.6234679 19.6488124,25.475194 22.9009409,23.2604482 L37.3338695,13.4797326 C40.4429301,11.4095156 40.2665078,9.33385109 36.8046028,7.25273911 C31.6117454,4.13107113 31.5568885,4.38054922 26.440729,1.4807814 C23.029956,-0.452397145 19.8213405,-0.364726579 16.8148824,1.7437931 L2.52188951,11.3518913 C-0.716355457,13.4907127 -0.716355457,15.5651004 2.52188951,17.5750546 Z" id="Path"></path>
                </g>
            </g>
        </g>
    </g>
</svg>