<svg width="306" height="411" viewBox="0 0 306 411" fill="none" xmlns="http://www.w3.org/2000/svg">
<g clip-path="url(#clip0)">
<rect x="1.03766" width="215.833" height="409" fill="#C4C4C4"/>
<rect x="39.431" y="256" width="124.75" height="140.06" rx="17" fill="#C4C4C4"/>
<rect x="54.2335" y="264.196" width="100.707" height="118.282" rx="13.5" fill="white" stroke="black"/>
<rect x="47.3768" y="270.622" width="101.707" height="119.282" rx="14" fill="white"/>
<rect x="51.0551" y="267.274" width="100.707" height="118.282" rx="13.5" fill="white" stroke="black"/>
<rect x="47.8768" y="271.122" width="100.707" height="118.282" rx="13.5" fill="white" stroke="black"/>
<path d="M73.8798 401.905C73.8798 401.518 73.7431 401.222 73.4696 401.016C73.1962 400.807 72.704 400.588 71.9931 400.36C71.2821 400.128 70.7193 399.9 70.3046 399.677C69.1744 399.066 68.6093 398.243 68.6093 397.209C68.6093 396.671 68.7597 396.193 69.0604 395.773C69.3658 395.349 69.801 395.019 70.3661 394.782C70.9358 394.545 71.5738 394.427 72.2802 394.427C72.9911 394.427 73.6246 394.556 74.1806 394.816C74.7366 395.071 75.1672 395.434 75.4726 395.903C75.7825 396.373 75.9374 396.906 75.9374 397.503H73.8866C73.8866 397.047 73.7431 396.694 73.456 396.443C73.1688 396.188 72.7655 396.06 72.246 396.06C71.7447 396.06 71.355 396.167 71.077 396.382C70.7991 396.591 70.6601 396.869 70.6601 397.216C70.6601 397.539 70.8218 397.81 71.1454 398.029C71.4735 398.248 71.9543 398.453 72.5878 398.644C73.7545 398.995 74.6044 399.43 75.1376 399.95C75.6708 400.47 75.9374 401.117 75.9374 401.891C75.9374 402.753 75.6116 403.43 74.9599 403.922C74.3082 404.409 73.4309 404.653 72.328 404.653C71.5624 404.653 70.8651 404.514 70.2362 404.236C69.6073 403.954 69.1265 403.569 68.7938 403.081C68.4657 402.593 68.3017 402.028 68.3017 401.386H70.3593C70.3593 402.484 71.0155 403.033 72.328 403.033C72.8157 403.033 73.1962 402.935 73.4696 402.739C73.7431 402.539 73.8798 402.261 73.8798 401.905ZM80.6063 404.653C79.5217 404.653 78.6376 404.32 77.954 403.655C77.275 402.99 76.9354 402.103 76.9354 400.996V400.805C76.9354 400.062 77.079 399.399 77.3661 398.815C77.6532 398.227 78.0588 397.776 78.5829 397.462C79.1116 397.143 79.7131 396.983 80.3876 396.983C81.3993 396.983 82.1946 397.302 82.7733 397.94C83.3567 398.578 83.6483 399.483 83.6483 400.654V401.461H78.9384C79.0022 401.944 79.1936 402.331 79.5126 402.623C79.8362 402.915 80.244 403.06 80.7362 403.06C81.4973 403.06 82.092 402.785 82.5204 402.233L83.4911 403.32C83.1949 403.739 82.7938 404.068 82.288 404.305C81.7821 404.537 81.2216 404.653 80.6063 404.653ZM80.3808 398.583C79.9888 398.583 79.6698 398.715 79.4237 398.979C79.1822 399.244 79.0272 399.622 78.9589 400.114H81.7069V399.957C81.6978 399.519 81.5793 399.182 81.3515 398.945C81.1236 398.704 80.8 398.583 80.3808 398.583ZM88.9325 398.972C88.6636 398.936 88.4267 398.918 88.2216 398.918C87.4742 398.918 86.9843 399.171 86.7519 399.677V404.516H84.7763V397.12H86.6425L86.6972 398.002C87.0937 397.323 87.6428 396.983 88.3446 396.983C88.5634 396.983 88.7685 397.013 88.9599 397.072L88.9325 398.972ZM92.7812 402.103L94.1552 397.12H96.2196L93.7245 404.516H91.8378L89.3427 397.12H91.4071L92.7812 402.103ZM99.1796 404.516H97.1972V397.12H99.1796V404.516ZM97.081 395.206C97.081 394.91 97.1789 394.666 97.3749 394.474C97.5754 394.283 97.8466 394.187 98.1884 394.187C98.5256 394.187 98.7945 394.283 98.995 394.474C99.1955 394.666 99.2958 394.91 99.2958 395.206C99.2958 395.507 99.1933 395.753 98.9882 395.944C98.7877 396.136 98.5211 396.231 98.1884 396.231C97.8557 396.231 97.5868 396.136 97.3817 395.944C97.1812 395.753 97.081 395.507 97.081 395.206ZM103.89 403.06C104.254 403.06 104.55 402.96 104.778 402.76C105.006 402.559 105.125 402.292 105.134 401.96H106.986C106.982 402.461 106.845 402.921 106.576 403.341C106.307 403.755 105.938 404.079 105.469 404.311C105.004 404.539 104.489 404.653 103.924 404.653C102.866 404.653 102.032 404.318 101.422 403.648C100.811 402.974 100.506 402.044 100.506 400.859V400.729C100.506 399.59 100.809 398.681 101.415 398.002C102.021 397.323 102.853 396.983 103.91 396.983C104.835 396.983 105.576 397.248 106.132 397.776C106.692 398.3 106.977 399 106.986 399.875H105.134C105.125 399.492 105.006 399.182 104.778 398.945C104.55 398.704 104.25 398.583 103.876 398.583C103.416 398.583 103.067 398.751 102.83 399.089C102.598 399.421 102.481 399.964 102.481 400.716V400.921C102.481 401.682 102.598 402.229 102.83 402.561C103.062 402.894 103.416 403.06 103.89 403.06ZM111.518 404.653C110.434 404.653 109.55 404.32 108.866 403.655C108.187 402.99 107.848 402.103 107.848 400.996V400.805C107.848 400.062 107.991 399.399 108.278 398.815C108.565 398.227 108.971 397.776 109.495 397.462C110.024 397.143 110.625 396.983 111.3 396.983C112.311 396.983 113.107 397.302 113.685 397.94C114.269 398.578 114.56 399.483 114.56 400.654V401.461H109.85C109.914 401.944 110.106 402.331 110.425 402.623C110.748 402.915 111.156 403.06 111.648 403.06C112.409 403.06 113.004 402.785 113.433 402.233L114.403 403.32C114.107 403.739 113.706 404.068 113.2 404.305C112.694 404.537 112.134 404.653 111.518 404.653ZM111.293 398.583C110.901 398.583 110.582 398.715 110.336 398.979C110.094 399.244 109.939 399.622 109.871 400.114H112.619V399.957C112.61 399.519 112.491 399.182 112.264 398.945C112.036 398.704 111.712 398.583 111.293 398.583ZM124.924 402.466H121.328L120.644 404.516H118.464L122.169 394.563H124.069L127.795 404.516H125.614L124.924 402.466ZM121.882 400.805H124.37L123.119 397.079L121.882 400.805Z" fill="black"/>
<rect x="54.5281" y="296.017" width="85.0205" height="30.0128" fill="#A0BFF9"/>
<path d="M85.1506 311.704H81.2131V314.37H85.8342V316.017H79.1624V306.064H85.8206V307.725H81.2131V310.097H85.1506V311.704ZM88.7258 308.621L88.7874 309.475C89.316 308.814 90.0247 308.484 90.9133 308.484C91.6972 308.484 92.2805 308.714 92.6633 309.174C93.0461 309.635 93.2421 310.323 93.2512 311.239V316.017H91.2756V311.287C91.2756 310.867 91.1845 310.564 91.0022 310.377C90.8199 310.186 90.5168 310.09 90.093 310.09C89.537 310.09 89.12 310.327 88.842 310.801V316.017H86.8665V308.621H88.7258ZM97.5237 313.604L98.8977 308.621H100.962L98.467 316.017H96.5803L94.0852 308.621H96.1497L97.5237 313.604ZM101.42 312.25C101.42 311.517 101.561 310.863 101.844 310.289C102.127 309.714 102.532 309.27 103.061 308.956C103.594 308.641 104.212 308.484 104.913 308.484C105.911 308.484 106.725 308.789 107.354 309.4C107.987 310.011 108.34 310.84 108.413 311.888L108.427 312.394C108.427 313.529 108.11 314.44 107.477 315.128C106.843 315.812 105.993 316.154 104.927 316.154C103.861 316.154 103.008 315.812 102.37 315.128C101.737 314.445 101.42 313.515 101.42 312.339V312.25ZM103.396 312.394C103.396 313.096 103.528 313.634 103.792 314.007C104.057 314.376 104.435 314.561 104.927 314.561C105.406 314.561 105.779 314.379 106.048 314.014C106.317 313.645 106.451 313.057 106.451 312.25C106.451 311.562 106.317 311.029 106.048 310.651C105.779 310.273 105.401 310.083 104.913 310.083C104.43 310.083 104.057 310.273 103.792 310.651C103.528 311.025 103.396 311.606 103.396 312.394ZM112.296 313.221L113.663 308.621H115.782L112.809 317.166L112.645 317.555C112.203 318.521 111.474 319.004 110.457 319.004C110.17 319.004 109.878 318.961 109.582 318.875V317.377L109.883 317.384C110.257 317.384 110.535 317.327 110.717 317.213C110.904 317.099 111.05 316.91 111.155 316.646L111.387 316.038L108.796 308.621H110.922L112.296 313.221Z" fill="black"/>
<rect x="54.5281" y="336.804" width="85.0205" height="42.3258" fill="#A6E48C"/>
<path d="M87.1804 359.99C87.1804 359.749 87.0597 359.56 86.8181 359.423C86.5812 359.282 86.1984 359.156 85.6697 359.047C83.9106 358.678 83.031 357.93 83.031 356.805C83.031 356.148 83.3022 355.602 83.8445 355.164C84.3914 354.722 85.1046 354.501 85.9842 354.501C86.923 354.501 87.6726 354.722 88.2332 355.164C88.7983 355.606 89.0808 356.18 89.0808 356.887H87.1053C87.1053 356.604 87.0141 356.372 86.8318 356.189C86.6495 356.003 86.3647 355.909 85.9773 355.909C85.6446 355.909 85.3872 355.984 85.2049 356.135C85.0226 356.285 84.9314 356.477 84.9314 356.709C84.9314 356.928 85.034 357.105 85.239 357.242C85.4487 357.374 85.7996 357.491 86.2918 357.591C86.784 357.687 87.1987 357.796 87.5359 357.919C88.5795 358.302 89.1013 358.965 89.1013 359.908C89.1013 360.583 88.812 361.13 88.2332 361.549C87.6544 361.964 86.907 362.171 85.991 362.171C85.3712 362.171 84.8198 362.062 84.3367 361.843C83.8582 361.619 83.4822 361.316 83.2088 360.934C82.9353 360.546 82.7986 360.129 82.7986 359.683H84.6717C84.6899 360.034 84.8198 360.302 85.0613 360.489C85.3028 360.676 85.6264 360.77 86.032 360.77C86.4103 360.77 86.6951 360.699 86.8865 360.558C87.0825 360.412 87.1804 360.223 87.1804 359.99ZM93.1482 359.621L94.5222 354.638H96.5867L94.0916 362.034H92.2049L89.7097 354.638H91.7742L93.1482 359.621ZM100.442 360.578C100.807 360.578 101.103 360.478 101.331 360.277C101.559 360.077 101.677 359.81 101.686 359.478H103.539C103.534 359.979 103.398 360.439 103.129 360.858C102.86 361.273 102.491 361.597 102.021 361.829C101.556 362.057 101.041 362.171 100.476 362.171C99.4191 362.171 98.5851 361.836 97.9744 361.166C97.3637 360.492 97.0584 359.562 97.0584 358.377V358.247C97.0584 357.108 97.3614 356.199 97.9676 355.52C98.5737 354.84 99.4054 354.501 100.463 354.501C101.388 354.501 102.128 354.765 102.684 355.294C103.245 355.818 103.53 356.518 103.539 357.393H101.686C101.677 357.01 101.559 356.7 101.331 356.463C101.103 356.221 100.802 356.101 100.428 356.101C99.9682 356.101 99.6196 356.269 99.3826 356.606C99.1502 356.939 99.034 357.481 99.034 358.233V358.438C99.034 359.2 99.1502 359.746 99.3826 360.079C99.615 360.412 99.9682 360.578 100.442 360.578ZM110.416 359.983H106.82L106.137 362.034H103.956L107.661 352.081H109.561L113.287 362.034H111.106L110.416 359.983ZM107.374 358.322H109.862L108.611 354.597L107.374 358.322Z" fill="black"/>
<path d="M58.9997 283.423V286.93H56.9489V276.977H60.8317C61.5791 276.977 62.2354 277.114 62.8005 277.387C63.3701 277.661 63.8076 278.05 64.113 278.556C64.4183 279.058 64.571 279.63 64.571 280.272C64.571 281.247 64.236 282.018 63.5661 282.583C62.9007 283.143 61.9779 283.423 60.7976 283.423H58.9997ZM58.9997 281.762H60.8317C61.374 281.762 61.7865 281.635 62.069 281.38C62.3561 281.124 62.4997 280.76 62.4997 280.286C62.4997 279.798 62.3561 279.404 62.069 279.103C61.7819 278.802 61.3854 278.647 60.8796 278.638H58.9997V281.762ZM65.4528 283.164C65.4528 282.43 65.5941 281.776 65.8767 281.202C66.1592 280.628 66.5648 280.183 67.0935 279.869C67.6267 279.554 68.2442 279.397 68.946 279.397C69.944 279.397 70.7575 279.702 71.3864 280.313C72.0199 280.924 72.3731 281.753 72.446 282.801L72.4597 283.307C72.4597 284.442 72.1429 285.353 71.5095 286.042C70.876 286.725 70.0261 287.067 68.9597 287.067C67.8933 287.067 67.041 286.725 66.403 286.042C65.7696 285.358 65.4528 284.428 65.4528 283.253V283.164ZM67.4284 283.307C67.4284 284.009 67.5606 284.547 67.8249 284.921C68.0892 285.29 68.4675 285.474 68.9597 285.474C69.4382 285.474 69.8119 285.292 70.0808 284.927C70.3496 284.558 70.4841 283.97 70.4841 283.164C70.4841 282.476 70.3496 281.942 70.0808 281.564C69.8119 281.186 69.4336 280.997 68.946 280.997C68.4629 280.997 68.0892 281.186 67.8249 281.564C67.5606 281.938 67.4284 282.519 67.4284 283.307ZM73.3688 283.177C73.3688 282.024 73.6263 281.106 74.1413 280.423C74.6608 279.739 75.3695 279.397 76.2673 279.397C76.9873 279.397 77.5821 279.666 78.0515 280.204V276.43H80.0339V286.93H78.2497L78.154 286.144C77.6618 286.759 77.0283 287.067 76.2536 287.067C75.3832 287.067 74.6836 286.725 74.155 286.042C73.6309 285.353 73.3688 284.399 73.3688 283.177ZM75.3444 283.321C75.3444 284.014 75.4652 284.545 75.7067 284.914C75.9483 285.283 76.2992 285.467 76.7595 285.467C77.3701 285.467 77.8008 285.21 78.0515 284.695V281.776C77.8054 281.261 77.3793 281.004 76.7731 281.004C75.8207 281.004 75.3444 281.776 75.3444 283.321Z" fill="black"/>
<g filter="url(#filter0_d)">
<rect x="24.9038" y="35" width="161.874" height="127" rx="17" fill="#E9E9E9"/>
</g>
<rect x="44.0816" y="45.5" width="130.782" height="92" rx="13.5" fill="white" stroke="black"/>
<rect x="35.2803" y="54" width="131.782" height="84" rx="14" fill="white"/>
<rect x="39.931" y="49.5" width="130.782" height="88" rx="13.5" fill="white" stroke="black"/>
<rect x="35.7803" y="54.5" width="130.782" height="83" rx="13.5" fill="white" stroke="black"/>
<path d="M51.6366 154H49.5859V144.047H51.6366V154ZM55.2323 146.604L55.2939 147.458C55.8225 146.797 56.5312 146.467 57.4198 146.467C58.2037 146.467 58.787 146.697 59.1698 147.157C59.5527 147.618 59.7486 148.306 59.7577 149.222V154H57.7822V149.27C57.7822 148.85 57.691 148.547 57.5087 148.36C57.3264 148.169 57.0234 148.073 56.5995 148.073C56.0435 148.073 55.6266 148.31 55.3486 148.784V154H53.373V146.604H55.2323ZM60.9745 150.247C60.9745 149.112 61.2434 148.199 61.7812 147.506C62.3235 146.813 63.0527 146.467 63.9687 146.467C64.7799 146.467 65.4111 146.745 65.8622 147.301L65.9443 146.604H67.7353V153.754C67.7353 154.401 67.5872 154.964 67.2909 155.442C66.9993 155.921 66.5868 156.285 66.0536 156.536C65.5204 156.787 64.8961 156.912 64.1806 156.912C63.6383 156.912 63.1096 156.803 62.5947 156.584C62.0797 156.37 61.69 156.092 61.4257 155.75L62.3007 154.547C62.7929 155.098 63.3899 155.374 64.0917 155.374C64.6158 155.374 65.0237 155.233 65.3154 154.95C65.607 154.672 65.7529 154.276 65.7529 153.761V153.364C65.2971 153.879 64.6978 154.137 63.955 154.137C63.0663 154.137 62.3463 153.79 61.7948 153.098C61.248 152.4 60.9745 151.478 60.9745 150.329V150.247ZM62.9501 150.391C62.9501 151.061 63.0846 151.587 63.3534 151.97C63.6223 152.348 63.9915 152.537 64.4609 152.537C65.0624 152.537 65.4931 152.312 65.7529 151.86V148.75C65.4885 148.299 65.0624 148.073 64.4745 148.073C64.0006 148.073 63.6269 148.267 63.3534 148.654C63.0846 149.042 62.9501 149.62 62.9501 150.391ZM73.4159 148.456C73.1471 148.42 72.9101 148.401 72.705 148.401C71.9576 148.401 71.4677 148.654 71.2353 149.16V154H69.2597V146.604H71.1259L71.1806 147.485C71.5771 146.806 72.1262 146.467 72.828 146.467C73.0468 146.467 73.2519 146.496 73.4433 146.556L73.4159 148.456ZM77.6405 154.137C76.5559 154.137 75.6718 153.804 74.9882 153.139C74.3092 152.473 73.9697 151.587 73.9697 150.479V150.288C73.9697 149.545 74.1132 148.882 74.4003 148.299C74.6874 147.711 75.093 147.26 75.6171 146.945C76.1458 146.626 76.7473 146.467 77.4218 146.467C78.4335 146.467 79.2288 146.786 79.8075 147.424C80.3909 148.062 80.6825 148.966 80.6825 150.138V150.944H75.9726C76.0364 151.427 76.2278 151.815 76.5468 152.106C76.8704 152.398 77.2782 152.544 77.7704 152.544C78.5315 152.544 79.1262 152.268 79.5546 151.717L80.5253 152.804C80.2291 153.223 79.828 153.551 79.3222 153.788C78.8163 154.021 78.2558 154.137 77.6405 154.137ZM77.415 148.066C77.023 148.066 76.704 148.199 76.4579 148.463C76.2164 148.727 76.0614 149.105 75.9931 149.598H78.7411V149.44C78.732 149.003 78.6135 148.666 78.3857 148.429C78.1578 148.187 77.8342 148.066 77.415 148.066ZM85.8163 151.956C85.8163 151.715 85.6956 151.525 85.454 151.389C85.217 151.247 84.8342 151.122 84.3056 151.013C82.5465 150.644 81.6669 149.896 81.6669 148.771C81.6669 148.114 81.9381 147.567 82.4804 147.13C83.0273 146.688 83.7405 146.467 84.62 146.467C85.5588 146.467 86.3085 146.688 86.8691 147.13C87.4342 147.572 87.7167 148.146 87.7167 148.853H85.7411C85.7411 148.57 85.65 148.338 85.4677 148.155C85.2854 147.968 85.0006 147.875 84.6132 147.875C84.2805 147.875 84.023 147.95 83.8407 148.101C83.6585 148.251 83.5673 148.442 83.5673 148.675C83.5673 148.894 83.6698 149.071 83.8749 149.208C84.0846 149.34 84.4355 149.456 84.9277 149.557C85.4198 149.652 85.8346 149.762 86.1718 149.885C87.2154 150.268 87.7372 150.931 87.7372 151.874C87.7372 152.549 87.4478 153.095 86.8691 153.515C86.2903 153.929 85.5429 154.137 84.6269 154.137C84.0071 154.137 83.4557 154.027 82.9726 153.809C82.4941 153.585 82.1181 153.282 81.8447 152.899C81.5712 152.512 81.4345 152.095 81.4345 151.648H83.3075C83.3258 151.999 83.4557 152.268 83.6972 152.455C83.9387 152.642 84.2623 152.735 84.6679 152.735C85.0461 152.735 85.331 152.665 85.5224 152.523C85.7183 152.378 85.8163 152.188 85.8163 151.956ZM93.0214 151.956C93.0214 151.715 92.9006 151.525 92.6591 151.389C92.4221 151.247 92.0393 151.122 91.5107 151.013C89.7516 150.644 88.872 149.896 88.872 148.771C88.872 148.114 89.1432 147.567 89.6855 147.13C90.2323 146.688 90.9456 146.467 91.8251 146.467C92.7639 146.467 93.5136 146.688 94.0741 147.13C94.6392 147.572 94.9218 148.146 94.9218 148.853H92.9462C92.9462 148.57 92.8551 148.338 92.6728 148.155C92.4905 147.968 92.2057 147.875 91.8183 147.875C91.4856 147.875 91.2281 147.95 91.0458 148.101C90.8635 148.251 90.7724 148.442 90.7724 148.675C90.7724 148.894 90.8749 149.071 91.08 149.208C91.2896 149.34 91.6405 149.456 92.1327 149.557C92.6249 149.652 93.0396 149.762 93.3769 149.885C94.4205 150.268 94.9423 150.931 94.9423 151.874C94.9423 152.549 94.6529 153.095 94.0741 153.515C93.4954 153.929 92.748 154.137 91.832 154.137C91.2122 154.137 90.6607 154.027 90.1777 153.809C89.6991 153.585 89.3232 153.282 89.0497 152.899C88.7763 152.512 88.6396 152.095 88.6396 151.648H90.5126C90.5308 151.999 90.6607 152.268 90.9023 152.455C91.1438 152.642 91.4674 152.735 91.873 152.735C92.2512 152.735 92.5361 152.665 92.7275 152.523C92.9234 152.378 93.0214 152.188 93.0214 151.956ZM107.712 152.742C107.343 153.184 106.821 153.528 106.146 153.774C105.472 154.016 104.725 154.137 103.904 154.137C103.043 154.137 102.286 153.95 101.635 153.576C100.988 153.198 100.486 152.651 100.131 151.936C99.7799 151.22 99.5999 150.379 99.5907 149.413V148.736C99.5907 147.743 99.7571 146.884 100.09 146.159C100.427 145.43 100.91 144.874 101.539 144.491C102.172 144.104 102.913 143.91 103.761 143.91C104.941 143.91 105.864 144.193 106.529 144.758C107.195 145.318 107.589 146.136 107.712 147.212H105.716C105.625 146.642 105.422 146.225 105.107 145.961C104.797 145.697 104.369 145.564 103.822 145.564C103.125 145.564 102.594 145.826 102.229 146.351C101.865 146.875 101.68 147.654 101.676 148.688V149.324C101.676 150.368 101.874 151.156 102.27 151.689C102.667 152.223 103.248 152.489 104.014 152.489C104.784 152.489 105.333 152.325 105.661 151.997V150.281H103.795V148.771H107.712V152.742ZM113.536 154C113.445 153.822 113.379 153.601 113.338 153.337C112.859 153.87 112.237 154.137 111.472 154.137C110.747 154.137 110.145 153.927 109.667 153.508C109.193 153.089 108.956 152.56 108.956 151.922C108.956 151.138 109.245 150.536 109.824 150.117C110.407 149.698 111.248 149.486 112.347 149.481H113.256V149.058C113.256 148.716 113.167 148.442 112.989 148.237C112.816 148.032 112.54 147.93 112.162 147.93C111.829 147.93 111.567 148.009 111.376 148.169C111.189 148.328 111.096 148.547 111.096 148.825H109.12C109.12 148.397 109.252 148 109.517 147.636C109.781 147.271 110.155 146.986 110.638 146.781C111.121 146.572 111.663 146.467 112.265 146.467C113.176 146.467 113.898 146.697 114.432 147.157C114.969 147.613 115.238 148.256 115.238 149.085V152.291C115.243 152.993 115.341 153.524 115.532 153.884V154H113.536ZM111.902 152.626C112.194 152.626 112.463 152.562 112.709 152.435C112.955 152.302 113.137 152.127 113.256 151.908V150.637H112.518C111.529 150.637 111.002 150.979 110.938 151.662L110.932 151.778C110.932 152.024 111.018 152.227 111.191 152.387C111.365 152.546 111.601 152.626 111.902 152.626ZM119.121 144.785V146.604H120.386V148.053H119.121V151.744C119.121 152.018 119.173 152.214 119.278 152.332C119.383 152.451 119.584 152.51 119.88 152.51C120.099 152.51 120.292 152.494 120.461 152.462V153.959C120.073 154.077 119.675 154.137 119.265 154.137C117.879 154.137 117.173 153.437 117.145 152.038V148.053H116.065V146.604H117.145V144.785H119.121ZM124.891 154.137C123.806 154.137 122.922 153.804 122.238 153.139C121.559 152.473 121.22 151.587 121.22 150.479V150.288C121.22 149.545 121.363 148.882 121.65 148.299C121.937 147.711 122.343 147.26 122.867 146.945C123.396 146.626 123.997 146.467 124.672 146.467C125.684 146.467 126.479 146.786 127.058 147.424C127.641 148.062 127.933 148.966 127.933 150.138V150.944H123.223C123.286 151.427 123.478 151.815 123.797 152.106C124.12 152.398 124.528 152.544 125.02 152.544C125.781 152.544 126.376 152.268 126.805 151.717L127.775 152.804C127.479 153.223 127.078 153.551 126.572 153.788C126.066 154.021 125.506 154.137 124.891 154.137ZM124.665 148.066C124.273 148.066 123.954 148.199 123.708 148.463C123.466 148.727 123.311 149.105 123.243 149.598H125.991V149.44C125.982 149.003 125.864 148.666 125.636 148.429C125.408 148.187 125.084 148.066 124.665 148.066ZM135.493 151.313L136.464 146.604H138.371L136.484 154H134.83L133.429 149.345L132.027 154H130.38L128.493 146.604H130.4L131.364 151.307L132.718 146.604H134.146L135.493 151.313ZM143.642 154C143.55 153.822 143.484 153.601 143.443 153.337C142.965 153.87 142.343 154.137 141.577 154.137C140.852 154.137 140.251 153.927 139.772 153.508C139.298 153.089 139.061 152.56 139.061 151.922C139.061 151.138 139.351 150.536 139.93 150.117C140.513 149.698 141.354 149.486 142.452 149.481H143.361V149.058C143.361 148.716 143.272 148.442 143.095 148.237C142.921 148.032 142.646 147.93 142.268 147.93C141.935 147.93 141.673 148.009 141.481 148.169C141.295 148.328 141.201 148.547 141.201 148.825H139.226C139.226 148.397 139.358 148 139.622 147.636C139.886 147.271 140.26 146.986 140.743 146.781C141.226 146.572 141.768 146.467 142.37 146.467C143.281 146.467 144.004 146.697 144.537 147.157C145.075 147.613 145.344 148.256 145.344 149.085V152.291C145.348 152.993 145.446 153.524 145.638 153.884V154H143.642ZM142.008 152.626C142.299 152.626 142.568 152.562 142.814 152.435C143.06 152.302 143.243 152.127 143.361 151.908V150.637H142.623C141.634 150.637 141.108 150.979 141.044 151.662L141.037 151.778C141.037 152.024 141.124 152.227 141.297 152.387C141.47 152.546 141.707 152.626 142.008 152.626ZM149.514 151.204L150.881 146.604H153L150.026 155.148L149.862 155.538C149.42 156.504 148.691 156.987 147.675 156.987C147.388 156.987 147.096 156.944 146.8 156.857V155.36L147.101 155.367C147.474 155.367 147.752 155.31 147.934 155.196C148.121 155.082 148.267 154.893 148.372 154.629L148.604 154.021L146.014 146.604H148.14L149.514 151.204Z" fill="black"/>
<rect x="44.5216" y="87" width="110.479" height="39" fill="#A0BFF9"/>
<path d="M87.8736 106.687H83.9361V109.353H88.5572V111H81.8854V101.047H88.5436V102.708H83.9361V105.08H87.8736V106.687ZM91.4488 103.604L91.5104 104.458C92.039 103.797 92.7477 103.467 93.6363 103.467C94.4202 103.467 95.0035 103.697 95.3863 104.157C95.7691 104.618 95.9651 105.306 95.9742 106.222V111H93.9986V106.27C93.9986 105.85 93.9075 105.547 93.7252 105.36C93.5429 105.169 93.2399 105.073 92.816 105.073C92.26 105.073 91.843 105.31 91.565 105.784V111H89.5895V103.604H91.4488ZM100.247 108.587L101.621 103.604H103.685L101.19 111H99.3033L96.8082 103.604H98.8727L100.247 108.587ZM104.143 107.233C104.143 106.5 104.284 105.846 104.567 105.271C104.85 104.697 105.255 104.253 105.784 103.938C106.317 103.624 106.935 103.467 107.636 103.467C108.634 103.467 109.448 103.772 110.077 104.383C110.71 104.993 111.063 105.823 111.136 106.871L111.15 107.377C111.15 108.512 110.833 109.423 110.2 110.111C109.566 110.795 108.716 111.137 107.65 111.137C106.584 111.137 105.731 110.795 105.093 110.111C104.46 109.428 104.143 108.498 104.143 107.322V107.233ZM106.119 107.377C106.119 108.079 106.251 108.617 106.515 108.99C106.78 109.359 107.158 109.544 107.65 109.544C108.129 109.544 108.502 109.362 108.771 108.997C109.04 108.628 109.174 108.04 109.174 107.233C109.174 106.545 109.04 106.012 108.771 105.634C108.502 105.256 108.124 105.066 107.636 105.066C107.153 105.066 106.78 105.256 106.515 105.634C106.251 106.007 106.119 106.589 106.119 107.377ZM115.019 108.204L116.386 103.604H118.505L115.532 112.148L115.368 112.538C114.926 113.504 114.197 113.987 113.18 113.987C112.893 113.987 112.602 113.944 112.305 113.857V112.36L112.606 112.367C112.98 112.367 113.258 112.31 113.44 112.196C113.627 112.082 113.773 111.893 113.878 111.629L114.11 111.021L111.519 103.604H113.645L115.019 108.204Z" fill="black"/>
<path d="M53.1571 70.4932V74H51.1063V64.0469H54.9891C55.7365 64.0469 56.3928 64.1836 56.9579 64.457C57.5275 64.7305 57.965 65.1201 58.2704 65.626C58.5757 66.1273 58.7284 66.6992 58.7284 67.3418C58.7284 68.3171 58.3934 69.0872 57.7235 69.6523C57.0581 70.2129 56.1353 70.4932 54.9549 70.4932H53.1571ZM53.1571 68.832H54.9891C55.5314 68.832 55.9439 68.7044 56.2264 68.4492C56.5135 68.194 56.6571 67.8294 56.6571 67.3555C56.6571 66.8678 56.5135 66.4736 56.2264 66.1729C55.9393 65.8721 55.5428 65.7171 55.037 65.708H53.1571V68.832ZM59.6102 70.2334C59.6102 69.4997 59.7515 68.8457 60.034 68.2715C60.3166 67.6973 60.7222 67.2529 61.2508 66.9385C61.784 66.624 62.4016 66.4668 63.1034 66.4668C64.1014 66.4668 64.9149 66.7721 65.5438 67.3828C66.1773 67.9935 66.5305 68.8229 66.6034 69.8711L66.6171 70.377C66.6171 71.5117 66.3003 72.4232 65.6669 73.1113C65.0334 73.7949 64.1835 74.1367 63.1171 74.1367C62.0506 74.1367 61.1984 73.7949 60.5604 73.1113C59.9269 72.4277 59.6102 71.498 59.6102 70.3223V70.2334ZM61.5858 70.377C61.5858 71.0788 61.718 71.6165 61.9823 71.9902C62.2466 72.3594 62.6249 72.5439 63.1171 72.5439C63.5956 72.5439 63.9693 72.3617 64.2381 71.9971C64.507 71.6279 64.6415 71.04 64.6415 70.2334C64.6415 69.5452 64.507 69.012 64.2381 68.6338C63.9693 68.2555 63.591 68.0664 63.1034 68.0664C62.6203 68.0664 62.2466 68.2555 61.9823 68.6338C61.718 69.0075 61.5858 69.5885 61.5858 70.377ZM67.5262 70.2471C67.5262 69.0941 67.7837 68.1758 68.2987 67.4922C68.8182 66.8086 69.5269 66.4668 70.4247 66.4668C71.1447 66.4668 71.7394 66.7357 72.2088 67.2734V63.5H74.1913V74H72.4071L72.3114 73.2139C71.8192 73.8291 71.1857 74.1367 70.411 74.1367C69.5406 74.1367 68.841 73.7949 68.3124 73.1113C67.7883 72.4232 67.5262 71.4684 67.5262 70.2471ZM69.5018 70.3906C69.5018 71.0833 69.6226 71.6143 69.8641 71.9834C70.1057 72.3525 70.4566 72.5371 70.9169 72.5371C71.5275 72.5371 71.9582 72.2796 72.2088 71.7646V68.8457C71.9628 68.3307 71.5366 68.0732 70.9305 68.0732C69.9781 68.0732 69.5018 68.8457 69.5018 70.3906Z" fill="black"/>
<path d="M12.8271 17H10.7763V7.04688H12.8271V17ZM16.4228 9.60352L16.4843 10.458C17.013 9.7972 17.7216 9.4668 18.6103 9.4668C19.3941 9.4668 19.9775 9.69694 20.3603 10.1572C20.7431 10.6175 20.9391 11.3057 20.9482 12.2217V17H18.9726V12.2695C18.9726 11.8503 18.8815 11.5472 18.6992 11.3604C18.5169 11.1689 18.2138 11.0732 17.79 11.0732C17.234 11.0732 16.817 11.3102 16.539 11.7842V17H14.5634V9.60352H16.4228ZM22.165 13.2471C22.165 12.1123 22.4339 11.1986 22.9716 10.5059C23.5139 9.81315 24.2431 9.4668 25.1591 9.4668C25.9703 9.4668 26.6015 9.74479 27.0527 10.3008L27.1347 9.60352H28.9257V16.7539C28.9257 17.401 28.7776 17.9639 28.4814 18.4424C28.1897 18.9209 27.7773 19.2855 27.2441 19.5361C26.7109 19.7868 26.0865 19.9121 25.371 19.9121C24.8287 19.9121 24.3001 19.8027 23.7851 19.584C23.2701 19.3698 22.8805 19.0918 22.6162 18.75L23.4912 17.5469C23.9833 18.0983 24.5803 18.374 25.2822 18.374C25.8063 18.374 26.2141 18.2327 26.5058 17.9502C26.7975 17.6722 26.9433 17.2757 26.9433 16.7607V16.3643C26.4876 16.8792 25.8883 17.1367 25.1455 17.1367C24.2568 17.1367 23.5367 16.7904 22.9853 16.0977C22.4384 15.4004 22.165 14.4775 22.165 13.3291V13.2471ZM24.1406 13.3906C24.1406 14.0605 24.275 14.5869 24.5439 14.9697C24.8128 15.348 25.1819 15.5371 25.6513 15.5371C26.2529 15.5371 26.6835 15.3115 26.9433 14.8604V11.75C26.679 11.2988 26.2529 11.0732 25.665 11.0732C25.191 11.0732 24.8173 11.2669 24.5439 11.6543C24.275 12.0417 24.1406 12.6204 24.1406 13.3906ZM34.6064 11.4561C34.3375 11.4196 34.1005 11.4014 33.8955 11.4014C33.1481 11.4014 32.6581 11.6543 32.4257 12.1602V17H30.4501V9.60352H32.3163L32.371 10.4854C32.7675 9.80632 33.3167 9.4668 34.0185 9.4668C34.2372 9.4668 34.4423 9.49642 34.6337 9.55566L34.6064 11.4561ZM38.831 17.1367C37.7464 17.1367 36.8622 16.804 36.1787 16.1387C35.4996 15.4733 35.1601 14.5869 35.1601 13.4795V13.2881C35.1601 12.5452 35.3037 11.8822 35.5908 11.2988C35.8779 10.7109 36.2835 10.2598 36.8076 9.94531C37.3362 9.6263 37.9378 9.4668 38.6122 9.4668C39.624 9.4668 40.4192 9.78581 40.998 10.4238C41.5813 11.0618 41.873 11.9665 41.873 13.1377V13.9443H37.163C37.2268 14.4274 37.4182 14.8148 37.7372 15.1064C38.0608 15.3981 38.4687 15.5439 38.9609 15.5439C39.7219 15.5439 40.3167 15.2682 40.7451 14.7168L41.7158 15.8037C41.4195 16.223 41.0185 16.5511 40.5126 16.7881C40.0068 17.0205 39.4462 17.1367 38.831 17.1367ZM38.6054 11.0664C38.2135 11.0664 37.8945 11.1986 37.6484 11.4629C37.4068 11.7272 37.2519 12.1055 37.1835 12.5977H39.9316V12.4404C39.9225 12.0029 39.804 11.6657 39.5761 11.4287C39.3483 11.1872 39.0247 11.0664 38.6054 11.0664ZM47.0068 14.9561C47.0068 14.7145 46.886 14.5254 46.6445 14.3887C46.4075 14.2474 46.0247 14.1221 45.496 14.0127C43.7369 13.6436 42.8574 12.8962 42.8574 11.7705C42.8574 11.1143 43.1285 10.5674 43.6708 10.1299C44.2177 9.68783 44.9309 9.4668 45.8105 9.4668C46.7493 9.4668 47.499 9.68783 48.0595 10.1299C48.6246 10.5719 48.9072 11.1462 48.9072 11.8525H46.9316C46.9316 11.57 46.8404 11.3376 46.6581 11.1553C46.4759 10.9684 46.191 10.875 45.8037 10.875C45.471 10.875 45.2135 10.9502 45.0312 11.1006C44.8489 11.251 44.7578 11.4424 44.7578 11.6748C44.7578 11.8936 44.8603 12.0713 45.0654 12.208C45.275 12.3402 45.6259 12.4564 46.1181 12.5566C46.6103 12.6523 47.025 12.7617 47.3622 12.8848C48.4059 13.2676 48.9277 13.9307 48.9277 14.874C48.9277 15.5485 48.6383 16.0954 48.0595 16.5146C47.4807 16.9294 46.7333 17.1367 45.8173 17.1367C45.1975 17.1367 44.6461 17.0273 44.163 16.8086C43.6845 16.5853 43.3085 16.2822 43.0351 15.8994C42.7617 15.512 42.6249 15.0951 42.6249 14.6484H44.498C44.5162 14.9993 44.6461 15.2682 44.8876 15.4551C45.1292 15.6419 45.4527 15.7354 45.8583 15.7354C46.2366 15.7354 46.5214 15.6647 46.7128 15.5234C46.9088 15.3776 47.0068 15.1885 47.0068 14.9561ZM54.2119 14.9561C54.2119 14.7145 54.0911 14.5254 53.8496 14.3887C53.6126 14.2474 53.2298 14.1221 52.7011 14.0127C50.942 13.6436 50.0624 12.8962 50.0624 11.7705C50.0624 11.1143 50.3336 10.5674 50.8759 10.1299C51.4228 9.68783 52.136 9.4668 53.0156 9.4668C53.9544 9.4668 54.704 9.68783 55.2646 10.1299C55.8297 10.5719 56.1122 11.1462 56.1122 11.8525H54.1367C54.1367 11.57 54.0455 11.3376 53.8632 11.1553C53.6809 10.9684 53.3961 10.875 53.0087 10.875C52.676 10.875 52.4186 10.9502 52.2363 11.1006C52.054 11.251 51.9628 11.4424 51.9628 11.6748C51.9628 11.8936 52.0654 12.0713 52.2705 12.208C52.4801 12.3402 52.831 12.4564 53.3232 12.5566C53.8154 12.6523 54.2301 12.7617 54.5673 12.8848C55.6109 13.2676 56.1328 13.9307 56.1328 14.874C56.1328 15.5485 55.8434 16.0954 55.2646 16.5146C54.6858 16.9294 53.9384 17.1367 53.0224 17.1367C52.4026 17.1367 51.8512 17.0273 51.3681 16.8086C50.8896 16.5853 50.5136 16.2822 50.2402 15.8994C49.9667 15.512 49.83 15.0951 49.83 14.6484H51.7031C51.7213 14.9993 51.8512 15.2682 52.0927 15.4551C52.3343 15.6419 52.6578 15.7354 53.0634 15.7354C53.4417 15.7354 53.7265 15.6647 53.9179 15.5234C54.1139 15.3776 54.2119 15.1885 54.2119 14.9561Z" fill="black"/>
<path d="M248 5V45" stroke="black" stroke-width="3"/>
<path d="M248 68V87" stroke="black" stroke-width="3"/>
<path d="M248 110V134" stroke="black" stroke-width="3"/>
<path d="M247 154C247 154 247 160 247 170.376C247 191.119 223 170.376 223 191.119C223 223.096 223 273 223 273" stroke="black" stroke-width="3"/>
<path d="M223 305V296" stroke="black" stroke-width="3"/>
</g>
<defs>
<filter id="filter0_d" x="20.9038" y="35" width="169.874" height="135" filterUnits="userSpaceOnUse" color-interpolation-filters="sRGB">
<feFlood flood-opacity="0" result="BackgroundImageFix"/>
<feColorMatrix in="SourceAlpha" type="matrix" values="0 0 0 0 0 0 0 0 0 0 0 0 0 0 0 0 0 0 127 0"/>
<feOffset dy="4"/>
<feGaussianBlur stdDeviation="2"/>
<feColorMatrix type="matrix" values="0 0 0 0 0 0 0 0 0 0 0 0 0 0 0 0 0 0 0.25 0"/>
<feBlend mode="normal" in2="BackgroundImageFix" result="effect1_dropShadow"/>
<feBlend mode="normal" in="SourceGraphic" in2="effect1_dropShadow" result="shape"/>
</filter>
<clipPath id="clip0">
<rect width="306" height="411" fill="white"/>
</clipPath>
</defs>
</svg>
