<svg width="306" height="23" viewBox="0 0 306 23" fill="none" xmlns="http://www.w3.org/2000/svg">
<g clip-path="url(#clip0)">
<rect x="189" width="117" height="23" rx="11.5" fill="#BD98F9"/>
<path d="M197.904 16V6.04688H200.967C201.842 6.04688 202.623 6.24512 203.312 6.6416C204.004 7.03353 204.544 7.59408 204.932 8.32324C205.319 9.04785 205.513 9.87272 205.513 10.7979V11.2559C205.513 12.181 205.321 13.0036 204.938 13.7236C204.56 14.4437 204.025 15.002 203.332 15.3984C202.639 15.7949 201.858 15.9954 200.987 16H197.904ZM199.955 7.70801V14.3525H200.946C201.748 14.3525 202.361 14.0905 202.785 13.5664C203.209 13.0423 203.425 12.2926 203.435 11.3174V10.791C203.435 9.7793 203.225 9.01367 202.806 8.49414C202.386 7.97005 201.773 7.70801 200.967 7.70801H199.955ZM210.284 16.1367C209.2 16.1367 208.315 15.804 207.632 15.1387C206.953 14.4733 206.613 13.5869 206.613 12.4795V12.2881C206.613 11.5452 206.757 10.8822 207.044 10.2988C207.331 9.71094 207.737 9.25977 208.261 8.94531C208.789 8.6263 209.391 8.4668 210.065 8.4668C211.077 8.4668 211.872 8.78581 212.451 9.42383C213.035 10.0618 213.326 10.9665 213.326 12.1377V12.9443H208.616C208.68 13.4274 208.871 13.8148 209.19 14.1064C209.514 14.3981 209.922 14.5439 210.414 14.5439C211.175 14.5439 211.77 14.2682 212.198 13.7168L213.169 14.8037C212.873 15.223 212.472 15.5511 211.966 15.7881C211.46 16.0205 210.899 16.1367 210.284 16.1367ZM210.059 10.0664C209.667 10.0664 209.348 10.1986 209.102 10.4629C208.86 10.7272 208.705 11.1055 208.637 11.5977H211.385V11.4404C211.376 11.0029 211.257 10.6657 211.029 10.4287C210.801 10.1872 210.478 10.0664 210.059 10.0664ZM218.46 13.9561C218.46 13.7145 218.339 13.5254 218.098 13.3887C217.861 13.2474 217.478 13.1221 216.949 13.0127C215.19 12.6436 214.311 11.8962 214.311 10.7705C214.311 10.1143 214.582 9.56738 215.124 9.12988C215.671 8.68783 216.384 8.4668 217.264 8.4668C218.202 8.4668 218.952 8.68783 219.513 9.12988C220.078 9.57194 220.36 10.1462 220.36 10.8525H218.385C218.385 10.57 218.294 10.3376 218.111 10.1553C217.929 9.96842 217.644 9.875 217.257 9.875C216.924 9.875 216.667 9.9502 216.484 10.1006C216.302 10.251 216.211 10.4424 216.211 10.6748C216.211 10.8936 216.313 11.0713 216.519 11.208C216.728 11.3402 217.079 11.4564 217.571 11.5566C218.063 11.6523 218.478 11.7617 218.815 11.8848C219.859 12.2676 220.381 12.9307 220.381 13.874C220.381 14.5485 220.091 15.0954 219.513 15.5146C218.934 15.9294 218.187 16.1367 217.271 16.1367C216.651 16.1367 216.099 16.0273 215.616 15.8086C215.138 15.5853 214.762 15.2822 214.488 14.8994C214.215 14.512 214.078 14.0951 214.078 13.6484H215.951C215.969 13.9993 216.099 14.2682 216.341 14.4551C216.582 14.6419 216.906 14.7354 217.312 14.7354C217.69 14.7354 217.975 14.6647 218.166 14.5234C218.362 14.3776 218.46 14.1885 218.46 13.9561ZM224.024 6.78516V8.60352H225.289V10.0527H224.024V13.7441C224.024 14.0176 224.077 14.2135 224.182 14.332C224.286 14.4505 224.487 14.5098 224.783 14.5098C225.002 14.5098 225.196 14.4938 225.364 14.4619V15.959C224.977 16.0775 224.578 16.1367 224.168 16.1367C222.783 16.1367 222.076 15.4372 222.049 14.0381V10.0527H220.969V8.60352H222.049V6.78516H224.024ZM228.475 16H226.492V8.60352H228.475V16ZM226.376 6.68945C226.376 6.39323 226.474 6.14941 226.67 5.95801C226.87 5.7666 227.142 5.6709 227.483 5.6709C227.821 5.6709 228.09 5.7666 228.29 5.95801C228.491 6.14941 228.591 6.39323 228.591 6.68945C228.591 6.99023 228.488 7.23633 228.283 7.42773C228.083 7.61914 227.816 7.71484 227.483 7.71484C227.151 7.71484 226.882 7.61914 226.677 7.42773C226.476 7.23633 226.376 6.99023 226.376 6.68945ZM231.927 8.60352L231.988 9.45801C232.517 8.7972 233.226 8.4668 234.114 8.4668C234.898 8.4668 235.481 8.69694 235.864 9.15723C236.247 9.61751 236.443 10.3057 236.452 11.2217V16H234.477V11.2695C234.477 10.8503 234.385 10.5472 234.203 10.3604C234.021 10.1689 233.718 10.0732 233.294 10.0732C232.738 10.0732 232.321 10.3102 232.043 10.7842V16H230.067V8.60352H231.927ZM242.242 16C242.151 15.8223 242.085 15.6012 242.044 15.3369C241.565 15.8701 240.943 16.1367 240.178 16.1367C239.453 16.1367 238.852 15.9271 238.373 15.5078C237.899 15.0885 237.662 14.5599 237.662 13.9219C237.662 13.138 237.951 12.5365 238.53 12.1172C239.114 11.6979 239.954 11.486 241.053 11.4814H241.962V11.0576C241.962 10.7158 241.873 10.4424 241.695 10.2373C241.522 10.0322 241.246 9.92969 240.868 9.92969C240.535 9.92969 240.273 10.0094 240.082 10.1689C239.895 10.3285 239.802 10.5472 239.802 10.8252H237.826C237.826 10.3968 237.958 10.0003 238.223 9.63574C238.487 9.27116 238.861 8.98633 239.344 8.78125C239.827 8.57161 240.369 8.4668 240.971 8.4668C241.882 8.4668 242.604 8.69694 243.138 9.15723C243.675 9.61296 243.944 10.2555 243.944 11.085V14.291C243.949 14.9928 244.047 15.5238 244.238 15.8838V16H242.242ZM240.608 14.626C240.9 14.626 241.169 14.5622 241.415 14.4346C241.661 14.3024 241.843 14.127 241.962 13.9082V12.6367H241.224C240.235 12.6367 239.708 12.9785 239.645 13.6621L239.638 13.7783C239.638 14.0244 239.724 14.2272 239.897 14.3867C240.071 14.5462 240.308 14.626 240.608 14.626ZM247.827 6.78516V8.60352H249.092V10.0527H247.827V13.7441C247.827 14.0176 247.88 14.2135 247.984 14.332C248.089 14.4505 248.29 14.5098 248.586 14.5098C248.805 14.5098 248.998 14.4938 249.167 14.4619V15.959C248.78 16.0775 248.381 16.1367 247.971 16.1367C246.585 16.1367 245.879 15.4372 245.852 14.0381V10.0527H244.771V8.60352H245.852V6.78516H247.827ZM252.277 16H250.295V8.60352H252.277V16ZM250.179 6.68945C250.179 6.39323 250.277 6.14941 250.473 5.95801C250.673 5.7666 250.944 5.6709 251.286 5.6709C251.623 5.6709 251.892 5.7666 252.093 5.95801C252.293 6.14941 252.394 6.39323 252.394 6.68945C252.394 6.99023 252.291 7.23633 252.086 7.42773C251.885 7.61914 251.619 7.71484 251.286 7.71484C250.953 7.71484 250.685 7.61914 250.479 7.42773C250.279 7.23633 250.179 6.99023 250.179 6.68945ZM253.604 12.2334C253.604 11.4997 253.745 10.8457 254.027 10.2715C254.31 9.69727 254.715 9.25293 255.244 8.93848C255.777 8.62402 256.395 8.4668 257.097 8.4668C258.095 8.4668 258.908 8.77214 259.537 9.38281C260.171 9.99349 260.524 10.8229 260.597 11.8711L260.61 12.377C260.61 13.5117 260.294 14.4232 259.66 15.1113C259.027 15.7949 258.177 16.1367 257.11 16.1367C256.044 16.1367 255.192 15.7949 254.554 15.1113C253.92 14.4277 253.604 13.498 253.604 12.3223V12.2334ZM255.579 12.377C255.579 13.0788 255.711 13.6165 255.976 13.9902C256.24 14.3594 256.618 14.5439 257.11 14.5439C257.589 14.5439 257.963 14.3617 258.231 13.9971C258.5 13.6279 258.635 13.04 258.635 12.2334C258.635 11.5452 258.5 11.012 258.231 10.6338C257.963 10.2555 257.584 10.0664 257.097 10.0664C256.614 10.0664 256.24 10.2555 255.976 10.6338C255.711 11.0075 255.579 11.5885 255.579 12.377ZM263.646 8.60352L263.707 9.45801C264.236 8.7972 264.944 8.4668 265.833 8.4668C266.617 8.4668 267.2 8.69694 267.583 9.15723C267.966 9.61751 268.162 10.3057 268.171 11.2217V16H266.195V11.2695C266.195 10.8503 266.104 10.5472 265.922 10.3604C265.74 10.1689 265.437 10.0732 265.013 10.0732C264.457 10.0732 264.04 10.3102 263.762 10.7842V16H261.786V8.60352H263.646ZM273.489 12.3564H271.855V16H269.805V6.04688H273.503C274.679 6.04688 275.586 6.30892 276.224 6.83301C276.862 7.3571 277.181 8.09766 277.181 9.05469C277.181 9.73372 277.033 10.3011 276.736 10.7568C276.445 11.208 276 11.568 275.403 11.8369L277.557 15.9043V16H275.355L273.489 12.3564ZM271.855 10.6953H273.51C274.025 10.6953 274.424 10.5654 274.706 10.3057C274.989 10.0413 275.13 9.67904 275.13 9.21875C275.13 8.74935 274.995 8.38021 274.727 8.11133C274.462 7.84245 274.054 7.70801 273.503 7.70801H271.855V10.6953ZM283.046 15.248C282.558 15.8405 281.884 16.1367 281.022 16.1367C280.229 16.1367 279.623 15.9089 279.204 15.4531C278.789 14.9974 278.577 14.3298 278.568 13.4502V8.60352H280.544V13.3818C280.544 14.152 280.895 14.5371 281.597 14.5371C282.267 14.5371 282.727 14.3047 282.978 13.8398V8.60352H284.96V16H283.101L283.046 15.248ZM288.535 16H286.553V5.5H288.535V16ZM293.573 16.1367C292.489 16.1367 291.604 15.804 290.921 15.1387C290.242 14.4733 289.902 13.5869 289.902 12.4795V12.2881C289.902 11.5452 290.046 10.8822 290.333 10.2988C290.62 9.71094 291.026 9.25977 291.55 8.94531C292.078 8.6263 292.68 8.4668 293.354 8.4668C294.366 8.4668 295.161 8.78581 295.74 9.42383C296.324 10.0618 296.615 10.9665 296.615 12.1377V12.9443H291.905C291.969 13.4274 292.16 13.8148 292.479 14.1064C292.803 14.3981 293.211 14.5439 293.703 14.5439C294.464 14.5439 295.059 14.2682 295.487 13.7168L296.458 14.8037C296.162 15.223 295.761 15.5511 295.255 15.7881C294.749 16.0205 294.188 16.1367 293.573 16.1367ZM293.348 10.0664C292.956 10.0664 292.637 10.1986 292.391 10.4629C292.149 10.7272 291.994 11.1055 291.926 11.5977H294.674V11.4404C294.665 11.0029 294.546 10.6657 294.318 10.4287C294.09 10.1872 293.767 10.0664 293.348 10.0664Z" fill="black"/>
</g>
<defs>
<clipPath id="clip0">
<rect width="306" height="23" fill="white"/>
</clipPath>
</defs>
</svg>
