<svg width="306" height="23" viewBox="0 0 306 23" fill="none" xmlns="http://www.w3.org/2000/svg">
<g clip-path="url(#clip0)">
<rect x="189" width="117" height="23" rx="11.5" fill="#F27B6D"/>
<path d="M228.728 14.7422C228.358 15.1842 227.837 15.5283 227.162 15.7744C226.488 16.016 225.74 16.1367 224.92 16.1367C224.059 16.1367 223.302 15.9499 222.65 15.5762C222.003 15.1979 221.502 14.651 221.146 13.9355C220.796 13.2201 220.616 12.3792 220.606 11.4131V10.7363C220.606 9.74284 220.773 8.88379 221.105 8.15918C221.443 7.43001 221.926 6.87402 222.555 6.49121C223.188 6.10384 223.929 5.91016 224.776 5.91016C225.957 5.91016 226.88 6.19271 227.545 6.75781C228.21 7.31836 228.604 8.13639 228.728 9.21191H226.731C226.64 8.64225 226.438 8.22526 226.123 7.96094C225.813 7.69661 225.385 7.56445 224.838 7.56445C224.141 7.56445 223.61 7.8265 223.245 8.35059C222.881 8.87467 222.696 9.65397 222.691 10.6885V11.3242C222.691 12.3678 222.89 13.1562 223.286 13.6895C223.683 14.2227 224.264 14.4893 225.029 14.4893C225.799 14.4893 226.349 14.3252 226.677 13.9971V12.2812H224.811V10.7705H228.728V14.7422ZM234.552 16C234.461 15.8223 234.395 15.6012 234.354 15.3369C233.875 15.8701 233.253 16.1367 232.487 16.1367C231.763 16.1367 231.161 15.9271 230.683 15.5078C230.209 15.0885 229.972 14.5599 229.972 13.9219C229.972 13.138 230.261 12.5365 230.84 12.1172C231.423 11.6979 232.264 11.486 233.362 11.4814H234.271V11.0576C234.271 10.7158 234.183 10.4424 234.005 10.2373C233.832 10.0322 233.556 9.92969 233.178 9.92969C232.845 9.92969 232.583 10.0094 232.392 10.1689C232.205 10.3285 232.111 10.5472 232.111 10.8252H230.136C230.136 10.3968 230.268 10.0003 230.532 9.63574C230.797 9.27116 231.17 8.98633 231.653 8.78125C232.136 8.57161 232.679 8.4668 233.28 8.4668C234.192 8.4668 234.914 8.69694 235.447 9.15723C235.985 9.61296 236.254 10.2555 236.254 11.085V14.291C236.258 14.9928 236.356 15.5238 236.548 15.8838V16H234.552ZM232.918 14.626C233.21 14.626 233.479 14.5622 233.725 14.4346C233.971 14.3024 234.153 14.127 234.271 13.9082V12.6367H233.533C232.544 12.6367 232.018 12.9785 231.954 13.6621L231.947 13.7783C231.947 14.0244 232.034 14.2272 232.207 14.3867C232.38 14.5462 232.617 14.626 232.918 14.626ZM240.137 6.78516V8.60352H241.401V10.0527H240.137V13.7441C240.137 14.0176 240.189 14.2135 240.294 14.332C240.399 14.4505 240.599 14.5098 240.896 14.5098C241.114 14.5098 241.308 14.4938 241.477 14.4619V15.959C241.089 16.0775 240.69 16.1367 240.28 16.1367C238.895 16.1367 238.188 15.4372 238.161 14.0381V10.0527H237.081V8.60352H238.161V6.78516H240.137ZM245.906 16.1367C244.822 16.1367 243.938 15.804 243.254 15.1387C242.575 14.4733 242.235 13.5869 242.235 12.4795V12.2881C242.235 11.5452 242.379 10.8822 242.666 10.2988C242.953 9.71094 243.359 9.25977 243.883 8.94531C244.411 8.6263 245.013 8.4668 245.688 8.4668C246.699 8.4668 247.494 8.78581 248.073 9.42383C248.657 10.0618 248.948 10.9665 248.948 12.1377V12.9443H244.238C244.302 13.4274 244.493 13.8148 244.812 14.1064C245.136 14.3981 245.544 14.5439 246.036 14.5439C246.797 14.5439 247.392 14.2682 247.82 13.7168L248.791 14.8037C248.495 15.223 248.094 15.5511 247.588 15.7881C247.082 16.0205 246.521 16.1367 245.906 16.1367ZM245.681 10.0664C245.289 10.0664 244.97 10.1986 244.724 10.4629C244.482 10.7272 244.327 11.1055 244.259 11.5977H247.007V11.4404C246.998 11.0029 246.879 10.6657 246.651 10.4287C246.424 10.1872 246.1 10.0664 245.681 10.0664ZM256.509 13.3135L257.479 8.60352H259.387L257.5 16H255.846L254.444 11.3447L253.043 16H251.396L249.509 8.60352H251.416L252.38 13.3066L253.733 8.60352H255.162L256.509 13.3135ZM264.657 16C264.566 15.8223 264.5 15.6012 264.459 15.3369C263.98 15.8701 263.358 16.1367 262.593 16.1367C261.868 16.1367 261.267 15.9271 260.788 15.5078C260.314 15.0885 260.077 14.5599 260.077 13.9219C260.077 13.138 260.367 12.5365 260.945 12.1172C261.529 11.6979 262.369 11.486 263.468 11.4814H264.377V11.0576C264.377 10.7158 264.288 10.4424 264.11 10.2373C263.937 10.0322 263.661 9.92969 263.283 9.92969C262.951 9.92969 262.688 10.0094 262.497 10.1689C262.31 10.3285 262.217 10.5472 262.217 10.8252H260.241C260.241 10.3968 260.373 10.0003 260.638 9.63574C260.902 9.27116 261.276 8.98633 261.759 8.78125C262.242 8.57161 262.784 8.4668 263.386 8.4668C264.297 8.4668 265.02 8.69694 265.553 9.15723C266.09 9.61296 266.359 10.2555 266.359 11.085V14.291C266.364 14.9928 266.462 15.5238 266.653 15.8838V16H264.657ZM263.023 14.626C263.315 14.626 263.584 14.5622 263.83 14.4346C264.076 14.3024 264.258 14.127 264.377 13.9082V12.6367H263.639C262.65 12.6367 262.123 12.9785 262.06 13.6621L262.053 13.7783C262.053 14.0244 262.139 14.2272 262.312 14.3867C262.486 14.5462 262.723 14.626 263.023 14.626ZM270.529 13.2041L271.896 8.60352H274.016L271.042 17.1484L270.878 17.5381C270.436 18.5042 269.707 18.9873 268.69 18.9873C268.403 18.9873 268.112 18.944 267.815 18.8574V17.3604L268.116 17.3672C268.49 17.3672 268.768 17.3102 268.95 17.1963C269.137 17.0824 269.283 16.8932 269.388 16.6289L269.62 16.0205L267.029 8.60352H269.155L270.529 13.2041Z" fill="black"/>
</g>
<defs>
<clipPath id="clip0">
<rect width="306" height="23" fill="white"/>
</clipPath>
</defs>
</svg>
