<svg width="291" height="23" viewBox="0 0 291 23" fill="none" xmlns="http://www.w3.org/2000/svg">
<g clip-path="url(#clip0)">
<rect x="151.5" y="0.5" width="116" height="22" rx="11" fill="#BD98F9" stroke="black" stroke-dasharray="10 10"/>
<path d="M159.904 16V6.04688H162.967C163.842 6.04688 164.623 6.24512 165.312 6.6416C166.004 7.03353 166.544 7.59408 166.932 8.32324C167.319 9.04785 167.513 9.87272 167.513 10.7979V11.2559C167.513 12.181 167.321 13.0036 166.938 13.7236C166.56 14.4437 166.025 15.002 165.332 15.3984C164.639 15.7949 163.858 15.9954 162.987 16H159.904ZM161.955 7.70801V14.3525H162.946C163.748 14.3525 164.361 14.0905 164.785 13.5664C165.209 13.0423 165.425 12.2926 165.435 11.3174V10.791C165.435 9.7793 165.225 9.01367 164.806 8.49414C164.386 7.97005 163.773 7.70801 162.967 7.70801H161.955ZM172.284 16.1367C171.2 16.1367 170.315 15.804 169.632 15.1387C168.953 14.4733 168.613 13.5869 168.613 12.4795V12.2881C168.613 11.5452 168.757 10.8822 169.044 10.2988C169.331 9.71094 169.737 9.25977 170.261 8.94531C170.789 8.6263 171.391 8.4668 172.065 8.4668C173.077 8.4668 173.872 8.78581 174.451 9.42383C175.035 10.0618 175.326 10.9665 175.326 12.1377V12.9443H170.616C170.68 13.4274 170.871 13.8148 171.19 14.1064C171.514 14.3981 171.922 14.5439 172.414 14.5439C173.175 14.5439 173.77 14.2682 174.198 13.7168L175.169 14.8037C174.873 15.223 174.472 15.5511 173.966 15.7881C173.46 16.0205 172.899 16.1367 172.284 16.1367ZM172.059 10.0664C171.667 10.0664 171.348 10.1986 171.102 10.4629C170.86 10.7272 170.705 11.1055 170.637 11.5977H173.385V11.4404C173.376 11.0029 173.257 10.6657 173.029 10.4287C172.801 10.1872 172.478 10.0664 172.059 10.0664ZM180.46 13.9561C180.46 13.7145 180.339 13.5254 180.098 13.3887C179.861 13.2474 179.478 13.1221 178.949 13.0127C177.19 12.6436 176.311 11.8962 176.311 10.7705C176.311 10.1143 176.582 9.56738 177.124 9.12988C177.671 8.68783 178.384 8.4668 179.264 8.4668C180.202 8.4668 180.952 8.68783 181.513 9.12988C182.078 9.57194 182.36 10.1462 182.36 10.8525H180.385C180.385 10.57 180.294 10.3376 180.111 10.1553C179.929 9.96842 179.644 9.875 179.257 9.875C178.924 9.875 178.667 9.9502 178.484 10.1006C178.302 10.251 178.211 10.4424 178.211 10.6748C178.211 10.8936 178.313 11.0713 178.519 11.208C178.728 11.3402 179.079 11.4564 179.571 11.5566C180.063 11.6523 180.478 11.7617 180.815 11.8848C181.859 12.2676 182.381 12.9307 182.381 13.874C182.381 14.5485 182.091 15.0954 181.513 15.5146C180.934 15.9294 180.187 16.1367 179.271 16.1367C178.651 16.1367 178.099 16.0273 177.616 15.8086C177.138 15.5853 176.762 15.2822 176.488 14.8994C176.215 14.512 176.078 14.0951 176.078 13.6484H177.951C177.969 13.9993 178.099 14.2682 178.341 14.4551C178.582 14.6419 178.906 14.7354 179.312 14.7354C179.69 14.7354 179.975 14.6647 180.166 14.5234C180.362 14.3776 180.46 14.1885 180.46 13.9561ZM186.024 6.78516V8.60352H187.289V10.0527H186.024V13.7441C186.024 14.0176 186.077 14.2135 186.182 14.332C186.286 14.4505 186.487 14.5098 186.783 14.5098C187.002 14.5098 187.196 14.4938 187.364 14.4619V15.959C186.977 16.0775 186.578 16.1367 186.168 16.1367C184.783 16.1367 184.076 15.4372 184.049 14.0381V10.0527H182.969V8.60352H184.049V6.78516H186.024ZM190.475 16H188.492V8.60352H190.475V16ZM188.376 6.68945C188.376 6.39323 188.474 6.14941 188.67 5.95801C188.87 5.7666 189.142 5.6709 189.483 5.6709C189.821 5.6709 190.09 5.7666 190.29 5.95801C190.491 6.14941 190.591 6.39323 190.591 6.68945C190.591 6.99023 190.488 7.23633 190.283 7.42773C190.083 7.61914 189.816 7.71484 189.483 7.71484C189.151 7.71484 188.882 7.61914 188.677 7.42773C188.476 7.23633 188.376 6.99023 188.376 6.68945ZM193.927 8.60352L193.988 9.45801C194.517 8.7972 195.226 8.4668 196.114 8.4668C196.898 8.4668 197.481 8.69694 197.864 9.15723C198.247 9.61751 198.443 10.3057 198.452 11.2217V16H196.477V11.2695C196.477 10.8503 196.385 10.5472 196.203 10.3604C196.021 10.1689 195.718 10.0732 195.294 10.0732C194.738 10.0732 194.321 10.3102 194.043 10.7842V16H192.067V8.60352H193.927ZM204.242 16C204.151 15.8223 204.085 15.6012 204.044 15.3369C203.565 15.8701 202.943 16.1367 202.178 16.1367C201.453 16.1367 200.852 15.9271 200.373 15.5078C199.899 15.0885 199.662 14.5599 199.662 13.9219C199.662 13.138 199.951 12.5365 200.53 12.1172C201.114 11.6979 201.954 11.486 203.053 11.4814H203.962V11.0576C203.962 10.7158 203.873 10.4424 203.695 10.2373C203.522 10.0322 203.246 9.92969 202.868 9.92969C202.535 9.92969 202.273 10.0094 202.082 10.1689C201.895 10.3285 201.802 10.5472 201.802 10.8252H199.826C199.826 10.3968 199.958 10.0003 200.223 9.63574C200.487 9.27116 200.861 8.98633 201.344 8.78125C201.827 8.57161 202.369 8.4668 202.971 8.4668C203.882 8.4668 204.604 8.69694 205.138 9.15723C205.675 9.61296 205.944 10.2555 205.944 11.085V14.291C205.949 14.9928 206.047 15.5238 206.238 15.8838V16H204.242ZM202.608 14.626C202.9 14.626 203.169 14.5622 203.415 14.4346C203.661 14.3024 203.843 14.127 203.962 13.9082V12.6367H203.224C202.235 12.6367 201.708 12.9785 201.645 13.6621L201.638 13.7783C201.638 14.0244 201.724 14.2272 201.897 14.3867C202.071 14.5462 202.308 14.626 202.608 14.626ZM209.827 6.78516V8.60352H211.092V10.0527H209.827V13.7441C209.827 14.0176 209.88 14.2135 209.984 14.332C210.089 14.4505 210.29 14.5098 210.586 14.5098C210.805 14.5098 210.998 14.4938 211.167 14.4619V15.959C210.78 16.0775 210.381 16.1367 209.971 16.1367C208.585 16.1367 207.879 15.4372 207.852 14.0381V10.0527H206.771V8.60352H207.852V6.78516H209.827ZM214.277 16H212.295V8.60352H214.277V16ZM212.179 6.68945C212.179 6.39323 212.277 6.14941 212.473 5.95801C212.673 5.7666 212.944 5.6709 213.286 5.6709C213.623 5.6709 213.892 5.7666 214.093 5.95801C214.293 6.14941 214.394 6.39323 214.394 6.68945C214.394 6.99023 214.291 7.23633 214.086 7.42773C213.885 7.61914 213.619 7.71484 213.286 7.71484C212.953 7.71484 212.685 7.61914 212.479 7.42773C212.279 7.23633 212.179 6.99023 212.179 6.68945ZM215.604 12.2334C215.604 11.4997 215.745 10.8457 216.027 10.2715C216.31 9.69727 216.715 9.25293 217.244 8.93848C217.777 8.62402 218.395 8.4668 219.097 8.4668C220.095 8.4668 220.908 8.77214 221.537 9.38281C222.171 9.99349 222.524 10.8229 222.597 11.8711L222.61 12.377C222.61 13.5117 222.294 14.4232 221.66 15.1113C221.027 15.7949 220.177 16.1367 219.11 16.1367C218.044 16.1367 217.192 15.7949 216.554 15.1113C215.92 14.4277 215.604 13.498 215.604 12.3223V12.2334ZM217.579 12.377C217.579 13.0788 217.711 13.6165 217.976 13.9902C218.24 14.3594 218.618 14.5439 219.11 14.5439C219.589 14.5439 219.963 14.3617 220.231 13.9971C220.5 13.6279 220.635 13.04 220.635 12.2334C220.635 11.5452 220.5 11.012 220.231 10.6338C219.963 10.2555 219.584 10.0664 219.097 10.0664C218.614 10.0664 218.24 10.2555 217.976 10.6338C217.711 11.0075 217.579 11.5885 217.579 12.377ZM225.646 8.60352L225.707 9.45801C226.236 8.7972 226.944 8.4668 227.833 8.4668C228.617 8.4668 229.2 8.69694 229.583 9.15723C229.966 9.61751 230.162 10.3057 230.171 11.2217V16H228.195V11.2695C228.195 10.8503 228.104 10.5472 227.922 10.3604C227.74 10.1689 227.437 10.0732 227.013 10.0732C226.457 10.0732 226.04 10.3102 225.762 10.7842V16H223.786V8.60352H225.646ZM235.489 12.3564H233.855V16H231.805V6.04688H235.503C236.679 6.04688 237.586 6.30892 238.224 6.83301C238.862 7.3571 239.181 8.09766 239.181 9.05469C239.181 9.73372 239.033 10.3011 238.736 10.7568C238.445 11.208 238 11.568 237.403 11.8369L239.557 15.9043V16H237.355L235.489 12.3564ZM233.855 10.6953H235.51C236.025 10.6953 236.424 10.5654 236.706 10.3057C236.989 10.0413 237.13 9.67904 237.13 9.21875C237.13 8.74935 236.995 8.38021 236.727 8.11133C236.462 7.84245 236.054 7.70801 235.503 7.70801H233.855V10.6953ZM245.046 15.248C244.558 15.8405 243.884 16.1367 243.022 16.1367C242.229 16.1367 241.623 15.9089 241.204 15.4531C240.789 14.9974 240.577 14.3298 240.568 13.4502V8.60352H242.544V13.3818C242.544 14.152 242.895 14.5371 243.597 14.5371C244.267 14.5371 244.727 14.3047 244.978 13.8398V8.60352H246.96V16H245.101L245.046 15.248ZM250.535 16H248.553V5.5H250.535V16ZM255.573 16.1367C254.489 16.1367 253.604 15.804 252.921 15.1387C252.242 14.4733 251.902 13.5869 251.902 12.4795V12.2881C251.902 11.5452 252.046 10.8822 252.333 10.2988C252.62 9.71094 253.026 9.25977 253.55 8.94531C254.078 8.6263 254.68 8.4668 255.354 8.4668C256.366 8.4668 257.161 8.78581 257.74 9.42383C258.324 10.0618 258.615 10.9665 258.615 12.1377V12.9443H253.905C253.969 13.4274 254.16 13.8148 254.479 14.1064C254.803 14.3981 255.211 14.5439 255.703 14.5439C256.464 14.5439 257.059 14.2682 257.487 13.7168L258.458 14.8037C258.162 15.223 257.761 15.5511 257.255 15.7881C256.749 16.0205 256.188 16.1367 255.573 16.1367ZM255.348 10.0664C254.956 10.0664 254.637 10.1986 254.391 10.4629C254.149 10.7272 253.994 11.1055 253.926 11.5977H256.674V11.4404C256.665 11.0029 256.546 10.6657 256.318 10.4287C256.09 10.1872 255.767 10.0664 255.348 10.0664Z" fill="black"/>
</g>
<defs>
<clipPath id="clip0">
<rect width="291" height="23" fill="white"/>
</clipPath>
</defs>
</svg>
