<svg width="291" height="23" viewBox="0 0 291 23" fill="none" xmlns="http://www.w3.org/2000/svg">
<g clip-path="url(#clip0)">
<rect x="174" width="117" height="23" rx="11.5" fill="#F27B6D"/>
<path d="M213.728 14.7422C213.358 15.1842 212.837 15.5283 212.162 15.7744C211.488 16.016 210.74 16.1367 209.92 16.1367C209.059 16.1367 208.302 15.9499 207.65 15.5762C207.003 15.1979 206.502 14.651 206.146 13.9355C205.796 13.2201 205.616 12.3792 205.606 11.4131V10.7363C205.606 9.74284 205.773 8.88379 206.105 8.15918C206.443 7.43001 206.926 6.87402 207.555 6.49121C208.188 6.10384 208.929 5.91016 209.776 5.91016C210.957 5.91016 211.88 6.19271 212.545 6.75781C213.21 7.31836 213.604 8.13639 213.728 9.21191H211.731C211.64 8.64225 211.438 8.22526 211.123 7.96094C210.813 7.69661 210.385 7.56445 209.838 7.56445C209.141 7.56445 208.61 7.8265 208.245 8.35059C207.881 8.87467 207.696 9.65397 207.691 10.6885V11.3242C207.691 12.3678 207.89 13.1562 208.286 13.6895C208.683 14.2227 209.264 14.4893 210.029 14.4893C210.799 14.4893 211.349 14.3252 211.677 13.9971V12.2812H209.811V10.7705H213.728V14.7422ZM219.552 16C219.461 15.8223 219.395 15.6012 219.354 15.3369C218.875 15.8701 218.253 16.1367 217.487 16.1367C216.763 16.1367 216.161 15.9271 215.683 15.5078C215.209 15.0885 214.972 14.5599 214.972 13.9219C214.972 13.138 215.261 12.5365 215.84 12.1172C216.423 11.6979 217.264 11.486 218.362 11.4814H219.271V11.0576C219.271 10.7158 219.183 10.4424 219.005 10.2373C218.832 10.0322 218.556 9.92969 218.178 9.92969C217.845 9.92969 217.583 10.0094 217.392 10.1689C217.205 10.3285 217.111 10.5472 217.111 10.8252H215.136C215.136 10.3968 215.268 10.0003 215.532 9.63574C215.797 9.27116 216.17 8.98633 216.653 8.78125C217.136 8.57161 217.679 8.4668 218.28 8.4668C219.192 8.4668 219.914 8.69694 220.447 9.15723C220.985 9.61296 221.254 10.2555 221.254 11.085V14.291C221.258 14.9928 221.356 15.5238 221.548 15.8838V16H219.552ZM217.918 14.626C218.21 14.626 218.479 14.5622 218.725 14.4346C218.971 14.3024 219.153 14.127 219.271 13.9082V12.6367H218.533C217.544 12.6367 217.018 12.9785 216.954 13.6621L216.947 13.7783C216.947 14.0244 217.034 14.2272 217.207 14.3867C217.38 14.5462 217.617 14.626 217.918 14.626ZM225.137 6.78516V8.60352H226.401V10.0527H225.137V13.7441C225.137 14.0176 225.189 14.2135 225.294 14.332C225.399 14.4505 225.599 14.5098 225.896 14.5098C226.114 14.5098 226.308 14.4938 226.477 14.4619V15.959C226.089 16.0775 225.69 16.1367 225.28 16.1367C223.895 16.1367 223.188 15.4372 223.161 14.0381V10.0527H222.081V8.60352H223.161V6.78516H225.137ZM230.906 16.1367C229.822 16.1367 228.938 15.804 228.254 15.1387C227.575 14.4733 227.235 13.5869 227.235 12.4795V12.2881C227.235 11.5452 227.379 10.8822 227.666 10.2988C227.953 9.71094 228.359 9.25977 228.883 8.94531C229.411 8.6263 230.013 8.4668 230.688 8.4668C231.699 8.4668 232.494 8.78581 233.073 9.42383C233.657 10.0618 233.948 10.9665 233.948 12.1377V12.9443H229.238C229.302 13.4274 229.493 13.8148 229.812 14.1064C230.136 14.3981 230.544 14.5439 231.036 14.5439C231.797 14.5439 232.392 14.2682 232.82 13.7168L233.791 14.8037C233.495 15.223 233.094 15.5511 232.588 15.7881C232.082 16.0205 231.521 16.1367 230.906 16.1367ZM230.681 10.0664C230.289 10.0664 229.97 10.1986 229.724 10.4629C229.482 10.7272 229.327 11.1055 229.259 11.5977H232.007V11.4404C231.998 11.0029 231.879 10.6657 231.651 10.4287C231.424 10.1872 231.1 10.0664 230.681 10.0664ZM241.509 13.3135L242.479 8.60352H244.387L242.5 16H240.846L239.444 11.3447L238.043 16H236.396L234.509 8.60352H236.416L237.38 13.3066L238.733 8.60352H240.162L241.509 13.3135ZM249.657 16C249.566 15.8223 249.5 15.6012 249.459 15.3369C248.98 15.8701 248.358 16.1367 247.593 16.1367C246.868 16.1367 246.267 15.9271 245.788 15.5078C245.314 15.0885 245.077 14.5599 245.077 13.9219C245.077 13.138 245.367 12.5365 245.945 12.1172C246.529 11.6979 247.369 11.486 248.468 11.4814H249.377V11.0576C249.377 10.7158 249.288 10.4424 249.11 10.2373C248.937 10.0322 248.661 9.92969 248.283 9.92969C247.951 9.92969 247.688 10.0094 247.497 10.1689C247.31 10.3285 247.217 10.5472 247.217 10.8252H245.241C245.241 10.3968 245.373 10.0003 245.638 9.63574C245.902 9.27116 246.276 8.98633 246.759 8.78125C247.242 8.57161 247.784 8.4668 248.386 8.4668C249.297 8.4668 250.02 8.69694 250.553 9.15723C251.09 9.61296 251.359 10.2555 251.359 11.085V14.291C251.364 14.9928 251.462 15.5238 251.653 15.8838V16H249.657ZM248.023 14.626C248.315 14.626 248.584 14.5622 248.83 14.4346C249.076 14.3024 249.258 14.127 249.377 13.9082V12.6367H248.639C247.65 12.6367 247.123 12.9785 247.06 13.6621L247.053 13.7783C247.053 14.0244 247.139 14.2272 247.312 14.3867C247.486 14.5462 247.723 14.626 248.023 14.626ZM255.529 13.2041L256.896 8.60352H259.016L256.042 17.1484L255.878 17.5381C255.436 18.5042 254.707 18.9873 253.69 18.9873C253.403 18.9873 253.112 18.944 252.815 18.8574V17.3604L253.116 17.3672C253.49 17.3672 253.768 17.3102 253.95 17.1963C254.137 17.0824 254.283 16.8932 254.388 16.6289L254.62 16.0205L252.029 8.60352H254.155L255.529 13.2041Z" fill="black"/>
</g>
<defs>
<clipPath id="clip0">
<rect width="291" height="23" fill="white"/>
</clipPath>
</defs>
</svg>
