<svg width="292" height="23" viewBox="0 0 292 23" fill="none" xmlns="http://www.w3.org/2000/svg">
<g clip-path="url(#clip0)">
<rect x="152" width="117" height="23" rx="11.5" fill="#A6E48C"/>
<path d="M176.142 13.3887C176.142 13.0013 176.005 12.7051 175.731 12.5C175.458 12.2904 174.966 12.0716 174.255 11.8438C173.544 11.6113 172.981 11.3835 172.566 11.1602C171.436 10.5495 170.871 9.72689 170.871 8.69238C170.871 8.15462 171.021 7.67611 171.322 7.25684C171.628 6.83301 172.063 6.5026 172.628 6.26562C173.198 6.02865 173.836 5.91016 174.542 5.91016C175.253 5.91016 175.886 6.04004 176.442 6.2998C176.998 6.55501 177.429 6.91732 177.734 7.38672C178.044 7.85612 178.199 8.38932 178.199 8.98633H176.148C176.148 8.5306 176.005 8.17741 175.718 7.92676C175.431 7.67155 175.027 7.54395 174.508 7.54395C174.007 7.54395 173.617 7.65104 173.339 7.86523C173.061 8.07487 172.922 8.35286 172.922 8.69922C172.922 9.02279 173.084 9.29395 173.407 9.5127C173.735 9.73145 174.216 9.93652 174.85 10.1279C176.016 10.4788 176.866 10.9141 177.399 11.4336C177.933 11.9531 178.199 12.6003 178.199 13.375C178.199 14.2363 177.873 14.9131 177.222 15.4053C176.57 15.8929 175.693 16.1367 174.59 16.1367C173.824 16.1367 173.127 15.9977 172.498 15.7197C171.869 15.4372 171.388 15.0521 171.056 14.5645C170.728 14.0768 170.563 13.5117 170.563 12.8691H172.621C172.621 13.9674 173.277 14.5166 174.59 14.5166C175.077 14.5166 175.458 14.4186 175.731 14.2227C176.005 14.0221 176.142 13.7441 176.142 13.3887ZM182.868 16.1367C181.784 16.1367 180.899 15.804 180.216 15.1387C179.537 14.4733 179.197 13.5869 179.197 12.4795V12.2881C179.197 11.5452 179.341 10.8822 179.628 10.2988C179.915 9.71094 180.321 9.25977 180.845 8.94531C181.373 8.6263 181.975 8.4668 182.649 8.4668C183.661 8.4668 184.456 8.78581 185.035 9.42383C185.618 10.0618 185.91 10.9665 185.91 12.1377V12.9443H181.2C181.264 13.4274 181.455 13.8148 181.774 14.1064C182.098 14.3981 182.506 14.5439 182.998 14.5439C183.759 14.5439 184.354 14.2682 184.782 13.7168L185.753 14.8037C185.457 15.223 185.056 15.5511 184.55 15.7881C184.044 16.0205 183.483 16.1367 182.868 16.1367ZM182.643 10.0664C182.251 10.0664 181.932 10.1986 181.686 10.4629C181.444 10.7272 181.289 11.1055 181.221 11.5977H183.969V11.4404C183.96 11.0029 183.841 10.6657 183.613 10.4287C183.385 10.1872 183.062 10.0664 182.643 10.0664ZM191.194 10.4561C190.925 10.4196 190.688 10.4014 190.483 10.4014C189.736 10.4014 189.246 10.6543 189.014 11.1602V16H187.038V8.60352H188.904L188.959 9.48535C189.355 8.80632 189.905 8.4668 190.606 8.4668C190.825 8.4668 191.03 8.49642 191.222 8.55566L191.194 10.4561ZM195.043 13.5869L196.417 8.60352H198.481L195.986 16H194.1L191.604 8.60352H193.669L195.043 13.5869ZM201.441 16H199.459V8.60352H201.441V16ZM199.343 6.68945C199.343 6.39323 199.441 6.14941 199.637 5.95801C199.837 5.7666 200.108 5.6709 200.45 5.6709C200.787 5.6709 201.056 5.7666 201.257 5.95801C201.457 6.14941 201.558 6.39323 201.558 6.68945C201.558 6.99023 201.455 7.23633 201.25 7.42773C201.049 7.61914 200.783 7.71484 200.45 7.71484C200.118 7.71484 199.849 7.61914 199.644 7.42773C199.443 7.23633 199.343 6.99023 199.343 6.68945ZM206.151 14.5439C206.516 14.5439 206.812 14.4437 207.04 14.2432C207.268 14.0426 207.386 13.776 207.396 13.4434H209.248C209.243 13.9447 209.107 14.4049 208.838 14.8242C208.569 15.2389 208.2 15.5625 207.73 15.7949C207.266 16.0228 206.751 16.1367 206.186 16.1367C205.128 16.1367 204.294 15.8018 203.684 15.1318C203.073 14.4574 202.768 13.5277 202.768 12.3428V12.2129C202.768 11.0736 203.071 10.1644 203.677 9.48535C204.283 8.80632 205.115 8.4668 206.172 8.4668C207.097 8.4668 207.838 8.73112 208.394 9.25977C208.954 9.78385 209.239 10.4834 209.248 11.3584H207.396C207.386 10.9756 207.268 10.6657 207.04 10.4287C206.812 10.1872 206.511 10.0664 206.138 10.0664C205.677 10.0664 205.329 10.235 205.092 10.5723C204.859 10.9049 204.743 11.4473 204.743 12.1992V12.4043C204.743 13.1654 204.859 13.7122 205.092 14.0449C205.324 14.3776 205.677 14.5439 206.151 14.5439ZM213.78 16.1367C212.696 16.1367 211.812 15.804 211.128 15.1387C210.449 14.4733 210.109 13.5869 210.109 12.4795V12.2881C210.109 11.5452 210.253 10.8822 210.54 10.2988C210.827 9.71094 211.233 9.25977 211.757 8.94531C212.285 8.6263 212.887 8.4668 213.562 8.4668C214.573 8.4668 215.368 8.78581 215.947 9.42383C216.531 10.0618 216.822 10.9665 216.822 12.1377V12.9443H212.112C212.176 13.4274 212.368 13.8148 212.687 14.1064C213.01 14.3981 213.418 14.5439 213.91 14.5439C214.671 14.5439 215.266 14.2682 215.694 13.7168L216.665 14.8037C216.369 15.223 215.968 15.5511 215.462 15.7881C214.956 16.0205 214.396 16.1367 213.78 16.1367ZM213.555 10.0664C213.163 10.0664 212.844 10.1986 212.598 10.4629C212.356 10.7272 212.201 11.1055 212.133 11.5977H214.881V11.4404C214.872 11.0029 214.753 10.6657 214.525 10.4287C214.298 10.1872 213.974 10.0664 213.555 10.0664ZM224.068 11.6865H220.131V14.3525H224.752V16H218.08V6.04688H224.738V7.70801H220.131V10.0801H224.068V11.6865ZM227.644 8.60352L227.705 9.45801C228.234 8.7972 228.942 8.4668 229.831 8.4668C230.615 8.4668 231.198 8.69694 231.581 9.15723C231.964 9.61751 232.16 10.3057 232.169 11.2217V16H230.193V11.2695C230.193 10.8503 230.102 10.5472 229.92 10.3604C229.738 10.1689 229.435 10.0732 229.011 10.0732C228.455 10.0732 228.038 10.3102 227.76 10.7842V16H225.784V8.60352H227.644ZM236.038 6.78516V8.60352H237.303V10.0527H236.038V13.7441C236.038 14.0176 236.09 14.2135 236.195 14.332C236.3 14.4505 236.501 14.5098 236.797 14.5098C237.016 14.5098 237.209 14.4938 237.378 14.4619V15.959C236.991 16.0775 236.592 16.1367 236.182 16.1367C234.796 16.1367 234.09 15.4372 234.062 14.0381V10.0527H232.982V8.60352H234.062V6.78516H236.038ZM242.56 10.4561C242.291 10.4196 242.054 10.4014 241.849 10.4014C241.101 10.4014 240.611 10.6543 240.379 11.1602V16H238.403V8.60352H240.27L240.324 9.48535C240.721 8.80632 241.27 8.4668 241.972 8.4668C242.19 8.4668 242.396 8.49642 242.587 8.55566L242.56 10.4561ZM246.401 13.2041L247.769 8.60352H249.888L246.914 17.1484L246.75 17.5381C246.308 18.5042 245.579 18.9873 244.562 18.9873C244.275 18.9873 243.984 18.944 243.688 18.8574V17.3604L243.988 17.3672C244.362 17.3672 244.64 17.3102 244.822 17.1963C245.009 17.0824 245.155 16.8932 245.26 16.6289L245.492 16.0205L242.901 8.60352H245.027L246.401 13.2041Z" fill="black"/>
</g>
<defs>
<clipPath id="clip0">
<rect width="292" height="23" fill="white"/>
</clipPath>
</defs>
</svg>
