<svg width="291" height="23" viewBox="0 0 291 23" fill="none" xmlns="http://www.w3.org/2000/svg">
<g clip-path="url(#clip0)">
<rect x="174" width="117" height="23" rx="11.5" fill="#A0BFF9"/>
<path d="M191.955 13.5322L194.211 6.04688H196.494L193.028 16H190.889L187.437 6.04688H189.713L191.955 13.5322ZM199.393 16H197.41V8.60352H199.393V16ZM197.294 6.68945C197.294 6.39323 197.392 6.14941 197.588 5.95801C197.788 5.7666 198.06 5.6709 198.401 5.6709C198.739 5.6709 199.007 5.7666 199.208 5.95801C199.409 6.14941 199.509 6.39323 199.509 6.68945C199.509 6.99023 199.406 7.23633 199.201 7.42773C199.001 7.61914 198.734 7.71484 198.401 7.71484C198.069 7.71484 197.8 7.61914 197.595 7.42773C197.394 7.23633 197.294 6.99023 197.294 6.68945ZM205.183 10.4561C204.914 10.4196 204.677 10.4014 204.472 10.4014C203.724 10.4014 203.234 10.6543 203.002 11.1602V16H201.026V8.60352H202.893L202.947 9.48535C203.344 8.80632 203.893 8.4668 204.595 8.4668C204.813 8.4668 205.019 8.49642 205.21 8.55566L205.183 10.4561ZM208.847 6.78516V8.60352H210.111V10.0527H208.847V13.7441C208.847 14.0176 208.899 14.2135 209.004 14.332C209.109 14.4505 209.309 14.5098 209.605 14.5098C209.824 14.5098 210.018 14.4938 210.187 14.4619V15.959C209.799 16.0775 209.4 16.1367 208.99 16.1367C207.605 16.1367 206.898 15.4372 206.871 14.0381V10.0527H205.791V8.60352H206.871V6.78516H208.847ZM215.642 15.248C215.154 15.8405 214.479 16.1367 213.618 16.1367C212.825 16.1367 212.219 15.9089 211.8 15.4531C211.385 14.9974 211.173 14.3298 211.164 13.4502V8.60352H213.14V13.3818C213.14 14.152 213.491 14.5371 214.192 14.5371C214.862 14.5371 215.323 14.3047 215.573 13.8398V8.60352H217.556V16H215.696L215.642 15.248ZM223.332 16C223.241 15.8223 223.175 15.6012 223.134 15.3369C222.655 15.8701 222.033 16.1367 221.268 16.1367C220.543 16.1367 219.941 15.9271 219.463 15.5078C218.989 15.0885 218.752 14.5599 218.752 13.9219C218.752 13.138 219.041 12.5365 219.62 12.1172C220.203 11.6979 221.044 11.486 222.143 11.4814H223.052V11.0576C223.052 10.7158 222.963 10.4424 222.785 10.2373C222.612 10.0322 222.336 9.92969 221.958 9.92969C221.625 9.92969 221.363 10.0094 221.172 10.1689C220.985 10.3285 220.892 10.5472 220.892 10.8252H218.916C218.916 10.3968 219.048 10.0003 219.312 9.63574C219.577 9.27116 219.951 8.98633 220.434 8.78125C220.917 8.57161 221.459 8.4668 222.061 8.4668C222.972 8.4668 223.694 8.69694 224.228 9.15723C224.765 9.61296 225.034 10.2555 225.034 11.085V14.291C225.039 14.9928 225.137 15.5238 225.328 15.8838V16H223.332ZM221.698 14.626C221.99 14.626 222.259 14.5622 222.505 14.4346C222.751 14.3024 222.933 14.127 223.052 13.9082V12.6367H222.313C221.325 12.6367 220.798 12.9785 220.734 13.6621L220.728 13.7783C220.728 14.0244 220.814 14.2272 220.987 14.3867C221.16 14.5462 221.397 14.626 221.698 14.626ZM228.637 16H226.654V5.5H228.637V16ZM235.562 13.3887C235.562 13.0013 235.425 12.7051 235.151 12.5C234.878 12.2904 234.386 12.0716 233.675 11.8438C232.964 11.6113 232.401 11.3835 231.986 11.1602C230.856 10.5495 230.291 9.72689 230.291 8.69238C230.291 8.15462 230.441 7.67611 230.742 7.25684C231.048 6.83301 231.483 6.5026 232.048 6.26562C232.618 6.02865 233.256 5.91016 233.962 5.91016C234.673 5.91016 235.306 6.04004 235.862 6.2998C236.418 6.55501 236.849 6.91732 237.154 7.38672C237.464 7.85612 237.619 8.38932 237.619 8.98633H235.568C235.568 8.5306 235.425 8.17741 235.138 7.92676C234.851 7.67155 234.447 7.54395 233.928 7.54395C233.426 7.54395 233.037 7.65104 232.759 7.86523C232.481 8.07487 232.342 8.35286 232.342 8.69922C232.342 9.02279 232.504 9.29395 232.827 9.5127C233.155 9.73145 233.636 9.93652 234.27 10.1279C235.436 10.4788 236.286 10.9141 236.819 11.4336C237.353 11.9531 237.619 12.6003 237.619 13.375C237.619 14.2363 237.293 14.9131 236.642 15.4053C235.99 15.8929 235.113 16.1367 234.01 16.1367C233.244 16.1367 232.547 15.9977 231.918 15.7197C231.289 15.4372 230.808 15.0521 230.476 14.5645C230.147 14.0768 229.983 13.5117 229.983 12.8691H232.041C232.041 13.9674 232.697 14.5166 234.01 14.5166C234.497 14.5166 234.878 14.4186 235.151 14.2227C235.425 14.0221 235.562 13.7441 235.562 13.3887ZM242.288 16.1367C241.203 16.1367 240.319 15.804 239.636 15.1387C238.957 14.4733 238.617 13.5869 238.617 12.4795V12.2881C238.617 11.5452 238.761 10.8822 239.048 10.2988C239.335 9.71094 239.741 9.25977 240.265 8.94531C240.793 8.6263 241.395 8.4668 242.069 8.4668C243.081 8.4668 243.876 8.78581 244.455 9.42383C245.038 10.0618 245.33 10.9665 245.33 12.1377V12.9443H240.62C240.684 13.4274 240.875 13.8148 241.194 14.1064C241.518 14.3981 241.926 14.5439 242.418 14.5439C243.179 14.5439 243.774 14.2682 244.202 13.7168L245.173 14.8037C244.877 15.223 244.476 15.5511 243.97 15.7881C243.464 16.0205 242.903 16.1367 242.288 16.1367ZM242.062 10.0664C241.671 10.0664 241.352 10.1986 241.105 10.4629C240.864 10.7272 240.709 11.1055 240.641 11.5977H243.389V11.4404C243.38 11.0029 243.261 10.6657 243.033 10.4287C242.805 10.1872 242.482 10.0664 242.062 10.0664ZM250.614 10.4561C250.345 10.4196 250.108 10.4014 249.903 10.4014C249.156 10.4014 248.666 10.6543 248.434 11.1602V16H246.458V8.60352H248.324L248.379 9.48535C248.775 8.80632 249.325 8.4668 250.026 8.4668C250.245 8.4668 250.45 8.49642 250.642 8.55566L250.614 10.4561ZM254.463 13.5869L255.837 8.60352H257.901L255.406 16H253.52L251.024 8.60352H253.089L254.463 13.5869ZM260.861 16H258.879V8.60352H260.861V16ZM258.763 6.68945C258.763 6.39323 258.861 6.14941 259.057 5.95801C259.257 5.7666 259.528 5.6709 259.87 5.6709C260.207 5.6709 260.476 5.7666 260.677 5.95801C260.877 6.14941 260.978 6.39323 260.978 6.68945C260.978 6.99023 260.875 7.23633 260.67 7.42773C260.469 7.61914 260.203 7.71484 259.87 7.71484C259.537 7.71484 259.269 7.61914 259.063 7.42773C258.863 7.23633 258.763 6.99023 258.763 6.68945ZM265.571 14.5439C265.936 14.5439 266.232 14.4437 266.46 14.2432C266.688 14.0426 266.806 13.776 266.815 13.4434H268.668C268.663 13.9447 268.527 14.4049 268.258 14.8242C267.989 15.2389 267.62 15.5625 267.15 15.7949C266.686 16.0228 266.171 16.1367 265.605 16.1367C264.548 16.1367 263.714 15.8018 263.104 15.1318C262.493 14.4574 262.188 13.5277 262.188 12.3428V12.2129C262.188 11.0736 262.491 10.1644 263.097 9.48535C263.703 8.80632 264.535 8.4668 265.592 8.4668C266.517 8.4668 267.257 8.73112 267.813 9.25977C268.374 9.78385 268.659 10.4834 268.668 11.3584H266.815C266.806 10.9756 266.688 10.6657 266.46 10.4287C266.232 10.1872 265.931 10.0664 265.558 10.0664C265.097 10.0664 264.749 10.235 264.512 10.5723C264.279 10.9049 264.163 11.4473 264.163 12.1992V12.4043C264.163 13.1654 264.279 13.7122 264.512 14.0449C264.744 14.3776 265.097 14.5439 265.571 14.5439ZM273.2 16.1367C272.116 16.1367 271.231 15.804 270.548 15.1387C269.869 14.4733 269.529 13.5869 269.529 12.4795V12.2881C269.529 11.5452 269.673 10.8822 269.96 10.2988C270.247 9.71094 270.653 9.25977 271.177 8.94531C271.705 8.6263 272.307 8.4668 272.981 8.4668C273.993 8.4668 274.788 8.78581 275.367 9.42383C275.951 10.0618 276.242 10.9665 276.242 12.1377V12.9443H271.532C271.596 13.4274 271.787 13.8148 272.106 14.1064C272.43 14.3981 272.838 14.5439 273.33 14.5439C274.091 14.5439 274.686 14.2682 275.114 13.7168L276.085 14.8037C275.789 15.223 275.388 15.5511 274.882 15.7881C274.376 16.0205 273.815 16.1367 273.2 16.1367ZM272.975 10.0664C272.583 10.0664 272.264 10.1986 272.018 10.4629C271.776 10.7272 271.621 11.1055 271.553 11.5977H274.301V11.4404C274.292 11.0029 274.173 10.6657 273.945 10.4287C273.717 10.1872 273.394 10.0664 272.975 10.0664Z" fill="black"/>
</g>
<defs>
<clipPath id="clip0">
<rect width="291" height="23" fill="white"/>
</clipPath>
</defs>
</svg>
