<svg width="292" height="23" viewBox="0 0 292 23" fill="none" xmlns="http://www.w3.org/2000/svg">
<g clip-path="url(#clip0)">
<rect x="152" width="117" height="23" rx="11.5" fill="#A0BFF9"/>
<path d="M169.955 13.5322L172.211 6.04688H174.494L171.028 16H168.889L165.437 6.04688H167.713L169.955 13.5322ZM177.393 16H175.41V8.60352H177.393V16ZM175.294 6.68945C175.294 6.39323 175.392 6.14941 175.588 5.95801C175.788 5.7666 176.06 5.6709 176.401 5.6709C176.739 5.6709 177.007 5.7666 177.208 5.95801C177.409 6.14941 177.509 6.39323 177.509 6.68945C177.509 6.99023 177.406 7.23633 177.201 7.42773C177.001 7.61914 176.734 7.71484 176.401 7.71484C176.069 7.71484 175.8 7.61914 175.595 7.42773C175.394 7.23633 175.294 6.99023 175.294 6.68945ZM183.183 10.4561C182.914 10.4196 182.677 10.4014 182.472 10.4014C181.724 10.4014 181.234 10.6543 181.002 11.1602V16H179.026V8.60352H180.893L180.947 9.48535C181.344 8.80632 181.893 8.4668 182.595 8.4668C182.813 8.4668 183.019 8.49642 183.21 8.55566L183.183 10.4561ZM186.847 6.78516V8.60352H188.111V10.0527H186.847V13.7441C186.847 14.0176 186.899 14.2135 187.004 14.332C187.109 14.4505 187.309 14.5098 187.605 14.5098C187.824 14.5098 188.018 14.4938 188.187 14.4619V15.959C187.799 16.0775 187.4 16.1367 186.99 16.1367C185.605 16.1367 184.898 15.4372 184.871 14.0381V10.0527H183.791V8.60352H184.871V6.78516H186.847ZM193.642 15.248C193.154 15.8405 192.479 16.1367 191.618 16.1367C190.825 16.1367 190.219 15.9089 189.8 15.4531C189.385 14.9974 189.173 14.3298 189.164 13.4502V8.60352H191.14V13.3818C191.14 14.152 191.491 14.5371 192.192 14.5371C192.862 14.5371 193.323 14.3047 193.573 13.8398V8.60352H195.556V16H193.696L193.642 15.248ZM201.332 16C201.241 15.8223 201.175 15.6012 201.134 15.3369C200.655 15.8701 200.033 16.1367 199.268 16.1367C198.543 16.1367 197.941 15.9271 197.463 15.5078C196.989 15.0885 196.752 14.5599 196.752 13.9219C196.752 13.138 197.041 12.5365 197.62 12.1172C198.203 11.6979 199.044 11.486 200.143 11.4814H201.052V11.0576C201.052 10.7158 200.963 10.4424 200.785 10.2373C200.612 10.0322 200.336 9.92969 199.958 9.92969C199.625 9.92969 199.363 10.0094 199.172 10.1689C198.985 10.3285 198.892 10.5472 198.892 10.8252H196.916C196.916 10.3968 197.048 10.0003 197.312 9.63574C197.577 9.27116 197.951 8.98633 198.434 8.78125C198.917 8.57161 199.459 8.4668 200.061 8.4668C200.972 8.4668 201.694 8.69694 202.228 9.15723C202.765 9.61296 203.034 10.2555 203.034 11.085V14.291C203.039 14.9928 203.137 15.5238 203.328 15.8838V16H201.332ZM199.698 14.626C199.99 14.626 200.259 14.5622 200.505 14.4346C200.751 14.3024 200.933 14.127 201.052 13.9082V12.6367H200.313C199.325 12.6367 198.798 12.9785 198.734 13.6621L198.728 13.7783C198.728 14.0244 198.814 14.2272 198.987 14.3867C199.16 14.5462 199.397 14.626 199.698 14.626ZM206.637 16H204.654V5.5H206.637V16ZM213.562 13.3887C213.562 13.0013 213.425 12.7051 213.151 12.5C212.878 12.2904 212.386 12.0716 211.675 11.8438C210.964 11.6113 210.401 11.3835 209.986 11.1602C208.856 10.5495 208.291 9.72689 208.291 8.69238C208.291 8.15462 208.441 7.67611 208.742 7.25684C209.048 6.83301 209.483 6.5026 210.048 6.26562C210.618 6.02865 211.256 5.91016 211.962 5.91016C212.673 5.91016 213.306 6.04004 213.862 6.2998C214.418 6.55501 214.849 6.91732 215.154 7.38672C215.464 7.85612 215.619 8.38932 215.619 8.98633H213.568C213.568 8.5306 213.425 8.17741 213.138 7.92676C212.851 7.67155 212.447 7.54395 211.928 7.54395C211.426 7.54395 211.037 7.65104 210.759 7.86523C210.481 8.07487 210.342 8.35286 210.342 8.69922C210.342 9.02279 210.504 9.29395 210.827 9.5127C211.155 9.73145 211.636 9.93652 212.27 10.1279C213.436 10.4788 214.286 10.9141 214.819 11.4336C215.353 11.9531 215.619 12.6003 215.619 13.375C215.619 14.2363 215.293 14.9131 214.642 15.4053C213.99 15.8929 213.113 16.1367 212.01 16.1367C211.244 16.1367 210.547 15.9977 209.918 15.7197C209.289 15.4372 208.808 15.0521 208.476 14.5645C208.147 14.0768 207.983 13.5117 207.983 12.8691H210.041C210.041 13.9674 210.697 14.5166 212.01 14.5166C212.497 14.5166 212.878 14.4186 213.151 14.2227C213.425 14.0221 213.562 13.7441 213.562 13.3887ZM220.288 16.1367C219.203 16.1367 218.319 15.804 217.636 15.1387C216.957 14.4733 216.617 13.5869 216.617 12.4795V12.2881C216.617 11.5452 216.761 10.8822 217.048 10.2988C217.335 9.71094 217.741 9.25977 218.265 8.94531C218.793 8.6263 219.395 8.4668 220.069 8.4668C221.081 8.4668 221.876 8.78581 222.455 9.42383C223.038 10.0618 223.33 10.9665 223.33 12.1377V12.9443H218.62C218.684 13.4274 218.875 13.8148 219.194 14.1064C219.518 14.3981 219.926 14.5439 220.418 14.5439C221.179 14.5439 221.774 14.2682 222.202 13.7168L223.173 14.8037C222.877 15.223 222.476 15.5511 221.97 15.7881C221.464 16.0205 220.903 16.1367 220.288 16.1367ZM220.062 10.0664C219.671 10.0664 219.352 10.1986 219.105 10.4629C218.864 10.7272 218.709 11.1055 218.641 11.5977H221.389V11.4404C221.38 11.0029 221.261 10.6657 221.033 10.4287C220.805 10.1872 220.482 10.0664 220.062 10.0664ZM228.614 10.4561C228.345 10.4196 228.108 10.4014 227.903 10.4014C227.156 10.4014 226.666 10.6543 226.434 11.1602V16H224.458V8.60352H226.324L226.379 9.48535C226.775 8.80632 227.325 8.4668 228.026 8.4668C228.245 8.4668 228.45 8.49642 228.642 8.55566L228.614 10.4561ZM232.463 13.5869L233.837 8.60352H235.901L233.406 16H231.52L229.024 8.60352H231.089L232.463 13.5869ZM238.861 16H236.879V8.60352H238.861V16ZM236.763 6.68945C236.763 6.39323 236.861 6.14941 237.057 5.95801C237.257 5.7666 237.528 5.6709 237.87 5.6709C238.207 5.6709 238.476 5.7666 238.677 5.95801C238.877 6.14941 238.978 6.39323 238.978 6.68945C238.978 6.99023 238.875 7.23633 238.67 7.42773C238.469 7.61914 238.203 7.71484 237.87 7.71484C237.537 7.71484 237.269 7.61914 237.063 7.42773C236.863 7.23633 236.763 6.99023 236.763 6.68945ZM243.571 14.5439C243.936 14.5439 244.232 14.4437 244.46 14.2432C244.688 14.0426 244.806 13.776 244.815 13.4434H246.668C246.663 13.9447 246.527 14.4049 246.258 14.8242C245.989 15.2389 245.62 15.5625 245.15 15.7949C244.686 16.0228 244.171 16.1367 243.605 16.1367C242.548 16.1367 241.714 15.8018 241.104 15.1318C240.493 14.4574 240.188 13.5277 240.188 12.3428V12.2129C240.188 11.0736 240.491 10.1644 241.097 9.48535C241.703 8.80632 242.535 8.4668 243.592 8.4668C244.517 8.4668 245.257 8.73112 245.813 9.25977C246.374 9.78385 246.659 10.4834 246.668 11.3584H244.815C244.806 10.9756 244.688 10.6657 244.46 10.4287C244.232 10.1872 243.931 10.0664 243.558 10.0664C243.097 10.0664 242.749 10.235 242.512 10.5723C242.279 10.9049 242.163 11.4473 242.163 12.1992V12.4043C242.163 13.1654 242.279 13.7122 242.512 14.0449C242.744 14.3776 243.097 14.5439 243.571 14.5439ZM251.2 16.1367C250.116 16.1367 249.231 15.804 248.548 15.1387C247.869 14.4733 247.529 13.5869 247.529 12.4795V12.2881C247.529 11.5452 247.673 10.8822 247.96 10.2988C248.247 9.71094 248.653 9.25977 249.177 8.94531C249.705 8.6263 250.307 8.4668 250.981 8.4668C251.993 8.4668 252.788 8.78581 253.367 9.42383C253.951 10.0618 254.242 10.9665 254.242 12.1377V12.9443H249.532C249.596 13.4274 249.787 13.8148 250.106 14.1064C250.43 14.3981 250.838 14.5439 251.33 14.5439C252.091 14.5439 252.686 14.2682 253.114 13.7168L254.085 14.8037C253.789 15.223 253.388 15.5511 252.882 15.7881C252.376 16.0205 251.815 16.1367 251.2 16.1367ZM250.975 10.0664C250.583 10.0664 250.264 10.1986 250.018 10.4629C249.776 10.7272 249.621 11.1055 249.553 11.5977H252.301V11.4404C252.292 11.0029 252.173 10.6657 251.945 10.4287C251.717 10.1872 251.394 10.0664 250.975 10.0664Z" fill="black"/>
</g>
<defs>
<clipPath id="clip0">
<rect width="292" height="23" fill="white"/>
</clipPath>
</defs>
</svg>
