<svg width="306" height="23" viewBox="0 0 306 23" fill="none" xmlns="http://www.w3.org/2000/svg">
<g clip-path="url(#clip0)">
<rect x="165" width="117" height="23" rx="11.5" fill="#A0BFF9"/>
<path d="M182.955 13.5322L185.211 6.04688H187.494L184.028 16H181.889L178.437 6.04688H180.713L182.955 13.5322ZM190.393 16H188.41V8.60352H190.393V16ZM188.294 6.68945C188.294 6.39323 188.392 6.14941 188.588 5.95801C188.788 5.7666 189.06 5.6709 189.401 5.6709C189.739 5.6709 190.007 5.7666 190.208 5.95801C190.409 6.14941 190.509 6.39323 190.509 6.68945C190.509 6.99023 190.406 7.23633 190.201 7.42773C190.001 7.61914 189.734 7.71484 189.401 7.71484C189.069 7.71484 188.8 7.61914 188.595 7.42773C188.394 7.23633 188.294 6.99023 188.294 6.68945ZM196.183 10.4561C195.914 10.4196 195.677 10.4014 195.472 10.4014C194.724 10.4014 194.234 10.6543 194.002 11.1602V16H192.026V8.60352H193.893L193.947 9.48535C194.344 8.80632 194.893 8.4668 195.595 8.4668C195.813 8.4668 196.019 8.49642 196.21 8.55566L196.183 10.4561ZM199.847 6.78516V8.60352H201.111V10.0527H199.847V13.7441C199.847 14.0176 199.899 14.2135 200.004 14.332C200.109 14.4505 200.309 14.5098 200.605 14.5098C200.824 14.5098 201.018 14.4938 201.187 14.4619V15.959C200.799 16.0775 200.4 16.1367 199.99 16.1367C198.605 16.1367 197.898 15.4372 197.871 14.0381V10.0527H196.791V8.60352H197.871V6.78516H199.847ZM206.642 15.248C206.154 15.8405 205.479 16.1367 204.618 16.1367C203.825 16.1367 203.219 15.9089 202.8 15.4531C202.385 14.9974 202.173 14.3298 202.164 13.4502V8.60352H204.14V13.3818C204.14 14.152 204.491 14.5371 205.192 14.5371C205.862 14.5371 206.323 14.3047 206.573 13.8398V8.60352H208.556V16H206.696L206.642 15.248ZM214.332 16C214.241 15.8223 214.175 15.6012 214.134 15.3369C213.655 15.8701 213.033 16.1367 212.268 16.1367C211.543 16.1367 210.941 15.9271 210.463 15.5078C209.989 15.0885 209.752 14.5599 209.752 13.9219C209.752 13.138 210.041 12.5365 210.62 12.1172C211.203 11.6979 212.044 11.486 213.143 11.4814H214.052V11.0576C214.052 10.7158 213.963 10.4424 213.785 10.2373C213.612 10.0322 213.336 9.92969 212.958 9.92969C212.625 9.92969 212.363 10.0094 212.172 10.1689C211.985 10.3285 211.892 10.5472 211.892 10.8252H209.916C209.916 10.3968 210.048 10.0003 210.312 9.63574C210.577 9.27116 210.951 8.98633 211.434 8.78125C211.917 8.57161 212.459 8.4668 213.061 8.4668C213.972 8.4668 214.694 8.69694 215.228 9.15723C215.765 9.61296 216.034 10.2555 216.034 11.085V14.291C216.039 14.9928 216.137 15.5238 216.328 15.8838V16H214.332ZM212.698 14.626C212.99 14.626 213.259 14.5622 213.505 14.4346C213.751 14.3024 213.933 14.127 214.052 13.9082V12.6367H213.313C212.325 12.6367 211.798 12.9785 211.734 13.6621L211.728 13.7783C211.728 14.0244 211.814 14.2272 211.987 14.3867C212.16 14.5462 212.397 14.626 212.698 14.626ZM219.637 16H217.654V5.5H219.637V16ZM226.562 13.3887C226.562 13.0013 226.425 12.7051 226.151 12.5C225.878 12.2904 225.386 12.0716 224.675 11.8438C223.964 11.6113 223.401 11.3835 222.986 11.1602C221.856 10.5495 221.291 9.72689 221.291 8.69238C221.291 8.15462 221.441 7.67611 221.742 7.25684C222.048 6.83301 222.483 6.5026 223.048 6.26562C223.618 6.02865 224.256 5.91016 224.962 5.91016C225.673 5.91016 226.306 6.04004 226.862 6.2998C227.418 6.55501 227.849 6.91732 228.154 7.38672C228.464 7.85612 228.619 8.38932 228.619 8.98633H226.568C226.568 8.5306 226.425 8.17741 226.138 7.92676C225.851 7.67155 225.447 7.54395 224.928 7.54395C224.426 7.54395 224.037 7.65104 223.759 7.86523C223.481 8.07487 223.342 8.35286 223.342 8.69922C223.342 9.02279 223.504 9.29395 223.827 9.5127C224.155 9.73145 224.636 9.93652 225.27 10.1279C226.436 10.4788 227.286 10.9141 227.819 11.4336C228.353 11.9531 228.619 12.6003 228.619 13.375C228.619 14.2363 228.293 14.9131 227.642 15.4053C226.99 15.8929 226.113 16.1367 225.01 16.1367C224.244 16.1367 223.547 15.9977 222.918 15.7197C222.289 15.4372 221.808 15.0521 221.476 14.5645C221.147 14.0768 220.983 13.5117 220.983 12.8691H223.041C223.041 13.9674 223.697 14.5166 225.01 14.5166C225.497 14.5166 225.878 14.4186 226.151 14.2227C226.425 14.0221 226.562 13.7441 226.562 13.3887ZM233.288 16.1367C232.203 16.1367 231.319 15.804 230.636 15.1387C229.957 14.4733 229.617 13.5869 229.617 12.4795V12.2881C229.617 11.5452 229.761 10.8822 230.048 10.2988C230.335 9.71094 230.741 9.25977 231.265 8.94531C231.793 8.6263 232.395 8.4668 233.069 8.4668C234.081 8.4668 234.876 8.78581 235.455 9.42383C236.038 10.0618 236.33 10.9665 236.33 12.1377V12.9443H231.62C231.684 13.4274 231.875 13.8148 232.194 14.1064C232.518 14.3981 232.926 14.5439 233.418 14.5439C234.179 14.5439 234.774 14.2682 235.202 13.7168L236.173 14.8037C235.877 15.223 235.476 15.5511 234.97 15.7881C234.464 16.0205 233.903 16.1367 233.288 16.1367ZM233.062 10.0664C232.671 10.0664 232.352 10.1986 232.105 10.4629C231.864 10.7272 231.709 11.1055 231.641 11.5977H234.389V11.4404C234.38 11.0029 234.261 10.6657 234.033 10.4287C233.805 10.1872 233.482 10.0664 233.062 10.0664ZM241.614 10.4561C241.345 10.4196 241.108 10.4014 240.903 10.4014C240.156 10.4014 239.666 10.6543 239.434 11.1602V16H237.458V8.60352H239.324L239.379 9.48535C239.775 8.80632 240.325 8.4668 241.026 8.4668C241.245 8.4668 241.45 8.49642 241.642 8.55566L241.614 10.4561ZM245.463 13.5869L246.837 8.60352H248.901L246.406 16H244.52L242.024 8.60352H244.089L245.463 13.5869ZM251.861 16H249.879V8.60352H251.861V16ZM249.763 6.68945C249.763 6.39323 249.861 6.14941 250.057 5.95801C250.257 5.7666 250.528 5.6709 250.87 5.6709C251.207 5.6709 251.476 5.7666 251.677 5.95801C251.877 6.14941 251.978 6.39323 251.978 6.68945C251.978 6.99023 251.875 7.23633 251.67 7.42773C251.469 7.61914 251.203 7.71484 250.87 7.71484C250.537 7.71484 250.269 7.61914 250.063 7.42773C249.863 7.23633 249.763 6.99023 249.763 6.68945ZM256.571 14.5439C256.936 14.5439 257.232 14.4437 257.46 14.2432C257.688 14.0426 257.806 13.776 257.815 13.4434H259.668C259.663 13.9447 259.527 14.4049 259.258 14.8242C258.989 15.2389 258.62 15.5625 258.15 15.7949C257.686 16.0228 257.171 16.1367 256.605 16.1367C255.548 16.1367 254.714 15.8018 254.104 15.1318C253.493 14.4574 253.188 13.5277 253.188 12.3428V12.2129C253.188 11.0736 253.491 10.1644 254.097 9.48535C254.703 8.80632 255.535 8.4668 256.592 8.4668C257.517 8.4668 258.257 8.73112 258.813 9.25977C259.374 9.78385 259.659 10.4834 259.668 11.3584H257.815C257.806 10.9756 257.688 10.6657 257.46 10.4287C257.232 10.1872 256.931 10.0664 256.558 10.0664C256.097 10.0664 255.749 10.235 255.512 10.5723C255.279 10.9049 255.163 11.4473 255.163 12.1992V12.4043C255.163 13.1654 255.279 13.7122 255.512 14.0449C255.744 14.3776 256.097 14.5439 256.571 14.5439ZM264.2 16.1367C263.116 16.1367 262.231 15.804 261.548 15.1387C260.869 14.4733 260.529 13.5869 260.529 12.4795V12.2881C260.529 11.5452 260.673 10.8822 260.96 10.2988C261.247 9.71094 261.653 9.25977 262.177 8.94531C262.705 8.6263 263.307 8.4668 263.981 8.4668C264.993 8.4668 265.788 8.78581 266.367 9.42383C266.951 10.0618 267.242 10.9665 267.242 12.1377V12.9443H262.532C262.596 13.4274 262.787 13.8148 263.106 14.1064C263.43 14.3981 263.838 14.5439 264.33 14.5439C265.091 14.5439 265.686 14.2682 266.114 13.7168L267.085 14.8037C266.789 15.223 266.388 15.5511 265.882 15.7881C265.376 16.0205 264.815 16.1367 264.2 16.1367ZM263.975 10.0664C263.583 10.0664 263.264 10.1986 263.018 10.4629C262.776 10.7272 262.621 11.1055 262.553 11.5977H265.301V11.4404C265.292 11.0029 265.173 10.6657 264.945 10.4287C264.717 10.1872 264.394 10.0664 263.975 10.0664Z" fill="black"/>
</g>
<defs>
<clipPath id="clip0">
<rect width="306" height="23" fill="white"/>
</clipPath>
</defs>
</svg>
