<svg xmlns="http://www.w3.org/2000/svg" width="309" height="274" viewBox="0 0 309 274"><title>portrait</title><g fill="none" fill-rule="evenodd" stroke="#000" stroke-width="2"><path d="m4.512 1-.303 4.828-.302 4.828 3.93 4.829L9.653 18.2M14.187 21.822l2.721-4.225 2.116-4.527-1.814-3.017.605-5.13 2.419-.905-2.419 1.207M21.443 1.604l-1.21 5.13 3.629 6.035.907 4.828-1.21 4.526-1.209 4.527.605 4.828-.907 5.13-1.21 4.828 5.443-3.017M27.49 36.91v5.13l.907 4.828M35.049 46.566l4.837-3.018 2.42 4.225 1.813 3.621 3.326-5.431M57.725 31.478l4.838 3.018M64.981 40.833l-2.418 4.828 2.418 5.432-2.116 5.13M61.656 66.18l2.72 3.018 3.629 5.432M73.145 70.104v4.828l.907 4.828.605 5.13-.907 4.828-1.512 4.828-1.814 7.544M75.564 102.392l1.814-4.828-2.117.603M80.704 99.374l-1.512 4.829M81.913 106.315l-3.326-5.432.605-.603 2.72-4.828v-4.829l-1.208-4.828-2.117-4.526v-5.13l.907-5.13 1.21-4.828 1.814-4.829 1.814-4.828-1.814-4.828 1.209-4.828-6.652-3.018M78.285 46.566l4.837-.603"/><path d="m77.378 49.584.604-2.113-4.232-2.112 1.511 5.13M73.447 51.696l-.907-4.828M71.633 45.963l-1.21 4.828 2.42 4.526 3.628 4.828-7.257 5.13M74.354 65.275l-3.023 4.829.302 4.828-1.512 4.526M74.657 80.363l5.14 6.036v1.207M82.518 97.564l-.605 5.13 1.512.302v4.224l2.116 4.527h1.21l1.209.905 5.14 3.621"/><path d="m90.983 110.54 1.814-1.207-1.209 3.017 2.419 1.207-1.512 4.527 2.419 4.828 2.419 4.828.604 5.13 2.117 5.13 1.21 5.13-.303 4.828 1.512 4.828.604 4.527h.907l1.21 7.846.604 4.828 1.21 4.828.302 6.035 1.814 2.414 1.21 4.527 3.023 4.828 2.419 4.225 3.628 4.828 2.117 4.526 3.628 4.828 3.326 4.225 6.047 3.923-2.42 2.716-.604 6.035M127.568 224.606l-4.838-3.018M139.36 226.416l5.441 4.828M151.453 230.943l-6.652-4.225-2.116-2.414 3.628-5.13.907 1.207M160.523 224.907l4.838 4.829M168.99 230.037l-5.745-.301-.907 1.207.604-4.527M176.85 222.795l4.838 1.207M191.363 230.34v4.827l.302 4.527M186.223 238.487l1.814-4.828 3.326-4.527 2.419-6.035.604-4.225 2.722-3.62-1.21-4.527M197.712 204.69l4.536 1.81 5.14-2.112M211.318 206.198l4.233 2.414 1.512 5.13M225.226 212.233l-.907-4.828-3.326-1.81-5.442-4.527v-4.828l.302-4.828v-9.656l-.302-4.527-.605-4.526 5.442-4.829-.604-2.715-.605-4.829 1.814-.301-4.233-4.829M221.9 145.544l2.117 4.828.604 5.13.303 4.828.604 4.829 1.814 4.828 1.21 5.13.605 4.526M223.714 178.134l.907 4.829 1.814 4.526 1.21 4.828 2.116 5.13 2.419 4.828-1.21 4.829v4.526l1.21 4.828v4.828"/><path d="m235.808 225.21-5.442-5.13-.907-4.829-.605-5.13.303-5.13.604-9.053M222.505 197.447l.302 5.13M221.9 209.216l-1.814-7.242.302-5.13-2.418-2.414v-5.13M210.713 182.66l1.21 4.829.302 4.828v9.355l-1.512 4.828 3.326 4.828"/><path d="m223.412 217.363-4.838-4.526v-4.828l-1.209-7.846v-4.828l-.605-4.828 1.814-7.544-.604-4.829-.907-4.828 1.209-2.414-6.652 7.242-5.744 5.13 3.023-6.337.907-4.828-.604.905M218.877 172.703l1.814 5.13.302 4.526M222.505 175.72l-.302 5.13 1.209 4.828 1.21 5.13.906 5.13 1.21 4.829v4.828l-.303 4.828M205.271 210.725l-.907-4.829.605-5.13-3.024-.905-4.535 1.207v3.018M194.386 217.363l3.629 2.415.302 4.828 2.419 4.828 2.419 4.526 1.209 4.829 2.419 4.526.302 4.526 1.814 4.829-3.326 7.845 2.117-1.207 4.837 5.432 4.838 5.432M226.435 263.533l4.838.905h2.419M222.505 248.143l-4.838-5.733-4.837-5.13-4.838-2.414"/><path d="m207.992 233.659 6.652 4.828 3.326 4.828 3.628 4.828 3.93 4.828 1.21 4.829 1.814 2.414 5.442 4.828 3.93 4.828M212.527 247.54l-3.023-4.527-1.814-4.828-1.814-5.13-2.117-4.526-3.628-4.829-5.745-3.922M176.246 209.82h-4.838M170.803 206.198l4.838-1.207 5.14-1.81 4.233 2.414-4.838 3.017 6.35-3.923"/><path d="m173.524 204.69-2.418 4.828 3.023 3.017M176.246 193.524l-5.14-.603M185.014 191.714l1.814-4.527 4.233-3.923 6.047-4.828.907-6.337-7.257-4.828-3.93-1.207 1.512-4.828v4.224"/><path d="m189.247 165.762 4.535 2.414 4.837 4.225M198.62 167.874l-4.838-1.508-4.838-2.716M187.735 174.815l4.837.905 4.838-.603M195.898 179.341l-4.837 3.018-4.536 1.81h-4.535l-4.837.604-5.443.604-5.442.301h-4.837l-4.838 1.51-5.14-2.415M148.43 183.566h4.837l4.838-2.414-.907-.302-3.93-2.112 4.837-6.035"/><path d="m158.71 169.383-3.629 4.828.605 1.51-4.838 5.733-2.116 2.414 7.861 4.828 5.442 5.734 3.024.603h4.837l4.838.604 4.837-.604 4.838-2.414 5.14-3.32M197.41 184.17l4.838.603M195.294 181.454l-1.815 5.13-1.209 4.828-1.512 4.828-.907.302M174.432 172.703l4.837-3.018 5.14-.302 1.512-4.526 4.837-5.13M189.549 139.509l4.837 6.035 5.14 1.81 4.838.604 4.838-.905 4.837-1.207 5.14-3.621 5.14-6.036 8.466-7.242-1.21 5.13.907 4.828v4.828l2.117 6.941"/><path d="m233.087 135.888.605-3.621 1.512-3.32 3.93-3.621 4.838 2.112 2.72 2.113M250.623 139.81l4.536-.603 1.209 6.337 7.861-1.207-2.721 4.828-4.233-3.017 4.838-3.018M259.996 150.976h4.838l4.837-.604M273.3 152.786l-3.024-2.112-.605-5.733 2.117-.604 4.837-3.32-2.116-3.922-4.233-8.45 3.023-3.62-2.418-5.432-.303-4.829h-3.023l-1.21-.603-1.814-4.527 1.814-5.431-4.535-.604-2.116-2.112-3.024-3.923-3.023-4.527-1.21 2.716-3.93-2.716 5.744-2.414-5.442.302"/><path d="m248.507 82.476-2.419 4.828-3.023 8.148-7.861 6.035-1.815 5.13 2.117 4.828-.605 4.828-3.628 4.828-1.814 5.13-.605 5.13.605 4.527.605 5.13.604 4.526-1.814 4.828.303 4.828v4.527l.604 4.828.605 4.828 1.21 4.828.906 4.527.605 4.526-1.814 5.13 1.512 4.828-.303 5.13v4.829l1.21 3.62.907 4.829.605 5.13v4.828l2.72 4.225 3.024-1.207 4.838 5.13 5.14 3.017 4.837 4.225 4.838 6.337 5.14 2.414 4.837 1.207 4.536-1.207h4.837l4.838 2.414"/><path d="m280.556 244.824 4.837 4.828 1.512 5.13 1.21 4.828v4.828l.604 5.13.605 4.527M290.533 262.024l4.535-.302 4.838-.603 4.838-.302M300.813 262.326l4.838 1.81 4.837 1.208M307.162 253.273h-1.511l.604-4.526 5.443-1.207v-2.414l-4.838.603"/><path d="m299.301 244.22 3.629 4.527 1.209 11.467 1.814 4.224M302.023 257.498l-4.838-.905"/><path d="m297.487 255.084 5.14-.604.605 1.207 4.837 2.414M209.202 255.989l-4.838-3.018-5.14-.301-4.535 6.035-4.838 4.828-6.047 4.828-5.14 6.337"/><path d="m185.316 271.379 4.838-4.828 6.349-4.829"/><path d="m203.457 262.93-4.838-.604-4.837 3.018-4.535 3.017-4.838 4.828h-2.721l-1.21-1.81 3.629-5.13 8.465-5.13 3.93-4.526 3.024-4.829M201.038 251.463l6.047 4.828 1.814 5.431 4.233 5.13 3.326 4.527 2.419 1.207M155.081 272.284l-6.047-3.017-4.837-.604-7.861-2.112h-4.838l-3.023 4.828-4.838-6.639-2.116-3.018-4.838-.603-6.047 2.112-4.838 2.414-5.14 4.527-3.023.603 5.442-2.414 5.14-5.431 3.024-2.113-1.21-5.432-.604-2.414-7.257-2.715-.604-4.829-3.326-2.414-4.233-3.62-.605-5.433 6.652-4.828 3.93-4.828 1.21-5.13 1.511-4.828-.302-4.828.302-4.527v-9.656l.303-4.828-1.814-3.622-4.233-5.13-4.535-4.828V172.1l-4.233-1.509M89.17 170.289l.302 4.828 1.209 4.526 1.512 4.828"/><path d="m91.286 179.643.604-8.147 2.117-2.716.907-4.828-2.419-1.811M90.076 167.573l1.21-3.018-3.024 1.81-1.512 5.13v4.829l2.117 5.13 1.814 4.828M99.147 188.696l1.21 5.13 1.813.604 6.047-3.923 5.14 7.845 4.838 6.64 4.535 5.13 3.93 6.336 5.443 4.225 3.628 3.621 5.14 2.716 4.837 4.224 5.443 2.716 4.837 1.81 4.838.303h4.837l4.838-.302h4.838l4.535-.604 4.837-2.414 4.838-1.207 3.023-5.13 7.861-2.414 4.536 8.751 4.837 10.864 2.117 3.62M153.57 269.87l-4.838-2.112-5.14-1.207-4.838 1.207-3.325 6.337 2.116-4.828M142.08 268.06l4.233 4.828M126.66 275l3.024-4.828-1.512-4.828h-2.116M122.125 274.698l-5.14-3.62-2.116 1.206-2.419-1.509-2.419.604v1.81l3.024.906.604-4.828M112.752 264.137l-1.511 4.828-4.233-1.81-4.233 6.034 2.721-1.508 1.21-1.811 2.418-4.828 6.954-2.414 3.024 4.224M82.215 265.645l-4.535-6.638M75.564 260.515l-1.814 3.923 1.209 1.207M90.379 270.172l-.605-.302-3.628-1.207-4.233 1.207-1.21 4.526.605-4.828-.907-5.13-3.023-2.112 1.511-6.035-.604-5.734-.605-4.828.605-5.733-1.21-5.734-1.814 8.45M80.099 220.683l4.837 5.733 4.838 7.243 4.838-1.207 4.837-3.32 4.838-6.035"/><path d="m93.705 214.346-.605-1.81-4.838 1.81-4.837 2.414-3.93-.604-6.048 3.018-4.535 2.414-5.14-3.018.605-4.828 1.511-4.828-1.209-6.639.907-4.828-1.512-4.828-.604-4.828.907-4.828-.605-4.829.605-6.035-1.814-4.526 2.72-4.829.303-4.828 3.628-4.828 4.536-.603-.605-4.527 1.512-4.828 1.209-4.828 2.419-4.828-1.814-4.829v-10.26l-.303-4.828-1.511-3.32-1.815-5.13 2.42-3.922-1.21-.604-.302-5.13-1.21-6.035.605-4.526-4.535-4.828 1.209-7.544-.605-4.829 1.512-2.414 3.93-.603-1.209-4.828 6.35-2.414-1.21-4.527 3.024-4.828-.605-4.828 4.233-2.414 1.21-4.527 3.325-3.621-.605-4.828-2.419-7.846-1.209-4.828-.302-4.828-2.419-7.846-4.838 2.414"/><path d="M77.378 2.509v4.526l.604 4.527.907 4.828 2.117 4.828-1.21 2.716 4.536 3.621 3.023 5.432 3.628.302 2.722-3.622 2.116-3.319 3.326 6.337M103.077 21.218l4.838 6.035 4.837-1.207M113.962 23.934v-6.035l-5.14-1.81-.605-4.527 2.117-5.13-1.21-1.81-4.837-1.811"/><path d="m101.263 2.81 4.838 5.734 3.023 4.225 3.024-3.32v5.432l.302 4.225"/><path d="m115.171 11.562 1.814-7.243-7.558-.905-4.233 7.846-2.419-1.207-1.512-.905V6.432"/><path d="m98.844 8.544 2.722-3.621-3.024 3.621 2.419 4.526 4.233 3.622 4.535 4.526M104.287 25.744 99.75 17.9M99.45 16.692l4.837 5.733 4.233 4.828M98.24 37.815l-4.838 3.923 1.814-1.81 3.628-5.13 2.117-4.527.302-4.828-5.14-1.207 3.628-2.113-2.116-4.828-2.721-5.13-2.721-3.62-.605-3.32 1.512-.302-1.814-2.414"/><path d="M97.333 3.716h-2.117l.605 4.828 3.023 4.828.605 4.527 1.814 5.13 3.628 5.431M90.681 33.892l.605-4.828-4.536-3.018M85.239 38.117l4.837 4.828M109.427 56.222v11.166l-3.024 4.828-1.512 4.526-1.511 2.414M106.1 80.363l4.838-7.845 2.117-1.811-4.233 4.828-2.721 4.828-1.21 4.829-1.209 4.828-1.21 4.828"/><path d="m101.566 99.073 2.418-9.657 5.14-5.431M110.636 81.872l-3.023 5.13 2.116.604-3.628 6.035-2.721 4.828.604 2.716-2.72 4.828v4.828l1.209 3.923 6.047.604 4.837 7.242 2.419 4.828.907 4.829 1.814 4.828 2.117 5.13 3.023 4.828 6.047 4.828"/><path d="m119.706 134.982 4.838 9.657 4.838 4.224 4.837 1.811 4.838.905h4.837l4.838-1.207 4.535-1.81 4.838-3.621 4.837-6.036"/><path d="m170.199 130.758-4.536 9.053-5.14 6.638-5.14 3.018-4.837 2.414-5.14.905-4.838.604-4.837-.604-4.535-1.508-4.838-2.716-4.535-3.923-5.14-10.26M107.915 118.385l-4.838-2.715M101.868 115.368l-.605 3.32-.302 4.526-1.21 4.828 1.21 4.828.907 4.526.302 4.829 1.814 4.828 2.42 4.828 1.813 4.828M96.123 169.081l4.233-.603 1.21 4.526 1.209 4.527M95.216 175.117l4.838 6.639 5.14 5.431M108.822 190.205l1.814 4.828 3.023 4.828 3.024 4.527 4.535 4.828.907 1.81 2.117 4.829 3.023 4.828-4.837 1.207 5.442 4.828M142.383 192.317l-2.42-.603v-5.13l.605-4.828-.604.301M146.313 187.187l4.838 2.414 4.837.604 4.535 1.207 4.838-1.81 5.14 2.112 4.838-1.207 4.837 1.207 4.838-2.414 4.837-4.225M172.617 162.744l-4.535.302M168.687 160.632l9.07 5.13-5.744 10.864"/><path d="m181.083 177.833 3.628-2.113-4.535 2.716-4.837-.302-4.536-1.81-4.837.603-4.535.604M148.43 188.696l4.837 5.13 4.535 4.828"/><path d="m160.221 200.163-4.837-4.225-5.14-4.828M117.892 186.584l2.117-2.414h-2.419l-3.93.603 3.628 5.13M117.288 188.093l4.837 5.431M84.332 205.595l1.511 4.828-1.209 4.828.605 3.32-5.443 2.414 4.233 4.526 3.629 4.828 3.628 5.13 2.419 1.509 4.837 4.828 4.535 5.432 4.838 3.018 1.21 6.337"/><path d="m147.825 231.546.302-3.62-.604-4.83 3.023-4.526-1.21-3.017-1.209 2.112-4.535 4.527-4.535-.604-3.628-4.225 6.349-5.13.302 1.811-4.837 3.018-1.21-3.018-5.14 1.509-4.837-4.828-5.14-6.036-4.233-8.75-4.233-5.432-4.837-9.657-3.024-5.431-.605-4.829-1.814-4.828v-1.509l-1.21-4.828-5.14-.603-9.372-5.13-3.023-4.829-2.721-4.828-1.21-4.526 1.21-6.337.907-4.828 1.209-4.829-.605-6.94-4.837-1.207M82.518 111.445l6.651 4.828M100.659 119.593h4.837l4.838 1.81 5.14 3.621 7.86-7.544 5.14-2.414 4.838-1.509 4.838-.603 5.14-.604h4.535l5.14.604 4.535 1.207 4.838 2.414 7.558 6.035 4.838-1.509 4.535-.301M178.06 122.61l3.326 4.527 3.023 5.13 1.814 4.828 2.419 4.828 3.023 4.828 2.42 5.432 1.51 4.828-4.534 5.733 3.628 4.829 6.954 3.017 1.512 4.829v4.526l-1.512 4.828 4.837 3.32 2.722 6.035.302 4.526-.907 4.828.302 5.13 6.047 6.64 6.652 2.111 4.535 1.811 6.954 3.923M259.391 241.806l-3.628-4.828-5.14-4.828-8.465-4.527-2.117-4.828-.302-4.828-1.21-4.828-1.209-4.828-.302-1.811-1.512-4.828v-4.828l.302-5.13-1.814-4.527M250.926 151.278l1.814-4.527M251.53 141.621l4.838-.905M265.136 145.242l-6.047 6.036-4.233-.604-1.814-4.225-4.233 5.734-5.442.603h-4.535l-6.047.906-.303-4.829 1.814-4.828v-4.828l-.907-7.242 4.233-4.828 3.628-4.829-4.535-2.414-3.628-2.716-8.466 7.243-.302.301v-10.561h-2.721M219.18 115.066v4.828l2.115.302-2.418 4.828M207.387 120.196l-4.837-3.018M202.248 119.593l4.535 3.017M212.225 123.515l-4.838-6.337-5.14-1.207-4.837-1.207"/><path d="m200.433 111.143-7.86 4.828 3.325-2.414 4.838-2.414 4.535-.603 4.838-.302h4.837l4.838 2.112 4.837 1.207M225.528 114.463l1.814 4.828-.302 4.828-.605 4.828-1.209 4.828-3.023 4.829-4.838 4.828.907 6.638.605 4.527-3.024 4.828-.604 4.828-1.815 4.828-.907 4.829-2.116 4.828-1.512 4.828-2.116 4.828-2.419 5.13-1.814 4.828-3.024 5.13-1.814 2.113 3.024 3.923 1.814 3.017 5.14.604M190.758 146.148l-5.14-9.657-3.628-12.674-4.837-1.207M173.222 120.196l-2.419 4.828.605 5.13-2.419 5.13-3.023 5.13-3.93 5.13-6.048 4.526M158.71 153.39l.604-1.207-.605 5.13-1.511 4.828 5.14 5.13-8.164 3.018-5.744 4.828-5.14 1.207 4.837-4.225-3.628 3.018 1.814 1.81 4.838-3.62 4.837-4.226 3.024-6.035 2.419-.302 4.535-1.81h4.535l4.838.905"/><path d="m148.732 150.07 9.675-4.526 3.93-4.828 3.024-4.828 1.21-4.527v-5.13M154.779 119.29l-3.628.604-4.536 1.81-4.837 1.51-5.14-1.207"/><path d="m136.033 121.101-3.023 2.113-7.257 2.112h4.536l3.628-3.018 4.837-1.81 5.745-1.207"/><path d="m135.126 117.178-7.86 5.13-1.815.906 4.535-3.32 4.838-2.414 4.837-.603 4.536-1.207 4.837-1.207 5.443 4.526M155.988 113.859l7.257 4.828 2.72 4.828-2.418 4.829-1.814 4.828-1.21 5.13.303-.604M164.756 114.463l-9.675-4.829M159.012 104.203l-4.838-2.414h-11.187l-6.047-.604-4.837.905"/><path d="m130.591 103.297 4.535-1.207-4.837 1.81-.907-1.81 4.837-3.017h14.513l4.837.301 3.326 4.225M185.618 104.504l4.838-.603 5.14-.302M194.386 109.333l-8.465 4.828M193.177 117.178h4.838l7.256 1.811M204.666 120.8l-7.86 2.715-4.838-1.207-4.536 2.414"/><path d="m190.456 120.8-2.419 5.13v4.828l1.21 5.13 2.116 5.13 3.628 4.828 1.814 3.32 4.838 1.206 4.535.302 4.838-1.207 4.535-1.81 4.837-2.415 8.164 5.432M233.692 124.42l4.535-2.413M242.158 106.919l-7.862 4.224-4.837-.603-.907-3.621 3.023-3.018 1.814-2.414-4.232-3.32-1.815.302 1.815-5.13 3.325-4.828-.604-5.432-5.14 1.81"/><path d="m232.785 86.399 4.535-1.207 1.512 4.828 2.72 1.509.606-2.716 4.535-2.716v-4.225l4.837 1.51 2.42 1.508 2.418-2.716M256.67 79.76l1.512 4.828-.605 7.242-1.21 5.13 2.722 2.414 4.838-.603 6.651 2.414M266.648 100.883v-5.13"/><path d="m261.205 93.34 5.443.603-3.93 4.526-6.35 5.432 1.21 4.526-4.234 1.81-1.511 5.13 4.837 3.018-3.023 3.018-2.117 4.828 1.21 2.414 1.21-3.923 8.163-3.017 4.837 3.621"/><path d="m262.717 122.61 1.512 4.828 4.233-1.207-1.21 4.828-3.023 2.415 3.628 3.62v4.829l1.21 5.432-1.815.905M272.695 147.053l2.419-4.828M277.532 141.018H273.3L272.09 138l-3.023 2.112v-4.828M263.322 138l-.605-.905-1.21-4.828-1.813-4.829M256.066 128.042l1.209-4.828"/><path d="m256.973 111.747 1.209 2.716 2.721 3.922-5.442 4.225-2.419 4.527 2.117 4.828 5.744 1.81h5.442l6.047 1.207M285.696 138.905l4.837 3.621M292.952 136.793l4.838-2.414 1.209.302-1.512 4.526-1.21 4.828-1.51 4.527 3.325-1.207 3.326-4.829v-5.431l-2.419 1.81 3.326 4.225-3.93 4.526 5.442 1.811 3.325-3.621"/><path d="m303.534 144.639 5.14-4.828 2.419-1.207-.907 3.017-6.35 3.32 4.233 1.81 3.024 5.734M293.254 151.58l-4.837.301-4.838-.905M285.696 123.515l-1.512-3.922 2.419-3.622-1.512 4.527M297.79 118.989l-3.024-3.621-1.21 3.923 4.234-4.828-4.838-4.225-.605-1.81-.907-2.415M290.533 99.374l-1.814 1.207 2.419-4.526M273.602 87.907l-1.21 4.829 1.21 4.828-.907 5.432-6.35 6.638 4.838 4.829M254.554 101.789l-4.838-4.829-4.837 1.81"/><path d="m240.948 98.167 4.838-3.017 2.419 1.509 1.511 1.81.605 7.544.907 3.621M247.297 107.22l2.42 4.828 4.232 5.13"/><path d="m277.23 124.42-4.535 4.829h-7.257l-7.256-2.414-4.233-5.13-5.442-2.716-3.024 1.81h-4.535l-3.326-6.035 3.628-3.017-.604-4.828 1.512-4.829-4.233-4.224 1.814-4.829 1.21 1.811 1.209-5.13-1.21-4.828 2.419-1.207 2.419-.604h-6.047M231.575 100.28l-1.511 3.32 2.418-6.338-1.814-4.828-4.837.603h-4.838"/><path d="m220.69 95.753 5.443 3.32-1.21 4.828 2.42.603 4.837.302M220.69 105.41l-4.534 1.207-4.838 1.207-4.838-1.207M205.876 115.67l5.442 4.828 1.21 2.414M216.156 112.652l.302 4.526v5.13l1.512 5.13v4.829l1.511 4.828"/><path d="m218.877 108.126-6.047-5.13-4.838-1.207-4.837-2.415-2.117 2.415h-4.837l-4.838-.302-4.838.302M190.456 112.048l-4.838 3.018h-4.837l-4.535.604-4.838-.302-4.838-.905-4.535-3.32-5.14-1.81-4.837-1.51-6.652-.301-4.838.604-4.837.603-4.838 1.207-4.837.604-5.14 1.508-4.838 1.208-4.837.905-4.838-.905-4.837-2.415M86.448 130.456l4.838-2.112.604 4.224-3.325 4.527 3.023 4.526M82.518 146.148l4.837 7.845 4.535 3.32 4.838 1.81 4.535.302"/><path d="m92.193 144.94-3.024-3.62-4.535-2.113L74.657 138l-5.443-1.207-9.373 6.035-2.418 6.035.907-6.035-1.814-6.035-.303-5.13-.907-4.828-.604-4.828 5.14-3.622v-4.526l1.209-6.035 5.442-3.32v-4.828l1.512-4.828-4.838-1.509 3.024-4.828-1.21-2.112 1.21-3.923-1.512-4.828-2.721-1.207.302-1.811v-4.828l2.42-4.828-5.14-2.415-.606-5.13 1.815-3.62.604-3.622 4.233-.603v-4.828l-3.628-1.811 2.116-3.621 3.629-1.207.604-4.527 1.814-1.81v-4.527l-.604-4.828-.605-4.828 3.628-4.225-.302-3.32 3.628-1.206.605-4.828 1.511-1.811M81.913 4.621l4.837-1.81 2.42 1.81-1.815 4.828-.302 5.13 3.023.604.907 7.544-1.209 4.526 3.023 4.828-1.814 4.829 2.722-3.018"/><path d="m77.982 28.762-1.209-6.639.302-5.13-2.418-.905-4.233 3.621M66.493 14.58v4.526l.605 4.828-.303 4.828 3.024 2.414 4.838-1.81M57.423 24.537l-4.536.604M55.306 29.667l.907.604 5.443 4.828-3.024 6.035 1.814 6.337-2.419 4.829 3.024 3.319 6.652-7.846 4.535 1.81 3.023 5.432 3.024 4.225M77.378 56.524 72.54 60.75"/><path d="m81.913 60.749-5.14 6.035h-4.838L64.68 69.5l-.907-7.846-1.21-1.207 4.233-6.337.908-4.526 1.511-4.828v-5.432l-3.023-4.225-.605-4.526-2.721-4.829v-1.207l1.512-4.224-1.512-4.828-2.419 1.81M61.958 12.769l-4.535 3.923 1.21-4.829-2.42-5.13"/><path d="M53.492 3.414v4.828l1.512 3.621 7.256-2.715"/><path d="m56.818 8.242 6.954-1.207 1.814-4.828"/><path d="M60.446 1.905 58.33 6.432l4.233 2.112-2.42 4.828.908 1.51-.605 4.525.303 4.829-5.14-1.207 1.209 2.112 3.023 2.716-5.14 3.017v5.13l.908 4.829-1.21 4.828-1.21 4.828 2.42 4.828-.605 4.828.302 4.829 3.024 3.319-.605 4.526-6.047 3.018 1.814 2.112.907 3.32-4.837 1.81-1.512.302-4.838 4.828-2.418.906-1.512 4.828 1.814 3.32-.605 5.43-1.21 4.226 1.21-.906 3.024-7.846"/><path d="m43.515 97.564.907-4.527-4.838-.301"/><path d="m37.77 90.623 4.838-2.716 4.233 4.829-.605 4.828 1.814 8.45-3.024.905 2.722 5.13-1.815 4.828.605 4.828-6.35 4.225-2.418 4.828-.605 4.828 4.536 7.242-.605 4.828 3.023 6.036-.302 3.319-3.023 2.414-.908 4.828-.604 4.828v4.829M42.91 174.513l-3.024-5.733M47.143 175.419h4.837M48.05 177.833v4.828l2.116.905 1.512 4.828-4.535 2.414 2.116 4.527M53.19 195.335l1.21-4.828 3.93 7.845-.303 4.527 1.21 4.526.604 4.527 7.257-3.621 7.256 1.207 3.024 3.017 6.651 2.113"/><path d="m82.82 208.612-1.21.906v4.526l-1.814 1.207-1.511 4.828-.605 4.828.605 4.829-.605 4.828-1.814 4.828-.605 5.13v5.13l-.604 4.526.907 1.207-2.42 4.829-4.232 4.526 4.233-4.828 1.512-5.734 3.628 3.018 6.047-1.509 7.86-2.414v1.207M68.61 214.648l1.814-4.829 3.93-6.638-1.21-4.527-6.349 6.639M80.401 201.068l-.605-5.431-.907-.906-1.814-3.923 3.629-4.828 1.511-1.509-4.837 5.734-1.21-7.544.303-5.13 4.233-4.527.302-4.828-.907-5.13-1.21-4.828-3.93-4.828M72.238 158.218l-1.814-1.207-3.024 2.716-1.512-3.018-4.837 4.527-3.93-4.225v-4.526M50.166 151.58l2.721 1.81-.604 5.13-1.512 4.526"/><path d="m51.678 162.744-1.21-8.75 3.931-7.243h-5.14M66.19 148.562l5.14.603-.604-4.526 4.233-3.018-4.838-2.414M74.959 145.544v4.526l-.605 4.829-2.419 5.13 2.722 2.112 1.814 3.621 3.023 4.828-1.21 4.225 4.536 1.207-.605 4.828-3.628 1.207-1.21 5.13-4.232 4.527 3.628 6.035-6.35 3.621-3.023 4.828v6.639l-.605 4.828 1.815 4.828M53.19 217.665l-3.628-5.432 3.325-.301 1.512-1.207.907-4.527.605-4.828v-5.733"/><path d="m50.166 204.69.605 2.414 2.419 6.638-.605 4.828M54.4 223.097h-4.838M59.54 212.535l-1.513-4.828v-3.018l-.907-4.828-1.511-4.526-.303-4.527-1.21-3.017-2.116-4.828-6.047 2.414M39.584 186.584l3.628-3.621-2.116 5.13 1.21 4.828 4.837 1.81 1.21 4.828-1.21 2.113 2.419 2.716-.605 4.526-8.163 1.207v5.432l-.303 5.432 3.024 7.242v2.414"/><path d="m55.306 229.434-.604-4.828 1.814-4.527-1.512-4.828-1.814-2.716-3.024 1.51-6.954-6.036-2.418-4.527-2.42-10.26-4.534 6.337v-2.715l1.814-1.811 2.418-4.828-1.814-4.828-4.837-2.113"/><path d="M29.304 189.3h4.838l5.442-.604v3.018l3.024 3.923 3.023 3.017M41.096 198.352l1.21 4.829.302 4.828M40.189 202.577l-2.721-4.828M27.49 201.068l2.419 4.527 2.419 4.828-.605 4.828 1.814 2.112 1.512 3.018-1.21 3.923 4.838 1.509.605 4.828.302 4.828M31.118 235.77l-.604-5.129-7.257 3.018M24.164 239.694l.605 4.828M20.234 245.126l-1.814-2.415-1.21-4.828v-4.526l-1.814-5.13-9.07-5.432-.907-4.828-1.21-4.828 1.21-4.828.907-5.13 1.814-4.829.907-4.828 1.21-4.526 2.116 1.207 1.21-3.018v-4.828l.604-4.828-.605-4.828.605-5.13-.302-4.829-.303-5.13-2.419-3.62 2.117-2.716 1.21-4.829 1.209-4.828 1.209-4.828-1.814-4.828-1.21-5.13-.604-3.621-1.814-4.829-.907-4.526 1.814-4.828-1.21-4.828-2.418-2.414"/><path d="m6.023 109.936 1.512-2.414-1.512 4.828-2.116 4.527v4.828l2.721.905.605 4.828.605 4.829-1.815 4.526 4.233-7.242v4.828l1.21 7.846 2.419 6.035-.605-.905"/><path d="m11.163 146.45-.302-2.415 2.116-4.828M16.908 143.733l-1.21 4.829M19.024 144.639v4.828l-4.232 8.148 4.837-1.811M16.303 165.159l4.838.603M15.396 166.064l3.024 7.242v4.828M22.955 175.117l3.628 7.242-1.814 4.828 3.628 7.243 1.512 4.526-1.512 4.828 1.21 4.527.302 4.828-.907 4.526 1.21 4.828 4.232 3.018 1.21 4.828.907 4.828-.605 3.32"/><path d="m35.654 222.493-5.443 7.243-4.535-2.414-.605-1.811-.302-4.828.302-4.828-.907-4.829v-5.13l-2.418-4.828-2.42-2.112-1.51 2.414M22.653 201.672l4.837-5.734 6.35-3.62M19.327 194.128l-3.628 2.414h-7.56M3.907 200.767l2.419-2.113.605-4.828.604-4.526-1.21-4.829 1.815-6.638.605-4.829-1.814-2.414 1.511-4.828-1.814-4.828-3.023-2.112M8.14 153.088l4.837 3.32 1.512 8.449 1.814 6.035M11.466 173.91l-1.21 4.828"/><path d="m8.442 172.4-.302-7.241-4.838 3.922M9.35 185.678l-.303 4.829M15.699 194.43l-.907 4.828-.907 5.733.604 4.828 1.814.906 3.629 1.207.302 4.526-1.21 1.81 3.024 3.622 2.721 6.035 4.233 1.207-2.419 4.828 2.419.906 3.628 3.62v4.829l.302 4.225-3.628.603"/><path d="m23.56 259.308 1.814-4.828.302-4.828 2.117-4.828v-4.828l-2.117-4.527-2.419-4.828-5.442-1.509M14.49 220.985 16 229.434l-2.419 10.26 1.21 4.526L16 249.048v4.829l1.21 4.526 3.628 1.81"/><path d="m17.21 270.775-3.628.906h1.814v-4.829l4.233-3.62-4.837-3.924-3.024-4.828-1.21-6.639V237.28l.605-3.621v-4.829l1.21-4.828-.605-4.828-1.814-4.828-.605 2.414M18.117 215.553l5.443 3.017h-1.814l6.047 2.415 5.744.603 1.814-4.225M30.816 212.233l-3.628-2.112-4.838-7.846 3.628-7.242-.302-4.828-3.628-2.414.302-.906 1.21-4.828v-4.828l-.907-2.414-1.814-4.828-.605-4.828-.907-3.018 1.21-5.432-1.21-2.414 1.512-5.13 1.209-4.526-1.814-4.828.605-4.829-.605-4.828v-5.13l-1.814-4.526-1.21-4.828 3.024-4.829-.605-5.13-1.21-5.431.605-4.527-.302-4.828-3.023-5.432-4.536-3.319.907 8.45"/><path d="m17.513 79.76 4.233 4.828-1.512 4.828-.302 4.527 1.209 4.828v5.13l.605 4.828v8.148l.604 5.13-.604 4.828-.605 1.207M24.164 132.87l-1.814 4.526v9.355l-.604 4.828.907 4.828-.605 5.734M31.723 160.934l4.838-3.621 2.116 4.224-3.023 2.716M41.7 154.295l4.233-4.225-.604-4.526.604-8.45.908-4.827.302-1.208v-3.017M47.445 119.894l4.838.604h3.326l5.442 3.923 2.116-3.32 5.745 1.81 3.023.906M73.145 126.835l-.303 4.828 3.629 6.639M76.773 147.053l.605 4.828.907 4.828-1.512 3.018 1.21 5.13-3.931 3.621.605 5.13 1.209 3.621-2.116 4.828v4.828l-3.326 5.734 5.442-.905"/><path d="m66.493 191.11-.907-5.13 1.814-4.828 1.814-3.621.303-5.13 1.814-5.13-.907-3.923-2.117-4.828 2.721-5.13-4.837-5.432.604-4.828-1.814-2.716 1.814-4.828h1.815l-1.21-5.734-.605-4.828-3.023-1.81 3.023-2.716-1.209.302-1.21-3.018-.604-5.13-1.814-3.018.302-5.733 2.42-7.242-.606-7.544H54.4l-4.837 3.62"/><path d="m51.073 95.15-1.209 4.828.605 4.526-.907 4.829.604 4.828 1.814 2.112-3.023 2.414.605 4.828 3.628 6.036 1.21.603-1.21 5.13 1.814 1.81-.605 4.527 1.814 4.828-.604 4.829-.605 4.526-1.512-1.509M47.143 159.123l-6.35.906-4.232-6.036-3.024-7.845-.605-4.829-3.628-4.224-.604-7.243.302-4.828-1.814-6.639.605-2.715 2.418-6.64-6.047-5.733 2.42-1.207 1.209-5.431.907-4.829-3.024-3.62.907-4.829 1.21-4.828-1.21-5.13-3.628-3.32-.907-4.828-.605-4.526V55.92l-4.233-4.225 2.42-2.716-2.42-1.207.907-4.828.605-4.526.302-4.829-4.535-3.32 3.93-3.62-.604-4.828-1.814-4.527-3.628-4.828-5.442-2.112"/><path d="M7.838 1.302 6.628 6.13l1.21 4.828-3.629 3.32 3.024-2.415 6.047.302 3.023-.603"/><path d="m19.63 16.39-2.722-2.112-.907-3.018-2.419-4.828-1.814-4.828M10.256 1.302l1.21 4.828-.605 4.526-.605 4.829 3.629 1.81-2.722 4.828.605 4.829-.907 4.828-.605 5.13-1.511 5.13-1.21 4.828 4.233 1.207 2.721 5.733 1.814 4.829.303 4.526v4.828l3.023 5.734-.302 1.207-3.024 1.81-.302 5.13.605 4.828-1.814 5.432-.605 4.828-1.512 3.018 2.117 4.828 1.814 1.207 4.233 5.734 3.023 1.81-.907 5.13 1.814 2.414 1.21 5.13.604 4.527.605 4.224 1.814 4.527 6.652 4.224.907 3.622 1.814 5.733-.907 4.828-3.326 3.621 2.419 4.829-3.326 2.715 1.512 4.829-3.326 8.147 3.023 4.828v4.527l-3.023 4.828 3.326 4.527-.605 4.828 3.023 1.81-.302 4.828 3.628 4.829-.605 4.828 2.42 5.13-1.21 4.828 6.047.604-5.14 1.207h.605l2.72 1.508 4.838-2.112 4.838-1.81M34.747 237.581l-1.21-4.828-2.419-3.017-1.814-4.527-1.21-4.828-.301-4.828-1.21-4.828M8.745 206.5l-3.93.604M15.094 195.938l1.21 4.829.604 4.828.302 5.13-3.023 6.638 1.21 4.829 1.511 4.828 1.21 5.13 1.511 5.13v4.828l3.93-3.621M16.303 240.297l-3.326-3.017-3.628 5.431-1.21-.301-1.208-6.64"/><path d="m4.814 226.718 1.814 4.828-2.116 3.018-.605 3.017 2.419 7.243.605 3.32 4.837 5.43v3.622l4.838 3.018M12.675 269.87l.302-4.526-6.651-.302M3.605 258.705l4.837-2.716M3.605 246.936l2.418 4.828.908 2.414-3.024 4.829.605 5.13v6.035"/><path d="m21.443 268.361-5.442-1.509-4.838 6.036-5.744-2.113 1.814 1.51 1.814-4.83-.907-1.206.907-4.828 1.814-5.13-.605-4.828-3.325-4.225-1.815-4.828-.604-4.829 3.628-1.207 1.21-4.828-2.117-4.526 2.419-8.45-.605-4.828.907-3.923 2.419-.603-.605-4.828.302-4.829.303-5.13 2.419-1.207 4.837-1.508-2.116-5.13-.907-4.828.604-4.829-.604-4.526-4.838-2.414-2.419-4.527 2.117-3.923-2.419-4.828v-14.183l.907-4.828-.605-3.017 4.233-2.414-1.21-4.829 3.327-1.81-4.233-2.716H9.954l-.907-4.527-1.21-4.526 2.117-1.81.605-2.415-1.21-4.828 2.721-3.923-3.628-3.32 2.42-1.206.301-5.13-1.209-4.828-.907-4.829-.605-4.828-3.628-2.414V69.5l3.628-4.526v-4.829l-.907-4.224-1.814-2.113-1.512-6.035.605-4.526-.605-4.828L5.42 35.4v-4.828l-1.512-1.81M13.582 30.573v4.224M13.28 41.134l-4.838.604M8.745 40.53l2.72.906 2.722 4.828.605 4.829M14.49 50.489l-4.838-4.828M8.442 49.282 13.28 52.3"/><path d="m5.419 52.601 1.21-3.017 4.232 7.846 1.21 4.828.906 1.81 1.21 4.828-2.721 4.829 2.116 3.017-1.21 4.828 1.815 2.716v5.13l1.21 4.527-.303 7.242M22.955 98.77l5.745.906-1.512 4.527.605 4.828-5.443 6.337M16.001 112.954v7.242M11.768 115.066l1.814 2.414 2.721 4.828 1.814 4.829-1.814 7.242 6.35.603 6.651 7.846 1.21 4.527-.303 4.828-.302 4.828 1.814 4.828v4.828l-3.93 5.13M16.908 192.92l1.814 4.829-.302 4.828 1.512 2.414 1.814 5.13v4.828l-1.21 4.829.605 4.828 1.21 2.414-1.815 4.828.605 4.828 2.419.604-1.21 4.828-.604 4.828.907 4.828 1.814 3.621 5.14-6.638M16.001 241.504l2.419 5.13 2.116 4.829 1.512 4.828.605 4.526v4.527l-5.745 3.319M76.168 217.062l1.21-4.829.907-4.828v-4.828l-5.443.905v6.94l3.024-4.526-7.256-5.431v-4.527l.302-4.828 3.023-4.526v-4.828l-2.418-1.208M76.168 176.927l-6.047 1.207-1.814-4.224-1.814-.302.302-4.828-4.232-3.32"/><path d="m59.237 167.27-.605 4.527v5.13l1.814 2.113 4.838 5.13 4.837-3.018"/><path d="M61.353 180.85v-4.828l-1.21-4.828M92.495 146.148l-4.535-4.829-3.628-4.828-4.536-5.733-1.209-4.828-.605-4.829.303-4.828-5.443-7.846M65.284 95.15l-4.838-2.113"/><path d="m60.446 93.34 2.419 4.827-3.326 1.207-.605 4.829-1.814 4.526v3.621l1.814 2.414.907-6.035h4.233l8.164 6.337 7.256-4.225 4.838 1.207 4.837 3.32"/><path d="m61.353 102.392-5.14 3.018-4.233 9.958-4.837 2.112M34.142 116.877l.605-.604-2.722 4.527.303 4.828 1.21 1.81-.908 3.018M24.77 133.474l2.116 4.828-.303 6.035 1.21 4.828-.907 4.225.604 4.828v5.13l-3.628 5.733-3.326 1.811 3.024 1.509"/><path d="m37.77 137.698 1.21-4.828.604-4.828-5.442-.604-.605-6.94M45.329 111.143 41.7 113.86l-.605-4.828 5.14-3.32 1.21-4.828.906-5.13.605-4.828-1.814-4.828-3.628-3.621 2.418-6.337.605-5.432 1.814-.603-.604-4.829-1.815-2.112-1.209-4.526.302-4.527-8.163.604-.605-4.829-2.418-4.526.907-4.828-1.21-4.828.303-5.13-.605-4.829-6.047-.905-.907-6.639 1.21-9.354-1.21-5.13-.605-1.81M32.63 5.225l4.838 1.207M40.794 2.207l.907 4.828v1.207l4.535 4.828 1.21-8.147 4.534-2.414 6.652-.302"/><path d="m52.887 3.414-1.814 4.828v4.828l-.604 4.527v9.355l1.21 4.828v4.828l-.303 4.828 3.628 7.242-1.21 2.113 4.838-7.243 2.117-4.828 4.535-.905 9.977-5.13 1.814 3.018M87.658 48.377l.302-4.829 1.814-.905-2.116-4.828-2.42-6.337-3.325-4.828.907-4.527v-4.828l-.907-4.526"/><path d="m69.517 6.13-1.814-2.414v4.828l5.442 3.923 4.535-3.621 8.466 3.621 4.837-1.81 6.047-8.148 2.42 10.863 4.837 1.81 5.14 3.924 8.163 3.62 4.838-2.715 3.628-5.432 1.21-1.509 2.418 2.415 4.838-3.622 6.349-1.508 6.652-.604 6.046-.603 7.862-1.207 4.837.603 4.838-1.81-.605-3.923.907 4.526 6.652 4.225 9.675 5.733 4.233 5.734 4.837 6.035M215.55 24.84v-2.113l3.024-1.509-.604 3.018 1.814 3.017 4.837-3.62.907-.604-2.116 5.13-.605 5.13-1.21 8.147-2.418 4.828-3.326 4.527 1.21 4.224 1.511 3.32h3.024l4.837 2.414 3.326-3.32"/><path d="m234.599 55.619-.907-4.828-.605-3.018-6.047-1.81M223.714 45.963l4.838 7.544 1.21 4.828M238.53 51.998v2.112l-4.838-7.846M245.181 46.264l2.419-1.81 4.837-4.225"/><path d="m245.181 40.23-2.116 5.129-1.21 3.018 1.814 6.035 3.024-6.035 2.419 4.224 4.837.302 5.14 1.207 2.419-.603M262.717 64.672l4.535.603 3.024 2.414 1.512 5.13M267.555 74.63v-4.828l-3.628-3.621"/><path d="m249.414 59.844 1.512-4.829 1.209-.603-6.652 6.337-6.047-3.018-4.535-2.112-4.837-.905-1.814.603-4.838.604-4.535 1.509 2.418-5.432 4.838-1.81-.302-5.432 2.116-6.941h-4.535l-4.838 4.225"/><path d="m221.295 41.738 4.838-1.509h7.861l2.721 3.018"/><path d="m244.879 41.134-5.14 6.036-4.838 3.017-.605-4.224-4.837 1.207-.605 4.224h-4.535l-2.721-5.13-3.628 2.414.907 3.622 1.21-4.829M222.203 30.27l3.023-2.413-4.838-5.13M235.808 25.744l-.907 1.51-.302 4.526h3.326l4.535-3.621 2.116-1.811-6.651 5.432 6.047-1.81 4.837 1.508 2.721 5.13"/><path d="m245.786 30.874-4.838 2.113 1.21 3.017 4.837-1.207 3.93-1.207-1.209 4.829 3.628 1.81-6.047 4.828-.907 4.828-5.14 4.527.605 7.544.605 1.509M221.295 79.156l-1.511-1.207-3.024-4.828M199.829 58.938l6.651 3.018 2.42 4.828 2.418 5.13 1.21 5.13 1.209 4.828.302 4.527.605 4.828v20.821l.302 4.829v4.828l.605 4.828v4.828l.605 4.828.907 4.829v-4.527l4.232-3.017M267.555 83.381l-4.233 4.225 5.14-4.527 4.837-1.509 4.838 3.622"/><path d="m274.509 81.57 4.233 4.829-1.512 5.13-1.814 1.81 1.21 7.544M305.046 117.782l4.838-4.225-1.512 1.207-.605 4.225 3.93 1.81M310.488 119.593l-4.837-.604M241.553 25.141h-4.838M239.134 21.218l1.512-2.112 1.21-3.018 4.534 1.509M248.81 16.993l-2.42-5.13-3.325-.905-4.838 1.207M253.344 7.94l-1.209-2.414-1.814.604 6.047-1.81-3.024-2.415M202.55 9.45l.907 5.13-.302 4.827 1.209 1.51.605 4.827.907 4.829 1.814 5.431 1.21 4.527 3.023 4.828.302 4.526v9.657l1.814 4.526 1.21 4.828v5.13l1.511 4.829 1.814 4.828v4.828l.605 5.13 3.628.905-1.814 5.13.605 5.13 3.023 3.923 4.838-.603h5.14l2.419-3.32 1.209-3.017 4.838 3.62 5.442 4.829 2.116-4.527 7.257 5.734 6.047-3.923h5.14l4.535-.905 4.837-2.414M191.968 57.128l-5.443-4.527-3.325-4.828M173.524 43.85l-4.837-1.509-4.838-1.81h-4.837"/><path d="m165.966 41.738 6.35 5.432h4.837l5.744-.302 5.14 7.242 4.838 3.018 4.535 1.207 4.838 1.81 4.837 1.207 4.838 8.752M196.503 17.295 192.27 7.64M196.2 4.923l.605 4.828 4.838-1.207"/><path d="m198.62 1.905 1.209 4.828-.303 4.829 1.512 4.828-2.419 4.828M186.525 13.07l.907-4.828-.302-4.828 3.326-1.207h-4.838"/><path d="m180.78 2.509 2.42 4.828.302 4.225 2.116 5.431 4.838 4.527 2.419 4.828 5.442 4.526"/><path d="m184.711 7.639-1.209-4.828 2.116.301-5.442 4.829"/><path d="m178.06 3.414 1.21 5.13h-4.838l4.232 3.32 4.838 3.017M191.06 16.692l.605-4.829.605-4.828-.605-4.828M192.572 1.905l.907 4.828v4.225l2.722 6.337 2.116 7.544M165.059 4.923l2.116-1.207-1.814-2.112M160.221 1.604l.605 4.828M158.71 8.846l.604-4.828-1.814-1.811M149.941 3.716l-1.814 4.828M141.778 6.733l-1.21-4.526M138.754 1.302l1.512 4.828.302 4.828-1.209 3.923M125.149 16.993l-.605-5.733.605-4.828 2.419-3.621-5.443-1.207-4.837-.302M114.567 2.81l1.209 4.829-1.21 1.509.908 4.828.604 5.13M111.845 20.011l-.302-4.828v-5.13"/><path d="m115.474 7.94 4.837-1.81 6.047 1.509 4.838-1.207"/><path d="M130.591 1.302V6.13l1.814 5.13-4.535 5.432M141.476 43.85l-4.536-.302h-4.837l-4.838-.301-5.14 2.112-5.14 1.81M117.288 50.187l4.233-2.414-3.326 4.828-1.21 4.829-3.023 4.828M79.494 73.121l1.21 4.828v8.148M68.307 90.925 66.795 86.7l-4.837 1.207-2.721-3.017-3.628-.905-6.652 2.414-1.512-1.81-4.837 5.733M46.84 82.476l2.722-4.828 2.418-4.829.303-4.828-4.233-3.621M45.026 68.595l.907 4.828-1.209 5.13"/><path d="m50.771 68.896-1.21-4.828-2.418-6.035v-4.828l-.907-7.242-3.024-4.829-1.511-4.828 1.511-4.828-2.418-4.828-.605-1.509"/><path d="M39.584 28.159v4.828h1.814l1.814 5.13M31.723 35.1l2.117 4.827-.605 4.829v5.13l.302 2.414 1.21 3.62M34.142 61.956l6.047-1.81 1.512 4.828-1.815 4.526-.907 1.509 6.954-1.207 1.815 2.414 7.86 4.828 5.14.302 3.326-2.113 1.21 3.018 1.21 4.225"/><path d="m62.563 80.062-2.117 4.224.605-.301 1.21-5.13M58.027 76.44v4.829l-4.837 3.62h1.814l3.326 3.622-4.233 3.018 1.814 1.81.907 4.527-3.023 4.828 2.418 5.733 1.512 7.544-2.721 4.527 6.047 3.923 1.814 4.828v6.639l.605 1.81 6.651-3.017M32.328 148.26l-8.466 7.846v-3.018l1.21-4.526v-9.959l-1.21-4.828M20.234 121.705l-.605-4.828-2.116-4.829-7.861 1.208M5.419 114.463l1.21 4.828M5.721 126.231l-.605 4.828.303 4.829 1.814 4.828.302 5.13-.604 7.242-1.21 4.828-.907 5.13v14.485l.605 4.828.604 4.828-1.209 4.527 4.535-1.207M28.7 98.77l4.837-1.206 4.838 1.81M31.42 88.21l4.536-9.657v4.828l-3.628-.603 7.86-.604.606 1.81M27.188 85.795l-2.721-2.716-2.721-3.923-1.21-5.431-3.628 1.81-5.14-1.81-4.837 1.207M3.605 78.553h.604v5.13l1.21 1.207M19.63 70.707l5.14 2.414M16.303 64.068l2.117 1.207v-4.828"/><path d="m24.467 53.507 1.21 4.828-.908 4.526.302 4.828-.604 6.941-.303 4.828-1.814 5.432v4.828l1.21 4.828-.605 4.828 3.023 5.432 6.047-.603 2.722 8.449 4.837-2.414M53.492 96.055l-2.116 1.207-.605 5.13 3.024 2.716.302-1.509 7.559-3.621"/><path d="m58.632 89.416-1.814 4.828 1.814 1.208-.605 4.828-4.232 4.828-2.42 4.828 3.024 4.828-1.512 4.829-1.511 4.828-4.233 3.62.605 4.226-.303 4.828.907 4.828 2.419 1.207-.302 4.828-1.21 4.828v5.13l-.604 3.923 2.116 4.828 1.814 4.527H54.4M126.963 148.562l-4.233-4.829-1.814-4.828-2.117-5.13.303-5.13v-5.13l2.419-4.828 7.256-4.526M45.933 25.744l-4.837-3.62M41.096 19.71l2.116 4.526M37.165 15.485v4.828l.303 4.526-.605 4.828 1.512 4.527 1.21 4.828 1.209 2.716-4.536 4.828M24.164 39.324l-1.814-1.207M22.955 31.78l4.838-.604M24.77 26.348v4.526l2.72 4.829-1.814 4.526.907 5.13.605 4.828 1.814 4.828-.907 3.622 1.21 2.112-1.512 4.828 2.116 5.432 2.419 2.414-1.21 3.32 3.326-2.415 2.419-4.828 4.233-3.923M16.001 45.963l-4.233-4.527M32.63 13.372l1.21-4.828-2.42-1.207"/><path d="m34.747 1.604 3.628 5.13-3.024 1.81.605 4.828-1.814 1.207-3.024 4.828 2.117 2.415-1.814 4.224.604 4.828-1.814 1.51v4.827l.605 4.527-.907 4.828-1.21 4.527 3.326.301v4.828l.605 4.829.907 4.828.605 3.32.907 4.827-5.14 3.018v4.828l1.21 1.51 2.72 1.81v7.544l1.815.603-.605 2.414 3.023 4.828-1.209 4.829-1.21 1.509 1.21 4.224 3.023 2.716.605 3.018-3.023 4.828-1.21 1.509 5.745 2.112 1.21 4.828v5.13l.302 5.13-4.233 2.414-1.21 4.828 6.954 1.811"/><path d="m35.351 142.526-.604-4.828-1.512-3.923-.605-4.526-1.21-5.13-3.023-4.225 3.024-4.526 3.628-2.414-.605-4.828-3.023-4.829 3.023-.603 3.024-7.242 1.21-4.829.906-4.828 1.21-4.828-2.42-.604-1.209-3.017v-4.828l.907-5.13-2.116-3.018-1.814-4.828 5.744-.604.605-4.526.605-5.13 6.652-.604 3.023-4.526v-4.828l-1.21-5.13.303-4.828-.302-4.829-.303-4.526-3.023-3.621 1.21-4.828 3.023-5.13"/><path d="m47.445 1.905-.907.604-.302 4.828 2.72 4.828-1.208 4.527-.907 4.828M43.212 11.26V6.13l-1.21-4.828M71.935 1.604l-2.72 5.13-.303 4.526 1.814 4.828-.907 4.225 1.21 4.224 1.813 4.527 3.629 1.81-3.629 4.225 2.42 1.207v3.923l-.605 4.828 1.209 4.828 5.14 3.32-3.93 3.621.604 3.018-.302 5.431-1.21 4.829-1.21 4.828-3.023 3.32.605 4.827-2.419 4.828-4.233 3.32 4.838 3.621 1.512 4.828-1.814 4.828-1.814 2.113 2.418 7.544v8.45l-.302 4.526-4.233 6.035-7.256 3.621 3.326 1.81-.303 4.829 2.42 5.13.301 1.81-5.442 6.337 1.21 2.414 2.116 1.207-4.838 1.207-.907 5.13v.906l-.302 4.828-.302 4.526-3.629 1.207-6.651 3.018-.907 4.526-2.721 4.527v4.828l-5.443 2.112v4.829l3.93 3.62 1.815 4.829 3.628 1.207 1.814 5.13-1.21 5.733 4.838 3.018-.604 4.526"/></g></svg>