<svg width="287" height="434" viewBox="0 0 287 434" fill="none" xmlns="http://www.w3.org/2000/svg">
<rect x="1" y="25" width="215" height="409" fill="#C4C4C4"/>
<rect x="38" y="268" width="120.223" height="140.06" rx="17" fill="#C4C4C4"/>
<rect x="52.2835" y="276.196" width="97.0158" height="118.282" rx="13.5" fill="white" stroke="black"/>
<rect x="45.6575" y="282.622" width="98.0158" height="119.282" rx="14" fill="white"/>
<rect x="49.2205" y="279.274" width="97.0158" height="118.282" rx="13.5" fill="white" stroke="black"/>
<rect x="46.1575" y="283.122" width="97.0158" height="118.282" rx="13.5" fill="white" stroke="black"/>
<path d="M70.3294 413.905C70.3294 413.518 70.1927 413.222 69.9192 413.016C69.6458 412.807 69.1536 412.588 68.4427 412.36C67.7317 412.128 67.1689 411.9 66.7542 411.677C65.624 411.066 65.0589 410.243 65.0589 409.209C65.0589 408.671 65.2093 408.193 65.5101 407.773C65.8154 407.349 66.2506 407.019 66.8157 406.782C67.3854 406.545 68.0234 406.427 68.7298 406.427C69.4407 406.427 70.0742 406.556 70.6302 406.816C71.1862 407.071 71.6168 407.434 71.9222 407.903C72.2321 408.373 72.387 408.906 72.387 409.503H70.3362C70.3362 409.047 70.1927 408.694 69.9056 408.443C69.6185 408.188 69.2151 408.06 68.6956 408.06C68.1943 408.06 67.8046 408.167 67.5267 408.382C67.2487 408.591 67.1097 408.869 67.1097 409.216C67.1097 409.539 67.2714 409.81 67.595 410.029C67.9231 410.248 68.4039 410.453 69.0374 410.644C70.2041 410.995 71.054 411.43 71.5872 411.95C72.1204 412.47 72.387 413.117 72.387 413.891C72.387 414.753 72.0612 415.43 71.4095 415.922C70.7578 416.409 69.8805 416.653 68.7776 416.653C68.012 416.653 67.3147 416.514 66.6858 416.236C66.0569 415.954 65.5761 415.569 65.2435 415.081C64.9153 414.593 64.7513 414.028 64.7513 413.386H66.8089C66.8089 414.484 67.4651 415.033 68.7776 415.033C69.2653 415.033 69.6458 414.935 69.9192 414.739C70.1927 414.539 70.3294 414.261 70.3294 413.905ZM77.056 416.653C75.9713 416.653 75.0872 416.32 74.4036 415.655C73.7246 414.99 73.3851 414.103 73.3851 412.996V412.805C73.3851 412.062 73.5286 411.399 73.8157 410.815C74.1028 410.227 74.5084 409.776 75.0325 409.462C75.5612 409.143 76.1627 408.983 76.8372 408.983C77.8489 408.983 78.6442 409.302 79.2229 409.94C79.8063 410.578 80.0979 411.483 80.0979 412.654V413.461H75.388C75.4518 413.944 75.6432 414.331 75.9622 414.623C76.2858 414.915 76.6936 415.06 77.1858 415.06C77.9469 415.06 78.5416 414.785 78.97 414.233L79.9407 415.32C79.6445 415.739 79.2435 416.068 78.7376 416.305C78.2317 416.537 77.6712 416.653 77.056 416.653ZM76.8304 410.583C76.4384 410.583 76.1194 410.715 75.8733 410.979C75.6318 411.244 75.4768 411.622 75.4085 412.114H78.1565V411.957C78.1474 411.519 78.0289 411.182 77.8011 410.945C77.5732 410.704 77.2496 410.583 76.8304 410.583ZM85.3821 410.972C85.1132 410.936 84.8763 410.918 84.6712 410.918C83.9238 410.918 83.4339 411.171 83.2015 411.677V416.516H81.2259V409.12H83.0921L83.1468 410.002C83.5433 409.323 84.0924 408.983 84.7942 408.983C85.013 408.983 85.2181 409.013 85.4095 409.072L85.3821 410.972ZM89.2308 414.103L90.6048 409.12H92.6692L90.1741 416.516H88.2874L85.7923 409.12H87.8567L89.2308 414.103ZM95.6292 416.516H93.6468V409.12H95.6292V416.516ZM93.5306 407.206C93.5306 406.91 93.6285 406.666 93.8245 406.474C94.025 406.283 94.2962 406.187 94.638 406.187C94.9752 406.187 95.2441 406.283 95.4446 406.474C95.6451 406.666 95.7454 406.91 95.7454 407.206C95.7454 407.507 95.6429 407.753 95.4378 407.944C95.2373 408.136 94.9707 408.231 94.638 408.231C94.3053 408.231 94.0364 408.136 93.8313 407.944C93.6308 407.753 93.5306 407.507 93.5306 407.206ZM100.339 415.06C100.704 415.06 101 414.96 101.228 414.76C101.456 414.559 101.574 414.292 101.583 413.96H103.436C103.431 414.461 103.295 414.921 103.026 415.341C102.757 415.755 102.388 416.079 101.918 416.311C101.453 416.539 100.938 416.653 100.373 416.653C99.316 416.653 98.4821 416.318 97.8714 415.648C97.2607 414.974 96.9554 414.044 96.9554 412.859V412.729C96.9554 411.59 97.2584 410.681 97.8645 410.002C98.4707 409.323 99.3024 408.983 100.36 408.983C101.285 408.983 102.025 409.248 102.581 409.776C103.142 410.3 103.427 411 103.436 411.875H101.583C101.574 411.492 101.456 411.182 101.228 410.945C101 410.704 100.699 410.583 100.325 410.583C99.8652 410.583 99.5166 410.751 99.2796 411.089C99.0472 411.421 98.931 411.964 98.931 412.716V412.921C98.931 413.682 99.0472 414.229 99.2796 414.561C99.512 414.894 99.8652 415.06 100.339 415.06ZM107.968 416.653C106.883 416.653 105.999 416.32 105.316 415.655C104.637 414.99 104.297 414.103 104.297 412.996V412.805C104.297 412.062 104.441 411.399 104.728 410.815C105.015 410.227 105.421 409.776 105.945 409.462C106.473 409.143 107.075 408.983 107.749 408.983C108.761 408.983 109.556 409.302 110.135 409.94C110.718 410.578 111.01 411.483 111.01 412.654V413.461H106.3C106.364 413.944 106.555 414.331 106.874 414.623C107.198 414.915 107.606 415.06 108.098 415.06C108.859 415.06 109.454 414.785 109.882 414.233L110.853 415.32C110.557 415.739 110.156 416.068 109.65 416.305C109.144 416.537 108.583 416.653 107.968 416.653ZM107.742 410.583C107.351 410.583 107.032 410.715 106.785 410.979C106.544 411.244 106.389 411.622 106.321 412.114H109.069V411.957C109.06 411.519 108.941 411.182 108.713 410.945C108.485 410.704 108.162 410.583 107.742 410.583ZM121.373 414.466H117.778L117.094 416.516H114.913L118.618 406.563H120.519L124.244 416.516H122.064L121.373 414.466ZM118.331 412.805H120.82L119.569 409.079L118.331 412.805Z" fill="black"/>
<rect x="52.5492" y="308.017" width="81.9351" height="30.0128" fill="#A0BFF9"/>
<path d="M81.6291 323.704H77.6916V326.37H82.3127V328.017H75.6408V318.064H82.299V319.725H77.6916V322.097H81.6291V323.704ZM85.2043 320.621L85.2658 321.475C85.7944 320.814 86.5031 320.484 87.3918 320.484C88.1756 320.484 88.759 320.714 89.1418 321.174C89.5246 321.635 89.7205 322.323 89.7297 323.239V328.017H87.7541V323.287C87.7541 322.867 87.6629 322.564 87.4806 322.377C87.2983 322.186 86.9953 322.09 86.5715 322.09C86.0155 322.09 85.5985 322.327 85.3205 322.801V328.017H83.3449V320.621H85.2043ZM94.0021 325.604L95.3761 320.621H97.4406L94.9455 328.017H93.0588L90.5636 320.621H92.6281L94.0021 325.604ZM97.8986 324.25C97.8986 323.517 98.0399 322.863 98.3224 322.289C98.605 321.714 99.0106 321.27 99.5392 320.956C100.072 320.641 100.69 320.484 101.392 320.484C102.39 320.484 103.203 320.789 103.832 321.4C104.466 322.011 104.819 322.84 104.892 323.888L104.905 324.394C104.905 325.529 104.589 326.44 103.955 327.128C103.322 327.812 102.472 328.154 101.405 328.154C100.339 328.154 99.4868 327.812 98.8488 327.128C98.2153 326.445 97.8986 325.515 97.8986 324.339V324.25ZM99.8742 324.394C99.8742 325.096 100.006 325.634 100.271 326.007C100.535 326.376 100.913 326.561 101.405 326.561C101.884 326.561 102.258 326.379 102.527 326.014C102.795 325.645 102.93 325.057 102.93 324.25C102.93 323.562 102.795 323.029 102.527 322.651C102.258 322.273 101.879 322.083 101.392 322.083C100.909 322.083 100.535 322.273 100.271 322.651C100.006 323.025 99.8742 323.606 99.8742 324.394ZM108.775 325.221L110.142 320.621H112.261L109.287 329.166L109.123 329.555C108.681 330.521 107.952 331.004 106.936 331.004C106.649 331.004 106.357 330.961 106.061 330.875V329.377L106.361 329.384C106.735 329.384 107.013 329.327 107.195 329.213C107.382 329.099 107.528 328.91 107.633 328.646L107.865 328.038L105.275 320.621H107.401L108.775 325.221Z" fill="black"/>
<rect x="52.5492" y="348.804" width="81.9351" height="42.3258" fill="#A6E48C"/>
<path d="M83.6286 371.99C83.6286 371.749 83.5079 371.56 83.2663 371.423C83.0294 371.282 82.6466 371.156 82.1179 371.047C80.3588 370.678 79.4792 369.93 79.4792 368.805C79.4792 368.148 79.7504 367.602 80.2927 367.164C80.8396 366.722 81.5528 366.501 82.4324 366.501C83.3712 366.501 84.1208 366.722 84.6814 367.164C85.2465 367.606 85.529 368.18 85.529 368.887H83.5535C83.5535 368.604 83.4623 368.372 83.28 368.189C83.0977 368.003 82.8129 367.909 82.4255 367.909C82.0928 367.909 81.8354 367.984 81.6531 368.135C81.4708 368.285 81.3796 368.477 81.3796 368.709C81.3796 368.928 81.4822 369.105 81.6872 369.242C81.8969 369.374 82.2478 369.491 82.74 369.591C83.2322 369.687 83.6469 369.796 83.9841 369.919C85.0277 370.302 85.5495 370.965 85.5495 371.908C85.5495 372.583 85.2602 373.13 84.6814 373.549C84.1026 373.964 83.3552 374.171 82.4392 374.171C81.8194 374.171 81.268 374.062 80.7849 373.843C80.3064 373.619 79.9304 373.316 79.657 372.934C79.3835 372.546 79.2468 372.129 79.2468 371.683H81.1199C81.1381 372.034 81.268 372.302 81.5095 372.489C81.751 372.676 82.0746 372.77 82.4802 372.77C82.8585 372.77 83.1433 372.699 83.3347 372.558C83.5307 372.412 83.6286 372.223 83.6286 371.99ZM89.5964 371.621L90.9704 366.638H93.0349L90.5398 374.034H88.6531L86.1579 366.638H88.2224L89.5964 371.621ZM96.8904 372.578C97.2549 372.578 97.5512 372.478 97.779 372.277C98.0069 372.077 98.1254 371.81 98.1345 371.478H99.987C99.9825 371.979 99.8458 372.439 99.5769 372.858C99.308 373.273 98.9389 373.597 98.4695 373.829C98.0046 374.057 97.4896 374.171 96.9245 374.171C95.8673 374.171 95.0333 373.836 94.4226 373.166C93.8119 372.492 93.5066 371.562 93.5066 370.377V370.247C93.5066 369.108 93.8096 368.199 94.4158 367.52C95.0219 366.84 95.8536 366.501 96.9109 366.501C97.836 366.501 98.5766 366.765 99.1326 367.294C99.6931 367.818 99.9779 368.518 99.987 369.393H98.1345C98.1254 369.01 98.0069 368.7 97.779 368.463C97.5512 368.221 97.2504 368.101 96.8767 368.101C96.4164 368.101 96.0678 368.269 95.8308 368.606C95.5984 368.939 95.4822 369.481 95.4822 370.233V370.438C95.4822 371.2 95.5984 371.746 95.8308 372.079C96.0632 372.412 96.4164 372.578 96.8904 372.578ZM106.864 371.983H103.268L102.585 374.034H100.404L104.109 364.081H106.01L109.735 374.034H107.554L106.864 371.983ZM103.822 370.322H106.31L105.059 366.597L103.822 370.322Z" fill="black"/>
<path d="M56.5162 295.423V298.93H54.4655V288.977H58.3483C59.0957 288.977 59.7519 289.114 60.317 289.387C60.8867 289.661 61.3242 290.05 61.6295 290.556C61.9349 291.058 62.0875 291.63 62.0875 292.272C62.0875 293.247 61.7526 294.018 61.0826 294.583C60.4173 295.143 59.4944 295.423 58.3141 295.423H56.5162ZM56.5162 293.762H58.3483C58.8906 293.762 59.303 293.635 59.5856 293.38C59.8727 293.124 60.0162 292.76 60.0162 292.286C60.0162 291.798 59.8727 291.404 59.5856 291.103C59.2985 290.802 58.902 290.647 58.3961 290.638H56.5162V293.762ZM62.9694 295.164C62.9694 294.43 63.1106 293.776 63.3932 293.202C63.6757 292.628 64.0813 292.183 64.61 291.869C65.1432 291.554 65.7607 291.397 66.4625 291.397C67.4606 291.397 68.274 291.702 68.903 292.313C69.5364 292.924 69.8896 293.753 69.9625 294.801L69.9762 295.307C69.9762 296.442 69.6595 297.353 69.026 298.042C68.3925 298.725 67.5426 299.067 66.4762 299.067C65.4098 299.067 64.5576 298.725 63.9196 298.042C63.2861 297.358 62.9694 296.428 62.9694 295.253V295.164ZM64.9449 295.307C64.9449 296.009 65.0771 296.547 65.3414 296.921C65.6058 297.29 65.984 297.474 66.4762 297.474C66.9547 297.474 67.3284 297.292 67.5973 296.927C67.8662 296.558 68.0006 295.97 68.0006 295.164C68.0006 294.476 67.8662 293.942 67.5973 293.564C67.3284 293.186 66.9502 292.997 66.4625 292.997C65.9795 292.997 65.6058 293.186 65.3414 293.564C65.0771 293.938 64.9449 294.519 64.9449 295.307ZM70.8854 295.177C70.8854 294.024 71.1429 293.106 71.6578 292.423C72.1774 291.739 72.886 291.397 73.7838 291.397C74.5039 291.397 75.0986 291.666 75.568 292.204V288.43H77.5504V298.93H75.7662L75.6705 298.144C75.1783 298.759 74.5449 299.067 73.7701 299.067C72.8997 299.067 72.2002 298.725 71.6715 298.042C71.1474 297.353 70.8854 296.399 70.8854 295.177ZM72.861 295.321C72.861 296.014 72.9817 296.545 73.2233 296.914C73.4648 297.283 73.8157 297.467 74.276 297.467C74.8867 297.467 75.3173 297.21 75.568 296.695V293.776C75.3219 293.261 74.8958 293.004 74.2897 293.004C73.3372 293.004 72.861 293.776 72.861 295.321Z" fill="black"/>
<path d="M273 50.7082H162C162 50.7082 161.887 28.7966 169 17.7082C174.376 9.32804 178.516 3.7383 188 0.708241C203.486 -4.23935 209.757 18.3798 226 17.7082C237.235 17.2438 241.761 7.36306 253 7.70824C268.268 8.17718 285.465 13.4422 286 28.7082C286.349 38.6815 273 50.7082 273 50.7082Z" fill="#A6E48C"/>
<path d="M197.742 34.1624H192.68V37.5901H198.621V39.7083H190.043V26.9114H198.604V29.0471H192.68V32.0969H197.742V34.1624ZM203.622 33.0374L205.222 30.1985H207.938L205.231 34.8567L208.052 39.7083H205.327L203.631 36.72L201.943 39.7083H199.21L202.031 34.8567L199.333 30.1985H202.058L203.622 33.0374ZM212.2 27.8606V30.1985H213.826V32.0618H212.2V36.8079C212.2 37.1594 212.268 37.4114 212.402 37.5637C212.537 37.7161 212.795 37.7922 213.176 37.7922C213.457 37.7922 213.706 37.7717 213.923 37.7307V39.6555C213.425 39.8079 212.912 39.884 212.385 39.884C210.604 39.884 209.695 38.9846 209.66 37.1858V32.0618H208.272V30.1985H209.66V27.8606H212.2ZM219.618 39.884C218.224 39.884 217.087 39.4563 216.208 38.6008C215.335 37.7454 214.899 36.6057 214.899 35.1819V34.9358C214.899 33.9807 215.083 33.1282 215.452 32.3782C215.821 31.6223 216.343 31.0422 217.017 30.6379C217.696 30.2278 218.47 30.0227 219.337 30.0227C220.638 30.0227 221.66 30.4329 222.404 31.2532C223.154 32.0735 223.529 33.2366 223.529 34.7424V35.7795H217.474C217.556 36.4006 217.802 36.8987 218.212 37.2737C218.628 37.6487 219.152 37.8362 219.785 37.8362C220.764 37.8362 221.528 37.4817 222.079 36.7727L223.327 38.1702C222.946 38.7092 222.431 39.1311 221.78 39.4358C221.13 39.7346 220.409 39.884 219.618 39.884ZM219.328 32.0793C218.824 32.0793 218.414 32.2493 218.098 32.5891C217.787 32.929 217.588 33.4153 217.5 34.0481H221.033V33.8459C221.022 33.2834 220.869 32.8499 220.576 32.5452C220.283 32.2346 219.867 32.0793 219.328 32.0793ZM230.323 32.5803C229.978 32.5334 229.673 32.51 229.409 32.51C228.448 32.51 227.818 32.8352 227.52 33.4856V39.7083H224.98V30.1985H227.379L227.449 31.3323C227.959 30.4592 228.665 30.0227 229.568 30.0227C229.849 30.0227 230.112 30.0608 230.359 30.137L230.323 32.5803ZM233.892 30.1985L233.971 31.2971C234.651 30.4475 235.562 30.0227 236.704 30.0227C237.712 30.0227 238.462 30.3186 238.954 30.9104C239.446 31.5022 239.698 32.387 239.71 33.5647V39.7083H237.17V33.6262C237.17 33.0872 237.053 32.6975 236.818 32.4573C236.584 32.2112 236.194 32.0881 235.65 32.0881C234.935 32.0881 234.399 32.3928 234.041 33.0022V39.7083H231.501V30.1985H233.892ZM247.154 39.7083C247.037 39.4797 246.952 39.1956 246.9 38.8557C246.284 39.5413 245.484 39.884 244.5 39.884C243.568 39.884 242.795 39.6145 242.18 39.0754C241.57 38.5364 241.266 37.8567 241.266 37.0364C241.266 36.0286 241.638 35.2551 242.382 34.7161C243.132 34.177 244.213 33.9045 245.625 33.8987H246.794V33.3538C246.794 32.9143 246.68 32.5627 246.451 32.2991C246.229 32.0354 245.874 31.9036 245.388 31.9036C244.96 31.9036 244.623 32.0061 244.377 32.2112C244.137 32.4163 244.017 32.6975 244.017 33.0549H241.477C241.477 32.5042 241.647 31.9944 241.986 31.5256C242.326 31.0569 242.807 30.6907 243.428 30.427C244.049 30.1575 244.746 30.0227 245.52 30.0227C246.692 30.0227 247.62 30.3186 248.306 30.9104C248.997 31.4963 249.343 32.3225 249.343 33.3889V37.511C249.349 38.4133 249.475 39.0959 249.721 39.5588V39.7083H247.154ZM245.054 37.9417C245.429 37.9417 245.775 37.8596 246.091 37.6956C246.407 37.5256 246.642 37.3 246.794 37.0188V35.384H245.845C244.573 35.384 243.897 35.8235 243.815 36.7024L243.806 36.8518C243.806 37.1682 243.917 37.429 244.14 37.634C244.362 37.8391 244.667 37.9417 245.054 37.9417ZM253.975 39.7083H251.426V26.2083H253.975V39.7083Z" fill="black"/>
<path d="M210 394V348" stroke="black" stroke-width="3"/>
<path d="M210 326V312" stroke="black" stroke-width="3"/>
<path d="M210 289C210 289 210 266.197 210 251.585C210 234.956 226 251.585 226 234.956C226 172 226 51 226 51" stroke="black" stroke-width="3"/>
<path d="M16.9922 37.6865H13.0547V40.3525H17.6758V42H11.0039V32.0469H17.6621V33.708H13.0547V36.0801H16.9922V37.6865ZM18.3252 38.2471C18.3252 37.1123 18.5941 36.1986 19.1318 35.5059C19.6742 34.8132 20.4033 34.4668 21.3193 34.4668C22.1305 34.4668 22.7617 34.7448 23.2129 35.3008L23.2949 34.6035H25.0859V41.7539C25.0859 42.401 24.9378 42.9639 24.6416 43.4424C24.3499 43.9209 23.9375 44.2855 23.4043 44.5361C22.8711 44.7868 22.2467 44.9121 21.5312 44.9121C20.9889 44.9121 20.4603 44.8027 19.9453 44.584C19.4303 44.3698 19.0407 44.0918 18.7764 43.75L19.6514 42.5469C20.1436 43.0983 20.7406 43.374 21.4424 43.374C21.9665 43.374 22.3743 43.2327 22.666 42.9502C22.9577 42.6722 23.1035 42.2757 23.1035 41.7607V41.3643C22.6478 41.8792 22.0485 42.1367 21.3057 42.1367C20.417 42.1367 19.6969 41.7904 19.1455 41.0977C18.5986 40.4004 18.3252 39.4775 18.3252 38.3291V38.2471ZM20.3008 38.3906C20.3008 39.0605 20.4352 39.5869 20.7041 39.9697C20.973 40.348 21.3421 40.5371 21.8115 40.5371C22.4131 40.5371 22.8438 40.3115 23.1035 39.8604V36.75C22.8392 36.2988 22.4131 36.0732 21.8252 36.0732C21.3512 36.0732 20.9775 36.2669 20.7041 36.6543C20.4352 37.0417 20.3008 37.6204 20.3008 38.3906ZM30.7666 36.4561C30.4977 36.4196 30.2607 36.4014 30.0557 36.4014C29.3083 36.4014 28.8184 36.6543 28.5859 37.1602V42H26.6104V34.6035H28.4766L28.5312 35.4854C28.9277 34.8063 29.4769 34.4668 30.1787 34.4668C30.3975 34.4668 30.6025 34.4964 30.7939 34.5557L30.7666 36.4561ZM34.9912 42.1367C33.9066 42.1367 33.0225 41.804 32.3389 41.1387C31.6598 40.4733 31.3203 39.5869 31.3203 38.4795V38.2881C31.3203 37.5452 31.4639 36.8822 31.751 36.2988C32.0381 35.7109 32.4437 35.2598 32.9678 34.9453C33.4964 34.6263 34.098 34.4668 34.7725 34.4668C35.7842 34.4668 36.5794 34.7858 37.1582 35.4238C37.7415 36.0618 38.0332 36.9665 38.0332 38.1377V38.9443H33.3232C33.387 39.4274 33.5785 39.8148 33.8975 40.1064C34.221 40.3981 34.6289 40.5439 35.1211 40.5439C35.8822 40.5439 36.4769 40.2682 36.9053 39.7168L37.876 40.8037C37.5798 41.223 37.1787 41.5511 36.6729 41.7881C36.167 42.0205 35.6064 42.1367 34.9912 42.1367ZM34.7656 36.0664C34.3737 36.0664 34.0547 36.1986 33.8086 36.4629C33.5671 36.7272 33.4121 37.1055 33.3438 37.5977H36.0918V37.4404C36.0827 37.0029 35.9642 36.6657 35.7363 36.4287C35.5085 36.1872 35.1849 36.0664 34.7656 36.0664ZM43.167 39.9561C43.167 39.7145 43.0462 39.5254 42.8047 39.3887C42.5677 39.2474 42.1849 39.1221 41.6562 39.0127C39.8971 38.6436 39.0176 37.8962 39.0176 36.7705C39.0176 36.1143 39.2887 35.5674 39.8311 35.1299C40.3779 34.6878 41.0911 34.4668 41.9707 34.4668C42.9095 34.4668 43.6592 34.6878 44.2197 35.1299C44.7848 35.5719 45.0674 36.1462 45.0674 36.8525H43.0918C43.0918 36.57 43.0007 36.3376 42.8184 36.1553C42.6361 35.9684 42.3512 35.875 41.9639 35.875C41.6312 35.875 41.3737 35.9502 41.1914 36.1006C41.0091 36.251 40.918 36.4424 40.918 36.6748C40.918 36.8936 41.0205 37.0713 41.2256 37.208C41.4352 37.3402 41.7861 37.4564 42.2783 37.5566C42.7705 37.6523 43.1852 37.7617 43.5225 37.8848C44.5661 38.2676 45.0879 38.9307 45.0879 39.874C45.0879 40.5485 44.7985 41.0954 44.2197 41.5146C43.641 41.9294 42.8936 42.1367 41.9775 42.1367C41.3577 42.1367 40.8063 42.0273 40.3232 41.8086C39.8447 41.5853 39.4688 41.2822 39.1953 40.8994C38.9219 40.512 38.7852 40.0951 38.7852 39.6484H40.6582C40.6764 39.9993 40.8063 40.2682 41.0479 40.4551C41.2894 40.6419 41.613 40.7354 42.0186 40.7354C42.3968 40.7354 42.6816 40.6647 42.873 40.5234C43.069 40.3776 43.167 40.1885 43.167 39.9561ZM50.3721 39.9561C50.3721 39.7145 50.2513 39.5254 50.0098 39.3887C49.7728 39.2474 49.39 39.1221 48.8613 39.0127C47.1022 38.6436 46.2227 37.8962 46.2227 36.7705C46.2227 36.1143 46.4938 35.5674 47.0361 35.1299C47.583 34.6878 48.2962 34.4668 49.1758 34.4668C50.1146 34.4668 50.8643 34.6878 51.4248 35.1299C51.9899 35.5719 52.2725 36.1462 52.2725 36.8525H50.2969C50.2969 36.57 50.2057 36.3376 50.0234 36.1553C49.8411 35.9684 49.5563 35.875 49.1689 35.875C48.8363 35.875 48.5788 35.9502 48.3965 36.1006C48.2142 36.251 48.123 36.4424 48.123 36.6748C48.123 36.8936 48.2256 37.0713 48.4307 37.208C48.6403 37.3402 48.9912 37.4564 49.4834 37.5566C49.9756 37.6523 50.3903 37.7617 50.7275 37.8848C51.7712 38.2676 52.293 38.9307 52.293 39.874C52.293 40.5485 52.0036 41.0954 51.4248 41.5146C50.846 41.9294 50.0986 42.1367 49.1826 42.1367C48.5628 42.1367 48.0114 42.0273 47.5283 41.8086C47.0498 41.5853 46.6738 41.2822 46.4004 40.8994C46.127 40.512 45.9902 40.0951 45.9902 39.6484H47.8633C47.8815 39.9993 48.0114 40.2682 48.2529 40.4551C48.4945 40.6419 48.818 40.7354 49.2236 40.7354C49.6019 40.7354 49.8867 40.6647 50.0781 40.5234C50.2741 40.3776 50.3721 40.1885 50.3721 39.9561ZM60.8994 38.5342H57.0508V36.9414H60.8994V38.5342ZM66.1016 42V32.0469H69.5879C70.7956 32.0469 71.7116 32.2793 72.3359 32.7441C72.9603 33.2044 73.2725 33.8812 73.2725 34.7744C73.2725 35.262 73.1471 35.6927 72.8965 36.0664C72.6458 36.4355 72.2972 36.7067 71.8506 36.8799C72.361 37.0075 72.762 37.265 73.0537 37.6523C73.3499 38.0397 73.498 38.5137 73.498 39.0742C73.498 40.0312 73.1927 40.7559 72.582 41.248C71.9714 41.7402 71.1009 41.9909 69.9707 42H66.1016ZM68.1523 37.666V40.3525H69.9092C70.3923 40.3525 70.7682 40.2386 71.0371 40.0107C71.3105 39.7783 71.4473 39.4593 71.4473 39.0537C71.4473 38.1423 70.9756 37.6797 70.0322 37.666H68.1523ZM68.1523 36.2168H69.6699C70.7044 36.1986 71.2217 35.7861 71.2217 34.9795C71.2217 34.5283 71.0895 34.2048 70.8252 34.0088C70.5654 33.8083 70.153 33.708 69.5879 33.708H68.1523V36.2168ZM79.1992 42C79.1081 41.8223 79.042 41.6012 79.001 41.3369C78.5225 41.8701 77.9004 42.1367 77.1348 42.1367C76.4102 42.1367 75.8086 41.9271 75.3301 41.5078C74.8561 41.0885 74.6191 40.5599 74.6191 39.9219C74.6191 39.138 74.9085 38.5365 75.4873 38.1172C76.0706 37.6979 76.9115 37.486 78.0098 37.4814H78.9189V37.0576C78.9189 36.7158 78.8301 36.4424 78.6523 36.2373C78.4792 36.0322 78.2035 35.9297 77.8252 35.9297C77.4925 35.9297 77.2305 36.0094 77.0391 36.1689C76.8522 36.3285 76.7588 36.5472 76.7588 36.8252H74.7832C74.7832 36.3968 74.9154 36.0003 75.1797 35.6357C75.444 35.2712 75.8177 34.9863 76.3008 34.7812C76.7839 34.5716 77.3262 34.4668 77.9277 34.4668C78.8392 34.4668 79.5615 34.6969 80.0947 35.1572C80.6325 35.613 80.9014 36.2555 80.9014 37.085V40.291C80.9059 40.9928 81.0039 41.5238 81.1953 41.8838V42H79.1992ZM77.5654 40.626C77.8571 40.626 78.126 40.5622 78.3721 40.4346C78.6182 40.3024 78.8005 40.127 78.9189 39.9082V38.6367H78.1807C77.1917 38.6367 76.6654 38.9785 76.6016 39.6621L76.5947 39.7783C76.5947 40.0244 76.6813 40.2272 76.8545 40.3867C77.0277 40.5462 77.2646 40.626 77.5654 40.626ZM86.4248 39.9561C86.4248 39.7145 86.304 39.5254 86.0625 39.3887C85.8255 39.2474 85.4427 39.1221 84.9141 39.0127C83.1549 38.6436 82.2754 37.8962 82.2754 36.7705C82.2754 36.1143 82.5465 35.5674 83.0889 35.1299C83.6357 34.6878 84.349 34.4668 85.2285 34.4668C86.1673 34.4668 86.917 34.6878 87.4775 35.1299C88.0426 35.5719 88.3252 36.1462 88.3252 36.8525H86.3496C86.3496 36.57 86.2585 36.3376 86.0762 36.1553C85.8939 35.9684 85.609 35.875 85.2217 35.875C84.889 35.875 84.6315 35.9502 84.4492 36.1006C84.2669 36.251 84.1758 36.4424 84.1758 36.6748C84.1758 36.8936 84.2783 37.0713 84.4834 37.208C84.693 37.3402 85.0439 37.4564 85.5361 37.5566C86.0283 37.6523 86.443 37.7617 86.7803 37.8848C87.8239 38.2676 88.3457 38.9307 88.3457 39.874C88.3457 40.5485 88.0563 41.0954 87.4775 41.5146C86.8988 41.9294 86.1514 42.1367 85.2354 42.1367C84.6156 42.1367 84.0641 42.0273 83.5811 41.8086C83.1025 41.5853 82.7266 41.2822 82.4531 40.8994C82.1797 40.512 82.043 40.0951 82.043 39.6484H83.916C83.9342 39.9993 84.0641 40.2682 84.3057 40.4551C84.5472 40.6419 84.8708 40.7354 85.2764 40.7354C85.6546 40.7354 85.9395 40.6647 86.1309 40.5234C86.3268 40.3776 86.4248 40.1885 86.4248 39.9561ZM91.709 42H89.7266V34.6035H91.709V42ZM89.6104 32.6895C89.6104 32.3932 89.7083 32.1494 89.9043 31.958C90.1048 31.7666 90.376 31.6709 90.7178 31.6709C91.055 31.6709 91.3239 31.7666 91.5244 31.958C91.7249 32.1494 91.8252 32.3932 91.8252 32.6895C91.8252 32.9902 91.7227 33.2363 91.5176 33.4277C91.3171 33.6191 91.0505 33.7148 90.7178 33.7148C90.3851 33.7148 90.1162 33.6191 89.9111 33.4277C89.7106 33.2363 89.6104 32.9902 89.6104 32.6895ZM96.4189 40.5439C96.7835 40.5439 97.0798 40.4437 97.3076 40.2432C97.5355 40.0426 97.654 39.776 97.6631 39.4434H99.5156C99.5111 39.9447 99.3743 40.4049 99.1055 40.8242C98.8366 41.2389 98.4674 41.5625 97.998 41.7949C97.5332 42.0228 97.0182 42.1367 96.4531 42.1367C95.3958 42.1367 94.5618 41.8018 93.9512 41.1318C93.3405 40.4574 93.0352 39.5277 93.0352 38.3428V38.2129C93.0352 37.0736 93.3382 36.1644 93.9443 35.4854C94.5505 34.8063 95.3822 34.4668 96.4395 34.4668C97.3646 34.4668 98.1051 34.7311 98.6611 35.2598C99.2217 35.7839 99.5065 36.4834 99.5156 37.3584H97.6631C97.654 36.9756 97.5355 36.6657 97.3076 36.4287C97.0798 36.1872 96.779 36.0664 96.4053 36.0664C95.945 36.0664 95.5964 36.235 95.3594 36.5723C95.127 36.9049 95.0107 37.4473 95.0107 38.1992V38.4043C95.0107 39.1654 95.127 39.7122 95.3594 40.0449C95.5918 40.3776 95.945 40.5439 96.4189 40.5439Z" fill="black"/>
</svg>
