<svg width="286" height="55" viewBox="0 0 286 55" fill="none" xmlns="http://www.w3.org/2000/svg">
<g clip-path="url(#clip0)">
<path d="M273 53.7082H162C162 53.7082 161.887 31.7966 169 20.7082C174.376 12.328 178.516 6.7383 188 3.70824C203.486 -1.23935 209.757 21.3798 226 20.7082C237.235 20.2438 241.761 10.3631 253 10.7082C268.268 11.1772 285.465 16.4422 286 31.7082C286.349 41.6815 273 53.7082 273 53.7082Z" fill="#A6E48C"/>
<path d="M197.742 37.1624H192.68V40.5901H198.621V42.7083H190.043V29.9114H198.604V32.0471H192.68V35.0969H197.742V37.1624ZM203.622 36.0374L205.222 33.1985H207.938L205.231 37.8567L208.052 42.7083H205.327L203.631 39.72L201.943 42.7083H199.21L202.031 37.8567L199.333 33.1985H202.058L203.622 36.0374ZM212.2 30.8606V33.1985H213.826V35.0618H212.2V39.8079C212.2 40.1594 212.268 40.4114 212.402 40.5637C212.537 40.7161 212.795 40.7922 213.176 40.7922C213.457 40.7922 213.706 40.7717 213.923 40.7307V42.6555C213.425 42.8079 212.912 42.884 212.385 42.884C210.604 42.884 209.695 41.9846 209.66 40.1858V35.0618H208.272V33.1985H209.66V30.8606H212.2ZM219.618 42.884C218.224 42.884 217.087 42.4563 216.208 41.6008C215.335 40.7454 214.899 39.6057 214.899 38.1819V37.9358C214.899 36.9807 215.083 36.1282 215.452 35.3782C215.821 34.6223 216.343 34.0422 217.017 33.6379C217.696 33.2278 218.47 33.0227 219.337 33.0227C220.638 33.0227 221.66 33.4329 222.404 34.2532C223.154 35.0735 223.529 36.2366 223.529 37.7424V38.7795H217.474C217.556 39.4006 217.802 39.8987 218.212 40.2737C218.628 40.6487 219.152 40.8362 219.785 40.8362C220.764 40.8362 221.528 40.4817 222.079 39.7727L223.327 41.1702C222.946 41.7092 222.431 42.1311 221.78 42.4358C221.13 42.7346 220.409 42.884 219.618 42.884ZM219.328 35.0793C218.824 35.0793 218.414 35.2493 218.098 35.5891C217.787 35.929 217.588 36.4153 217.5 37.0481H221.033V36.8459C221.022 36.2834 220.869 35.8499 220.576 35.5452C220.283 35.2346 219.867 35.0793 219.328 35.0793ZM230.323 35.5803C229.978 35.5334 229.673 35.51 229.409 35.51C228.448 35.51 227.818 35.8352 227.52 36.4856V42.7083H224.98V33.1985H227.379L227.449 34.3323C227.959 33.4592 228.665 33.0227 229.568 33.0227C229.849 33.0227 230.112 33.0608 230.359 33.137L230.323 35.5803ZM233.892 33.1985L233.971 34.2971C234.651 33.4475 235.562 33.0227 236.704 33.0227C237.712 33.0227 238.462 33.3186 238.954 33.9104C239.446 34.5022 239.698 35.387 239.71 36.5647V42.7083H237.17V36.6262C237.17 36.0872 237.053 35.6975 236.818 35.4573C236.584 35.2112 236.194 35.0881 235.65 35.0881C234.935 35.0881 234.399 35.3928 234.041 36.0022V42.7083H231.501V33.1985H233.892ZM247.154 42.7083C247.037 42.4797 246.952 42.1956 246.9 41.8557C246.284 42.5413 245.484 42.884 244.5 42.884C243.568 42.884 242.795 42.6145 242.18 42.0754C241.57 41.5364 241.266 40.8567 241.266 40.0364C241.266 39.0286 241.638 38.2551 242.382 37.7161C243.132 37.177 244.213 36.9045 245.625 36.8987H246.794V36.3538C246.794 35.9143 246.68 35.5627 246.451 35.2991C246.229 35.0354 245.874 34.9036 245.388 34.9036C244.96 34.9036 244.623 35.0061 244.377 35.2112C244.137 35.4163 244.017 35.6975 244.017 36.0549H241.477C241.477 35.5042 241.647 34.9944 241.986 34.5256C242.326 34.0569 242.807 33.6907 243.428 33.427C244.049 33.1575 244.746 33.0227 245.52 33.0227C246.692 33.0227 247.62 33.3186 248.306 33.9104C248.997 34.4963 249.343 35.3225 249.343 36.3889V40.511C249.349 41.4133 249.475 42.0959 249.721 42.5588V42.7083H247.154ZM245.054 40.9417C245.429 40.9417 245.775 40.8596 246.091 40.6956C246.407 40.5256 246.642 40.3 246.794 40.0188V38.384H245.845C244.573 38.384 243.897 38.8235 243.815 39.7024L243.806 39.8518C243.806 40.1682 243.917 40.429 244.14 40.634C244.362 40.8391 244.667 40.9417 245.054 40.9417ZM253.975 42.7083H251.426V29.2083H253.975V42.7083Z" fill="black"/>
</g>
<defs>
<clipPath id="clip0">
<rect width="286" height="55" fill="white"/>
</clipPath>
</defs>
</svg>
