<svg width="306" height="23" viewBox="0 0 306 23" fill="none" xmlns="http://www.w3.org/2000/svg">
<g clip-path="url(#clip0)">
<rect x="164" width="117" height="23" rx="11.5" fill="#BD98F9"/>
<path d="M172.904 16V6.04688H175.967C176.842 6.04688 177.623 6.24512 178.312 6.6416C179.004 7.03353 179.544 7.59408 179.932 8.32324C180.319 9.04785 180.513 9.87272 180.513 10.7979V11.2559C180.513 12.181 180.321 13.0036 179.938 13.7236C179.56 14.4437 179.025 15.002 178.332 15.3984C177.639 15.7949 176.858 15.9954 175.987 16H172.904ZM174.955 7.70801V14.3525H175.946C176.748 14.3525 177.361 14.0905 177.785 13.5664C178.209 13.0423 178.425 12.2926 178.435 11.3174V10.791C178.435 9.7793 178.225 9.01367 177.806 8.49414C177.386 7.97005 176.773 7.70801 175.967 7.70801H174.955ZM185.284 16.1367C184.2 16.1367 183.315 15.804 182.632 15.1387C181.953 14.4733 181.613 13.5869 181.613 12.4795V12.2881C181.613 11.5452 181.757 10.8822 182.044 10.2988C182.331 9.71094 182.737 9.25977 183.261 8.94531C183.789 8.6263 184.391 8.4668 185.065 8.4668C186.077 8.4668 186.872 8.78581 187.451 9.42383C188.035 10.0618 188.326 10.9665 188.326 12.1377V12.9443H183.616C183.68 13.4274 183.871 13.8148 184.19 14.1064C184.514 14.3981 184.922 14.5439 185.414 14.5439C186.175 14.5439 186.77 14.2682 187.198 13.7168L188.169 14.8037C187.873 15.223 187.472 15.5511 186.966 15.7881C186.46 16.0205 185.899 16.1367 185.284 16.1367ZM185.059 10.0664C184.667 10.0664 184.348 10.1986 184.102 10.4629C183.86 10.7272 183.705 11.1055 183.637 11.5977H186.385V11.4404C186.376 11.0029 186.257 10.6657 186.029 10.4287C185.801 10.1872 185.478 10.0664 185.059 10.0664ZM193.46 13.9561C193.46 13.7145 193.339 13.5254 193.098 13.3887C192.861 13.2474 192.478 13.1221 191.949 13.0127C190.19 12.6436 189.311 11.8962 189.311 10.7705C189.311 10.1143 189.582 9.56738 190.124 9.12988C190.671 8.68783 191.384 8.4668 192.264 8.4668C193.202 8.4668 193.952 8.68783 194.513 9.12988C195.078 9.57194 195.36 10.1462 195.36 10.8525H193.385C193.385 10.57 193.294 10.3376 193.111 10.1553C192.929 9.96842 192.644 9.875 192.257 9.875C191.924 9.875 191.667 9.9502 191.484 10.1006C191.302 10.251 191.211 10.4424 191.211 10.6748C191.211 10.8936 191.313 11.0713 191.519 11.208C191.728 11.3402 192.079 11.4564 192.571 11.5566C193.063 11.6523 193.478 11.7617 193.815 11.8848C194.859 12.2676 195.381 12.9307 195.381 13.874C195.381 14.5485 195.091 15.0954 194.513 15.5146C193.934 15.9294 193.187 16.1367 192.271 16.1367C191.651 16.1367 191.099 16.0273 190.616 15.8086C190.138 15.5853 189.762 15.2822 189.488 14.8994C189.215 14.512 189.078 14.0951 189.078 13.6484H190.951C190.969 13.9993 191.099 14.2682 191.341 14.4551C191.582 14.6419 191.906 14.7354 192.312 14.7354C192.69 14.7354 192.975 14.6647 193.166 14.5234C193.362 14.3776 193.46 14.1885 193.46 13.9561ZM199.024 6.78516V8.60352H200.289V10.0527H199.024V13.7441C199.024 14.0176 199.077 14.2135 199.182 14.332C199.286 14.4505 199.487 14.5098 199.783 14.5098C200.002 14.5098 200.196 14.4938 200.364 14.4619V15.959C199.977 16.0775 199.578 16.1367 199.168 16.1367C197.783 16.1367 197.076 15.4372 197.049 14.0381V10.0527H195.969V8.60352H197.049V6.78516H199.024ZM203.475 16H201.492V8.60352H203.475V16ZM201.376 6.68945C201.376 6.39323 201.474 6.14941 201.67 5.95801C201.87 5.7666 202.142 5.6709 202.483 5.6709C202.821 5.6709 203.09 5.7666 203.29 5.95801C203.491 6.14941 203.591 6.39323 203.591 6.68945C203.591 6.99023 203.488 7.23633 203.283 7.42773C203.083 7.61914 202.816 7.71484 202.483 7.71484C202.151 7.71484 201.882 7.61914 201.677 7.42773C201.476 7.23633 201.376 6.99023 201.376 6.68945ZM206.927 8.60352L206.988 9.45801C207.517 8.7972 208.226 8.4668 209.114 8.4668C209.898 8.4668 210.481 8.69694 210.864 9.15723C211.247 9.61751 211.443 10.3057 211.452 11.2217V16H209.477V11.2695C209.477 10.8503 209.385 10.5472 209.203 10.3604C209.021 10.1689 208.718 10.0732 208.294 10.0732C207.738 10.0732 207.321 10.3102 207.043 10.7842V16H205.067V8.60352H206.927ZM217.242 16C217.151 15.8223 217.085 15.6012 217.044 15.3369C216.565 15.8701 215.943 16.1367 215.178 16.1367C214.453 16.1367 213.852 15.9271 213.373 15.5078C212.899 15.0885 212.662 14.5599 212.662 13.9219C212.662 13.138 212.951 12.5365 213.53 12.1172C214.114 11.6979 214.954 11.486 216.053 11.4814H216.962V11.0576C216.962 10.7158 216.873 10.4424 216.695 10.2373C216.522 10.0322 216.246 9.92969 215.868 9.92969C215.535 9.92969 215.273 10.0094 215.082 10.1689C214.895 10.3285 214.802 10.5472 214.802 10.8252H212.826C212.826 10.3968 212.958 10.0003 213.223 9.63574C213.487 9.27116 213.861 8.98633 214.344 8.78125C214.827 8.57161 215.369 8.4668 215.971 8.4668C216.882 8.4668 217.604 8.69694 218.138 9.15723C218.675 9.61296 218.944 10.2555 218.944 11.085V14.291C218.949 14.9928 219.047 15.5238 219.238 15.8838V16H217.242ZM215.608 14.626C215.9 14.626 216.169 14.5622 216.415 14.4346C216.661 14.3024 216.843 14.127 216.962 13.9082V12.6367H216.224C215.235 12.6367 214.708 12.9785 214.645 13.6621L214.638 13.7783C214.638 14.0244 214.724 14.2272 214.897 14.3867C215.071 14.5462 215.308 14.626 215.608 14.626ZM222.827 6.78516V8.60352H224.092V10.0527H222.827V13.7441C222.827 14.0176 222.88 14.2135 222.984 14.332C223.089 14.4505 223.29 14.5098 223.586 14.5098C223.805 14.5098 223.998 14.4938 224.167 14.4619V15.959C223.78 16.0775 223.381 16.1367 222.971 16.1367C221.585 16.1367 220.879 15.4372 220.852 14.0381V10.0527H219.771V8.60352H220.852V6.78516H222.827ZM227.277 16H225.295V8.60352H227.277V16ZM225.179 6.68945C225.179 6.39323 225.277 6.14941 225.473 5.95801C225.673 5.7666 225.944 5.6709 226.286 5.6709C226.623 5.6709 226.892 5.7666 227.093 5.95801C227.293 6.14941 227.394 6.39323 227.394 6.68945C227.394 6.99023 227.291 7.23633 227.086 7.42773C226.885 7.61914 226.619 7.71484 226.286 7.71484C225.953 7.71484 225.685 7.61914 225.479 7.42773C225.279 7.23633 225.179 6.99023 225.179 6.68945ZM228.604 12.2334C228.604 11.4997 228.745 10.8457 229.027 10.2715C229.31 9.69727 229.715 9.25293 230.244 8.93848C230.777 8.62402 231.395 8.4668 232.097 8.4668C233.095 8.4668 233.908 8.77214 234.537 9.38281C235.171 9.99349 235.524 10.8229 235.597 11.8711L235.61 12.377C235.61 13.5117 235.294 14.4232 234.66 15.1113C234.027 15.7949 233.177 16.1367 232.11 16.1367C231.044 16.1367 230.192 15.7949 229.554 15.1113C228.92 14.4277 228.604 13.498 228.604 12.3223V12.2334ZM230.579 12.377C230.579 13.0788 230.711 13.6165 230.976 13.9902C231.24 14.3594 231.618 14.5439 232.11 14.5439C232.589 14.5439 232.963 14.3617 233.231 13.9971C233.5 13.6279 233.635 13.04 233.635 12.2334C233.635 11.5452 233.5 11.012 233.231 10.6338C232.963 10.2555 232.584 10.0664 232.097 10.0664C231.614 10.0664 231.24 10.2555 230.976 10.6338C230.711 11.0075 230.579 11.5885 230.579 12.377ZM238.646 8.60352L238.707 9.45801C239.236 8.7972 239.944 8.4668 240.833 8.4668C241.617 8.4668 242.2 8.69694 242.583 9.15723C242.966 9.61751 243.162 10.3057 243.171 11.2217V16H241.195V11.2695C241.195 10.8503 241.104 10.5472 240.922 10.3604C240.74 10.1689 240.437 10.0732 240.013 10.0732C239.457 10.0732 239.04 10.3102 238.762 10.7842V16H236.786V8.60352H238.646ZM248.489 12.3564H246.855V16H244.805V6.04688H248.503C249.679 6.04688 250.586 6.30892 251.224 6.83301C251.862 7.3571 252.181 8.09766 252.181 9.05469C252.181 9.73372 252.033 10.3011 251.736 10.7568C251.445 11.208 251 11.568 250.403 11.8369L252.557 15.9043V16H250.355L248.489 12.3564ZM246.855 10.6953H248.51C249.025 10.6953 249.424 10.5654 249.706 10.3057C249.989 10.0413 250.13 9.67904 250.13 9.21875C250.13 8.74935 249.995 8.38021 249.727 8.11133C249.462 7.84245 249.054 7.70801 248.503 7.70801H246.855V10.6953ZM258.046 15.248C257.558 15.8405 256.884 16.1367 256.022 16.1367C255.229 16.1367 254.623 15.9089 254.204 15.4531C253.789 14.9974 253.577 14.3298 253.568 13.4502V8.60352H255.544V13.3818C255.544 14.152 255.895 14.5371 256.597 14.5371C257.267 14.5371 257.727 14.3047 257.978 13.8398V8.60352H259.96V16H258.101L258.046 15.248ZM263.535 16H261.553V5.5H263.535V16ZM268.573 16.1367C267.489 16.1367 266.604 15.804 265.921 15.1387C265.242 14.4733 264.902 13.5869 264.902 12.4795V12.2881C264.902 11.5452 265.046 10.8822 265.333 10.2988C265.62 9.71094 266.026 9.25977 266.55 8.94531C267.078 8.6263 267.68 8.4668 268.354 8.4668C269.366 8.4668 270.161 8.78581 270.74 9.42383C271.324 10.0618 271.615 10.9665 271.615 12.1377V12.9443H266.905C266.969 13.4274 267.16 13.8148 267.479 14.1064C267.803 14.3981 268.211 14.5439 268.703 14.5439C269.464 14.5439 270.059 14.2682 270.487 13.7168L271.458 14.8037C271.162 15.223 270.761 15.5511 270.255 15.7881C269.749 16.0205 269.188 16.1367 268.573 16.1367ZM268.348 10.0664C267.956 10.0664 267.637 10.1986 267.391 10.4629C267.149 10.7272 266.994 11.1055 266.926 11.5977H269.674V11.4404C269.665 11.0029 269.546 10.6657 269.318 10.4287C269.09 10.1872 268.767 10.0664 268.348 10.0664Z" fill="black"/>
</g>
<defs>
<clipPath id="clip0">
<rect width="306" height="23" fill="white"/>
</clipPath>
</defs>
</svg>
