<svg width="305" height="23" viewBox="0 0 305 23" fill="none" xmlns="http://www.w3.org/2000/svg">
<g clip-path="url(#clip0)">
<rect x="188" width="117" height="23" rx="11.5" fill="#A0BFF9"/>
<path d="M205.955 13.5322L208.211 6.04688H210.494L207.028 16H204.889L201.437 6.04688H203.713L205.955 13.5322ZM213.393 16H211.41V8.60352H213.393V16ZM211.294 6.68945C211.294 6.39323 211.392 6.14941 211.588 5.95801C211.788 5.7666 212.06 5.6709 212.401 5.6709C212.739 5.6709 213.007 5.7666 213.208 5.95801C213.409 6.14941 213.509 6.39323 213.509 6.68945C213.509 6.99023 213.406 7.23633 213.201 7.42773C213.001 7.61914 212.734 7.71484 212.401 7.71484C212.069 7.71484 211.8 7.61914 211.595 7.42773C211.394 7.23633 211.294 6.99023 211.294 6.68945ZM219.183 10.4561C218.914 10.4196 218.677 10.4014 218.472 10.4014C217.724 10.4014 217.234 10.6543 217.002 11.1602V16H215.026V8.60352H216.893L216.947 9.48535C217.344 8.80632 217.893 8.4668 218.595 8.4668C218.813 8.4668 219.019 8.49642 219.21 8.55566L219.183 10.4561ZM222.847 6.78516V8.60352H224.111V10.0527H222.847V13.7441C222.847 14.0176 222.899 14.2135 223.004 14.332C223.109 14.4505 223.309 14.5098 223.605 14.5098C223.824 14.5098 224.018 14.4938 224.187 14.4619V15.959C223.799 16.0775 223.4 16.1367 222.99 16.1367C221.605 16.1367 220.898 15.4372 220.871 14.0381V10.0527H219.791V8.60352H220.871V6.78516H222.847ZM229.642 15.248C229.154 15.8405 228.479 16.1367 227.618 16.1367C226.825 16.1367 226.219 15.9089 225.8 15.4531C225.385 14.9974 225.173 14.3298 225.164 13.4502V8.60352H227.14V13.3818C227.14 14.152 227.491 14.5371 228.192 14.5371C228.862 14.5371 229.323 14.3047 229.573 13.8398V8.60352H231.556V16H229.696L229.642 15.248ZM237.332 16C237.241 15.8223 237.175 15.6012 237.134 15.3369C236.655 15.8701 236.033 16.1367 235.268 16.1367C234.543 16.1367 233.941 15.9271 233.463 15.5078C232.989 15.0885 232.752 14.5599 232.752 13.9219C232.752 13.138 233.041 12.5365 233.62 12.1172C234.203 11.6979 235.044 11.486 236.143 11.4814H237.052V11.0576C237.052 10.7158 236.963 10.4424 236.785 10.2373C236.612 10.0322 236.336 9.92969 235.958 9.92969C235.625 9.92969 235.363 10.0094 235.172 10.1689C234.985 10.3285 234.892 10.5472 234.892 10.8252H232.916C232.916 10.3968 233.048 10.0003 233.312 9.63574C233.577 9.27116 233.951 8.98633 234.434 8.78125C234.917 8.57161 235.459 8.4668 236.061 8.4668C236.972 8.4668 237.694 8.69694 238.228 9.15723C238.765 9.61296 239.034 10.2555 239.034 11.085V14.291C239.039 14.9928 239.137 15.5238 239.328 15.8838V16H237.332ZM235.698 14.626C235.99 14.626 236.259 14.5622 236.505 14.4346C236.751 14.3024 236.933 14.127 237.052 13.9082V12.6367H236.313C235.325 12.6367 234.798 12.9785 234.734 13.6621L234.728 13.7783C234.728 14.0244 234.814 14.2272 234.987 14.3867C235.16 14.5462 235.397 14.626 235.698 14.626ZM242.637 16H240.654V5.5H242.637V16ZM249.562 13.3887C249.562 13.0013 249.425 12.7051 249.151 12.5C248.878 12.2904 248.386 12.0716 247.675 11.8438C246.964 11.6113 246.401 11.3835 245.986 11.1602C244.856 10.5495 244.291 9.72689 244.291 8.69238C244.291 8.15462 244.441 7.67611 244.742 7.25684C245.048 6.83301 245.483 6.5026 246.048 6.26562C246.618 6.02865 247.256 5.91016 247.962 5.91016C248.673 5.91016 249.306 6.04004 249.862 6.2998C250.418 6.55501 250.849 6.91732 251.154 7.38672C251.464 7.85612 251.619 8.38932 251.619 8.98633H249.568C249.568 8.5306 249.425 8.17741 249.138 7.92676C248.851 7.67155 248.447 7.54395 247.928 7.54395C247.426 7.54395 247.037 7.65104 246.759 7.86523C246.481 8.07487 246.342 8.35286 246.342 8.69922C246.342 9.02279 246.504 9.29395 246.827 9.5127C247.155 9.73145 247.636 9.93652 248.27 10.1279C249.436 10.4788 250.286 10.9141 250.819 11.4336C251.353 11.9531 251.619 12.6003 251.619 13.375C251.619 14.2363 251.293 14.9131 250.642 15.4053C249.99 15.8929 249.113 16.1367 248.01 16.1367C247.244 16.1367 246.547 15.9977 245.918 15.7197C245.289 15.4372 244.808 15.0521 244.476 14.5645C244.147 14.0768 243.983 13.5117 243.983 12.8691H246.041C246.041 13.9674 246.697 14.5166 248.01 14.5166C248.497 14.5166 248.878 14.4186 249.151 14.2227C249.425 14.0221 249.562 13.7441 249.562 13.3887ZM256.288 16.1367C255.203 16.1367 254.319 15.804 253.636 15.1387C252.957 14.4733 252.617 13.5869 252.617 12.4795V12.2881C252.617 11.5452 252.761 10.8822 253.048 10.2988C253.335 9.71094 253.741 9.25977 254.265 8.94531C254.793 8.6263 255.395 8.4668 256.069 8.4668C257.081 8.4668 257.876 8.78581 258.455 9.42383C259.038 10.0618 259.33 10.9665 259.33 12.1377V12.9443H254.62C254.684 13.4274 254.875 13.8148 255.194 14.1064C255.518 14.3981 255.926 14.5439 256.418 14.5439C257.179 14.5439 257.774 14.2682 258.202 13.7168L259.173 14.8037C258.877 15.223 258.476 15.5511 257.97 15.7881C257.464 16.0205 256.903 16.1367 256.288 16.1367ZM256.062 10.0664C255.671 10.0664 255.352 10.1986 255.105 10.4629C254.864 10.7272 254.709 11.1055 254.641 11.5977H257.389V11.4404C257.38 11.0029 257.261 10.6657 257.033 10.4287C256.805 10.1872 256.482 10.0664 256.062 10.0664ZM264.614 10.4561C264.345 10.4196 264.108 10.4014 263.903 10.4014C263.156 10.4014 262.666 10.6543 262.434 11.1602V16H260.458V8.60352H262.324L262.379 9.48535C262.775 8.80632 263.325 8.4668 264.026 8.4668C264.245 8.4668 264.45 8.49642 264.642 8.55566L264.614 10.4561ZM268.463 13.5869L269.837 8.60352H271.901L269.406 16H267.52L265.024 8.60352H267.089L268.463 13.5869ZM274.861 16H272.879V8.60352H274.861V16ZM272.763 6.68945C272.763 6.39323 272.861 6.14941 273.057 5.95801C273.257 5.7666 273.528 5.6709 273.87 5.6709C274.207 5.6709 274.476 5.7666 274.677 5.95801C274.877 6.14941 274.978 6.39323 274.978 6.68945C274.978 6.99023 274.875 7.23633 274.67 7.42773C274.469 7.61914 274.203 7.71484 273.87 7.71484C273.537 7.71484 273.269 7.61914 273.063 7.42773C272.863 7.23633 272.763 6.99023 272.763 6.68945ZM279.571 14.5439C279.936 14.5439 280.232 14.4437 280.46 14.2432C280.688 14.0426 280.806 13.776 280.815 13.4434H282.668C282.663 13.9447 282.527 14.4049 282.258 14.8242C281.989 15.2389 281.62 15.5625 281.15 15.7949C280.686 16.0228 280.171 16.1367 279.605 16.1367C278.548 16.1367 277.714 15.8018 277.104 15.1318C276.493 14.4574 276.188 13.5277 276.188 12.3428V12.2129C276.188 11.0736 276.491 10.1644 277.097 9.48535C277.703 8.80632 278.535 8.4668 279.592 8.4668C280.517 8.4668 281.257 8.73112 281.813 9.25977C282.374 9.78385 282.659 10.4834 282.668 11.3584H280.815C280.806 10.9756 280.688 10.6657 280.46 10.4287C280.232 10.1872 279.931 10.0664 279.558 10.0664C279.097 10.0664 278.749 10.235 278.512 10.5723C278.279 10.9049 278.163 11.4473 278.163 12.1992V12.4043C278.163 13.1654 278.279 13.7122 278.512 14.0449C278.744 14.3776 279.097 14.5439 279.571 14.5439ZM287.2 16.1367C286.116 16.1367 285.231 15.804 284.548 15.1387C283.869 14.4733 283.529 13.5869 283.529 12.4795V12.2881C283.529 11.5452 283.673 10.8822 283.96 10.2988C284.247 9.71094 284.653 9.25977 285.177 8.94531C285.705 8.6263 286.307 8.4668 286.981 8.4668C287.993 8.4668 288.788 8.78581 289.367 9.42383C289.951 10.0618 290.242 10.9665 290.242 12.1377V12.9443H285.532C285.596 13.4274 285.787 13.8148 286.106 14.1064C286.43 14.3981 286.838 14.5439 287.33 14.5439C288.091 14.5439 288.686 14.2682 289.114 13.7168L290.085 14.8037C289.789 15.223 289.388 15.5511 288.882 15.7881C288.376 16.0205 287.815 16.1367 287.2 16.1367ZM286.975 10.0664C286.583 10.0664 286.264 10.1986 286.018 10.4629C285.776 10.7272 285.621 11.1055 285.553 11.5977H288.301V11.4404C288.292 11.0029 288.173 10.6657 287.945 10.4287C287.717 10.1872 287.394 10.0664 286.975 10.0664Z" fill="black"/>
</g>
<defs>
<clipPath id="clip0">
<rect width="305" height="23" fill="white"/>
</clipPath>
</defs>
</svg>
