<svg width="285" height="23" viewBox="0 0 285 23" fill="none" xmlns="http://www.w3.org/2000/svg">
<g clip-path="url(#clip0)">
<rect x="155.5" y="0.5" width="116" height="22" rx="11" fill="#BD98F9" stroke="black" stroke-dasharray="10 10"/>
<path d="M163.904 16V6.04688H166.967C167.842 6.04688 168.623 6.24512 169.312 6.6416C170.004 7.03353 170.544 7.59408 170.932 8.32324C171.319 9.04785 171.513 9.87272 171.513 10.7979V11.2559C171.513 12.181 171.321 13.0036 170.938 13.7236C170.56 14.4437 170.025 15.002 169.332 15.3984C168.639 15.7949 167.858 15.9954 166.987 16H163.904ZM165.955 7.70801V14.3525H166.946C167.748 14.3525 168.361 14.0905 168.785 13.5664C169.209 13.0423 169.425 12.2926 169.435 11.3174V10.791C169.435 9.7793 169.225 9.01367 168.806 8.49414C168.386 7.97005 167.773 7.70801 166.967 7.70801H165.955ZM176.284 16.1367C175.2 16.1367 174.315 15.804 173.632 15.1387C172.953 14.4733 172.613 13.5869 172.613 12.4795V12.2881C172.613 11.5452 172.757 10.8822 173.044 10.2988C173.331 9.71094 173.737 9.25977 174.261 8.94531C174.789 8.6263 175.391 8.4668 176.065 8.4668C177.077 8.4668 177.872 8.78581 178.451 9.42383C179.035 10.0618 179.326 10.9665 179.326 12.1377V12.9443H174.616C174.68 13.4274 174.871 13.8148 175.19 14.1064C175.514 14.3981 175.922 14.5439 176.414 14.5439C177.175 14.5439 177.77 14.2682 178.198 13.7168L179.169 14.8037C178.873 15.223 178.472 15.5511 177.966 15.7881C177.46 16.0205 176.899 16.1367 176.284 16.1367ZM176.059 10.0664C175.667 10.0664 175.348 10.1986 175.102 10.4629C174.86 10.7272 174.705 11.1055 174.637 11.5977H177.385V11.4404C177.376 11.0029 177.257 10.6657 177.029 10.4287C176.801 10.1872 176.478 10.0664 176.059 10.0664ZM184.46 13.9561C184.46 13.7145 184.339 13.5254 184.098 13.3887C183.861 13.2474 183.478 13.1221 182.949 13.0127C181.19 12.6436 180.311 11.8962 180.311 10.7705C180.311 10.1143 180.582 9.56738 181.124 9.12988C181.671 8.68783 182.384 8.4668 183.264 8.4668C184.202 8.4668 184.952 8.68783 185.513 9.12988C186.078 9.57194 186.36 10.1462 186.36 10.8525H184.385C184.385 10.57 184.294 10.3376 184.111 10.1553C183.929 9.96842 183.644 9.875 183.257 9.875C182.924 9.875 182.667 9.9502 182.484 10.1006C182.302 10.251 182.211 10.4424 182.211 10.6748C182.211 10.8936 182.313 11.0713 182.519 11.208C182.728 11.3402 183.079 11.4564 183.571 11.5566C184.063 11.6523 184.478 11.7617 184.815 11.8848C185.859 12.2676 186.381 12.9307 186.381 13.874C186.381 14.5485 186.091 15.0954 185.513 15.5146C184.934 15.9294 184.187 16.1367 183.271 16.1367C182.651 16.1367 182.099 16.0273 181.616 15.8086C181.138 15.5853 180.762 15.2822 180.488 14.8994C180.215 14.512 180.078 14.0951 180.078 13.6484H181.951C181.969 13.9993 182.099 14.2682 182.341 14.4551C182.582 14.6419 182.906 14.7354 183.312 14.7354C183.69 14.7354 183.975 14.6647 184.166 14.5234C184.362 14.3776 184.46 14.1885 184.46 13.9561ZM190.024 6.78516V8.60352H191.289V10.0527H190.024V13.7441C190.024 14.0176 190.077 14.2135 190.182 14.332C190.286 14.4505 190.487 14.5098 190.783 14.5098C191.002 14.5098 191.196 14.4938 191.364 14.4619V15.959C190.977 16.0775 190.578 16.1367 190.168 16.1367C188.783 16.1367 188.076 15.4372 188.049 14.0381V10.0527H186.969V8.60352H188.049V6.78516H190.024ZM194.475 16H192.492V8.60352H194.475V16ZM192.376 6.68945C192.376 6.39323 192.474 6.14941 192.67 5.95801C192.87 5.7666 193.142 5.6709 193.483 5.6709C193.821 5.6709 194.09 5.7666 194.29 5.95801C194.491 6.14941 194.591 6.39323 194.591 6.68945C194.591 6.99023 194.488 7.23633 194.283 7.42773C194.083 7.61914 193.816 7.71484 193.483 7.71484C193.151 7.71484 192.882 7.61914 192.677 7.42773C192.476 7.23633 192.376 6.99023 192.376 6.68945ZM197.927 8.60352L197.988 9.45801C198.517 8.7972 199.226 8.4668 200.114 8.4668C200.898 8.4668 201.481 8.69694 201.864 9.15723C202.247 9.61751 202.443 10.3057 202.452 11.2217V16H200.477V11.2695C200.477 10.8503 200.385 10.5472 200.203 10.3604C200.021 10.1689 199.718 10.0732 199.294 10.0732C198.738 10.0732 198.321 10.3102 198.043 10.7842V16H196.067V8.60352H197.927ZM208.242 16C208.151 15.8223 208.085 15.6012 208.044 15.3369C207.565 15.8701 206.943 16.1367 206.178 16.1367C205.453 16.1367 204.852 15.9271 204.373 15.5078C203.899 15.0885 203.662 14.5599 203.662 13.9219C203.662 13.138 203.951 12.5365 204.53 12.1172C205.114 11.6979 205.954 11.486 207.053 11.4814H207.962V11.0576C207.962 10.7158 207.873 10.4424 207.695 10.2373C207.522 10.0322 207.246 9.92969 206.868 9.92969C206.535 9.92969 206.273 10.0094 206.082 10.1689C205.895 10.3285 205.802 10.5472 205.802 10.8252H203.826C203.826 10.3968 203.958 10.0003 204.223 9.63574C204.487 9.27116 204.861 8.98633 205.344 8.78125C205.827 8.57161 206.369 8.4668 206.971 8.4668C207.882 8.4668 208.604 8.69694 209.138 9.15723C209.675 9.61296 209.944 10.2555 209.944 11.085V14.291C209.949 14.9928 210.047 15.5238 210.238 15.8838V16H208.242ZM206.608 14.626C206.9 14.626 207.169 14.5622 207.415 14.4346C207.661 14.3024 207.843 14.127 207.962 13.9082V12.6367H207.224C206.235 12.6367 205.708 12.9785 205.645 13.6621L205.638 13.7783C205.638 14.0244 205.724 14.2272 205.897 14.3867C206.071 14.5462 206.308 14.626 206.608 14.626ZM213.827 6.78516V8.60352H215.092V10.0527H213.827V13.7441C213.827 14.0176 213.88 14.2135 213.984 14.332C214.089 14.4505 214.29 14.5098 214.586 14.5098C214.805 14.5098 214.998 14.4938 215.167 14.4619V15.959C214.78 16.0775 214.381 16.1367 213.971 16.1367C212.585 16.1367 211.879 15.4372 211.852 14.0381V10.0527H210.771V8.60352H211.852V6.78516H213.827ZM218.277 16H216.295V8.60352H218.277V16ZM216.179 6.68945C216.179 6.39323 216.277 6.14941 216.473 5.95801C216.673 5.7666 216.944 5.6709 217.286 5.6709C217.623 5.6709 217.892 5.7666 218.093 5.95801C218.293 6.14941 218.394 6.39323 218.394 6.68945C218.394 6.99023 218.291 7.23633 218.086 7.42773C217.885 7.61914 217.619 7.71484 217.286 7.71484C216.953 7.71484 216.685 7.61914 216.479 7.42773C216.279 7.23633 216.179 6.99023 216.179 6.68945ZM219.604 12.2334C219.604 11.4997 219.745 10.8457 220.027 10.2715C220.31 9.69727 220.715 9.25293 221.244 8.93848C221.777 8.62402 222.395 8.4668 223.097 8.4668C224.095 8.4668 224.908 8.77214 225.537 9.38281C226.171 9.99349 226.524 10.8229 226.597 11.8711L226.61 12.377C226.61 13.5117 226.294 14.4232 225.66 15.1113C225.027 15.7949 224.177 16.1367 223.11 16.1367C222.044 16.1367 221.192 15.7949 220.554 15.1113C219.92 14.4277 219.604 13.498 219.604 12.3223V12.2334ZM221.579 12.377C221.579 13.0788 221.711 13.6165 221.976 13.9902C222.24 14.3594 222.618 14.5439 223.11 14.5439C223.589 14.5439 223.963 14.3617 224.231 13.9971C224.5 13.6279 224.635 13.04 224.635 12.2334C224.635 11.5452 224.5 11.012 224.231 10.6338C223.963 10.2555 223.584 10.0664 223.097 10.0664C222.614 10.0664 222.24 10.2555 221.976 10.6338C221.711 11.0075 221.579 11.5885 221.579 12.377ZM229.646 8.60352L229.707 9.45801C230.236 8.7972 230.944 8.4668 231.833 8.4668C232.617 8.4668 233.2 8.69694 233.583 9.15723C233.966 9.61751 234.162 10.3057 234.171 11.2217V16H232.195V11.2695C232.195 10.8503 232.104 10.5472 231.922 10.3604C231.74 10.1689 231.437 10.0732 231.013 10.0732C230.457 10.0732 230.04 10.3102 229.762 10.7842V16H227.786V8.60352H229.646ZM239.489 12.3564H237.855V16H235.805V6.04688H239.503C240.679 6.04688 241.586 6.30892 242.224 6.83301C242.862 7.3571 243.181 8.09766 243.181 9.05469C243.181 9.73372 243.033 10.3011 242.736 10.7568C242.445 11.208 242 11.568 241.403 11.8369L243.557 15.9043V16H241.355L239.489 12.3564ZM237.855 10.6953H239.51C240.025 10.6953 240.424 10.5654 240.706 10.3057C240.989 10.0413 241.13 9.67904 241.13 9.21875C241.13 8.74935 240.995 8.38021 240.727 8.11133C240.462 7.84245 240.054 7.70801 239.503 7.70801H237.855V10.6953ZM249.046 15.248C248.558 15.8405 247.884 16.1367 247.022 16.1367C246.229 16.1367 245.623 15.9089 245.204 15.4531C244.789 14.9974 244.577 14.3298 244.568 13.4502V8.60352H246.544V13.3818C246.544 14.152 246.895 14.5371 247.597 14.5371C248.267 14.5371 248.727 14.3047 248.978 13.8398V8.60352H250.96V16H249.101L249.046 15.248ZM254.535 16H252.553V5.5H254.535V16ZM259.573 16.1367C258.489 16.1367 257.604 15.804 256.921 15.1387C256.242 14.4733 255.902 13.5869 255.902 12.4795V12.2881C255.902 11.5452 256.046 10.8822 256.333 10.2988C256.62 9.71094 257.026 9.25977 257.55 8.94531C258.078 8.6263 258.68 8.4668 259.354 8.4668C260.366 8.4668 261.161 8.78581 261.74 9.42383C262.324 10.0618 262.615 10.9665 262.615 12.1377V12.9443H257.905C257.969 13.4274 258.16 13.8148 258.479 14.1064C258.803 14.3981 259.211 14.5439 259.703 14.5439C260.464 14.5439 261.059 14.2682 261.487 13.7168L262.458 14.8037C262.162 15.223 261.761 15.5511 261.255 15.7881C260.749 16.0205 260.188 16.1367 259.573 16.1367ZM259.348 10.0664C258.956 10.0664 258.637 10.1986 258.391 10.4629C258.149 10.7272 257.994 11.1055 257.926 11.5977H260.674V11.4404C260.665 11.0029 260.546 10.6657 260.318 10.4287C260.09 10.1872 259.767 10.0664 259.348 10.0664Z" fill="black"/>
</g>
<defs>
<clipPath id="clip0">
<rect width="285" height="23" fill="white"/>
</clipPath>
</defs>
</svg>
