<svg width="285" height="23" viewBox="0 0 285 23" fill="none" xmlns="http://www.w3.org/2000/svg">
<g clip-path="url(#clip0)">
<rect x="155" width="117" height="23" rx="11.5" fill="#A6E48C"/>
<path d="M179.142 13.3887C179.142 13.0013 179.005 12.7051 178.731 12.5C178.458 12.2904 177.966 12.0716 177.255 11.8438C176.544 11.6113 175.981 11.3835 175.566 11.1602C174.436 10.5495 173.871 9.72689 173.871 8.69238C173.871 8.15462 174.021 7.67611 174.322 7.25684C174.628 6.83301 175.063 6.5026 175.628 6.26562C176.198 6.02865 176.836 5.91016 177.542 5.91016C178.253 5.91016 178.886 6.04004 179.442 6.2998C179.998 6.55501 180.429 6.91732 180.734 7.38672C181.044 7.85612 181.199 8.38932 181.199 8.98633H179.148C179.148 8.5306 179.005 8.17741 178.718 7.92676C178.431 7.67155 178.027 7.54395 177.508 7.54395C177.007 7.54395 176.617 7.65104 176.339 7.86523C176.061 8.07487 175.922 8.35286 175.922 8.69922C175.922 9.02279 176.084 9.29395 176.407 9.5127C176.735 9.73145 177.216 9.93652 177.85 10.1279C179.016 10.4788 179.866 10.9141 180.399 11.4336C180.933 11.9531 181.199 12.6003 181.199 13.375C181.199 14.2363 180.873 14.9131 180.222 15.4053C179.57 15.8929 178.693 16.1367 177.59 16.1367C176.824 16.1367 176.127 15.9977 175.498 15.7197C174.869 15.4372 174.388 15.0521 174.056 14.5645C173.728 14.0768 173.563 13.5117 173.563 12.8691H175.621C175.621 13.9674 176.277 14.5166 177.59 14.5166C178.077 14.5166 178.458 14.4186 178.731 14.2227C179.005 14.0221 179.142 13.7441 179.142 13.3887ZM185.868 16.1367C184.784 16.1367 183.899 15.804 183.216 15.1387C182.537 14.4733 182.197 13.5869 182.197 12.4795V12.2881C182.197 11.5452 182.341 10.8822 182.628 10.2988C182.915 9.71094 183.321 9.25977 183.845 8.94531C184.373 8.6263 184.975 8.4668 185.649 8.4668C186.661 8.4668 187.456 8.78581 188.035 9.42383C188.618 10.0618 188.91 10.9665 188.91 12.1377V12.9443H184.2C184.264 13.4274 184.455 13.8148 184.774 14.1064C185.098 14.3981 185.506 14.5439 185.998 14.5439C186.759 14.5439 187.354 14.2682 187.782 13.7168L188.753 14.8037C188.457 15.223 188.056 15.5511 187.55 15.7881C187.044 16.0205 186.483 16.1367 185.868 16.1367ZM185.643 10.0664C185.251 10.0664 184.932 10.1986 184.686 10.4629C184.444 10.7272 184.289 11.1055 184.221 11.5977H186.969V11.4404C186.96 11.0029 186.841 10.6657 186.613 10.4287C186.385 10.1872 186.062 10.0664 185.643 10.0664ZM194.194 10.4561C193.925 10.4196 193.688 10.4014 193.483 10.4014C192.736 10.4014 192.246 10.6543 192.014 11.1602V16H190.038V8.60352H191.904L191.959 9.48535C192.355 8.80632 192.905 8.4668 193.606 8.4668C193.825 8.4668 194.03 8.49642 194.222 8.55566L194.194 10.4561ZM198.043 13.5869L199.417 8.60352H201.481L198.986 16H197.1L194.604 8.60352H196.669L198.043 13.5869ZM204.441 16H202.459V8.60352H204.441V16ZM202.343 6.68945C202.343 6.39323 202.441 6.14941 202.637 5.95801C202.837 5.7666 203.108 5.6709 203.45 5.6709C203.787 5.6709 204.056 5.7666 204.257 5.95801C204.457 6.14941 204.558 6.39323 204.558 6.68945C204.558 6.99023 204.455 7.23633 204.25 7.42773C204.049 7.61914 203.783 7.71484 203.45 7.71484C203.118 7.71484 202.849 7.61914 202.644 7.42773C202.443 7.23633 202.343 6.99023 202.343 6.68945ZM209.151 14.5439C209.516 14.5439 209.812 14.4437 210.04 14.2432C210.268 14.0426 210.386 13.776 210.396 13.4434H212.248C212.243 13.9447 212.107 14.4049 211.838 14.8242C211.569 15.2389 211.2 15.5625 210.73 15.7949C210.266 16.0228 209.751 16.1367 209.186 16.1367C208.128 16.1367 207.294 15.8018 206.684 15.1318C206.073 14.4574 205.768 13.5277 205.768 12.3428V12.2129C205.768 11.0736 206.071 10.1644 206.677 9.48535C207.283 8.80632 208.115 8.4668 209.172 8.4668C210.097 8.4668 210.838 8.73112 211.394 9.25977C211.954 9.78385 212.239 10.4834 212.248 11.3584H210.396C210.386 10.9756 210.268 10.6657 210.04 10.4287C209.812 10.1872 209.511 10.0664 209.138 10.0664C208.677 10.0664 208.329 10.235 208.092 10.5723C207.859 10.9049 207.743 11.4473 207.743 12.1992V12.4043C207.743 13.1654 207.859 13.7122 208.092 14.0449C208.324 14.3776 208.677 14.5439 209.151 14.5439ZM216.78 16.1367C215.696 16.1367 214.812 15.804 214.128 15.1387C213.449 14.4733 213.109 13.5869 213.109 12.4795V12.2881C213.109 11.5452 213.253 10.8822 213.54 10.2988C213.827 9.71094 214.233 9.25977 214.757 8.94531C215.285 8.6263 215.887 8.4668 216.562 8.4668C217.573 8.4668 218.368 8.78581 218.947 9.42383C219.531 10.0618 219.822 10.9665 219.822 12.1377V12.9443H215.112C215.176 13.4274 215.368 13.8148 215.687 14.1064C216.01 14.3981 216.418 14.5439 216.91 14.5439C217.671 14.5439 218.266 14.2682 218.694 13.7168L219.665 14.8037C219.369 15.223 218.968 15.5511 218.462 15.7881C217.956 16.0205 217.396 16.1367 216.78 16.1367ZM216.555 10.0664C216.163 10.0664 215.844 10.1986 215.598 10.4629C215.356 10.7272 215.201 11.1055 215.133 11.5977H217.881V11.4404C217.872 11.0029 217.753 10.6657 217.525 10.4287C217.298 10.1872 216.974 10.0664 216.555 10.0664ZM227.068 11.6865H223.131V14.3525H227.752V16H221.08V6.04688H227.738V7.70801H223.131V10.0801H227.068V11.6865ZM230.644 8.60352L230.705 9.45801C231.234 8.7972 231.942 8.4668 232.831 8.4668C233.615 8.4668 234.198 8.69694 234.581 9.15723C234.964 9.61751 235.16 10.3057 235.169 11.2217V16H233.193V11.2695C233.193 10.8503 233.102 10.5472 232.92 10.3604C232.738 10.1689 232.435 10.0732 232.011 10.0732C231.455 10.0732 231.038 10.3102 230.76 10.7842V16H228.784V8.60352H230.644ZM239.038 6.78516V8.60352H240.303V10.0527H239.038V13.7441C239.038 14.0176 239.09 14.2135 239.195 14.332C239.3 14.4505 239.501 14.5098 239.797 14.5098C240.016 14.5098 240.209 14.4938 240.378 14.4619V15.959C239.991 16.0775 239.592 16.1367 239.182 16.1367C237.796 16.1367 237.09 15.4372 237.062 14.0381V10.0527H235.982V8.60352H237.062V6.78516H239.038ZM245.56 10.4561C245.291 10.4196 245.054 10.4014 244.849 10.4014C244.101 10.4014 243.611 10.6543 243.379 11.1602V16H241.403V8.60352H243.27L243.324 9.48535C243.721 8.80632 244.27 8.4668 244.972 8.4668C245.19 8.4668 245.396 8.49642 245.587 8.55566L245.56 10.4561ZM249.401 13.2041L250.769 8.60352H252.888L249.914 17.1484L249.75 17.5381C249.308 18.5042 248.579 18.9873 247.562 18.9873C247.275 18.9873 246.984 18.944 246.688 18.8574V17.3604L246.988 17.3672C247.362 17.3672 247.64 17.3102 247.822 17.1963C248.009 17.0824 248.155 16.8932 248.26 16.6289L248.492 16.0205L245.901 8.60352H248.027L249.401 13.2041Z" fill="black"/>
</g>
<defs>
<clipPath id="clip0">
<rect width="285" height="23" fill="white"/>
</clipPath>
</defs>
</svg>
